<svg
  width="32"
  height="32"
  viewBox="0 0 32 32"
  fill="none"
  xmlns="http://www.w3.org/2000/svg"
>
<g clip-path="url(#clip0_1106_14255)">
<rect width="32" height="32" rx="16" fill="#FFECE3" />
<path
      d="M19.8945 28L16.0078 17.9023H4.01562L0.0507812 28H-2L9.23047 -0.652344H11.0664L22.0039 28H19.8945ZM15.3633 16.0859L11.418 5.38281C11.3138 5.10938 11.1836 4.75781 11.0273 4.32812C10.8841 3.89844 10.7279 3.44271 10.5586 2.96094C10.4023 2.47917 10.2461 2.02344 10.0898 1.59375C9.95964 2.04948 9.81641 2.50521 9.66016 2.96094C9.50391 3.41667 9.35417 3.85938 9.21094 4.28906C9.06771 4.70573 8.93099 5.08333 8.80078 5.42188L4.69922 16.0859H15.3633Z"
      fill="#F04200"
    />
</g>
<defs>
<clipPath id="clip0_1106_14255">
<rect width="32" height="32" rx="16" fill="white" />
</clipPath>
</defs>
</svg>
