<svg width="325" height="320" viewBox="0 0 325 320" fill="none" xmlns="http://www.w3.org/2000/svg">
<path fill-rule="evenodd" clip-rule="evenodd" d="M83.1256 51.9053C83.6546 52.8648 83.3056 54.0714 82.3461 54.6004C39.3232 78.3192 10.185 124.109 10.185 176.701C10.185 177.797 9.29676 178.685 8.20112 178.685C7.10548 178.685 6.21729 177.797 6.21729 176.701C6.21729 122.606 36.1929 75.5143 80.4305 51.1258C81.39 50.5968 82.5966 50.9458 83.1256 51.9053ZM219.822 54.0735C220.381 53.1313 221.599 52.8207 222.541 53.3798C250.119 69.7451 271.738 95.0984 283.361 125.408C283.753 126.431 283.242 127.578 282.219 127.97C281.196 128.363 280.048 127.851 279.656 126.828C268.357 97.3623 247.335 72.7065 220.516 56.792C219.574 56.2328 219.263 55.0157 219.822 54.0735ZM52.1201 279.112C52.8641 278.308 54.1193 278.259 54.9235 279.003C79.7698 301.988 113.001 316.032 149.516 316.032C183.765 316.032 215.123 303.678 239.385 283.179C240.222 282.472 241.473 282.578 242.18 283.415C242.888 284.251 242.782 285.503 241.945 286.21C216.995 307.291 184.737 320 149.516 320C111.963 320 77.7798 305.552 52.2292 281.915C51.4249 281.171 51.3761 279.916 52.1201 279.112Z" fill="#FFC5AD"/>
<path fill-rule="evenodd" clip-rule="evenodd" d="M150 295.525C215.625 295.525 268.824 242.326 268.824 176.702C268.824 111.077 215.625 57.8778 150 57.8778C84.3758 57.8778 31.1766 111.077 31.1766 176.702C31.1766 242.326 84.3758 295.525 150 295.525ZM150 299.493C217.816 299.493 272.792 244.517 272.792 176.702C272.792 108.886 217.816 53.9102 150 53.9102C82.1846 53.9102 27.209 108.886 27.209 176.702C27.209 244.517 82.1846 299.493 150 299.493Z" fill="url(#paint0_linear_1157_18631)"/>
<path fill-rule="evenodd" clip-rule="evenodd" d="M139.141 72.0142C139.274 73.1018 138.499 74.0907 137.412 74.2229C107.646 77.8407 81.7838 94.1284 65.3843 117.539C64.7557 118.437 63.5186 118.655 62.6212 118.026C61.7239 117.397 61.506 116.16 62.1346 115.263C79.158 90.9614 106.012 74.0424 136.933 70.2842C138.02 70.152 139.009 70.9266 139.141 72.0142ZM174.792 74.3976C175.069 73.3376 176.154 72.7032 177.213 72.9805C186.437 75.3942 195.177 79.0054 203.254 83.6375C204.205 84.1826 204.533 85.3949 203.988 86.3454C203.443 87.2958 202.231 87.6245 201.281 87.0794C193.502 82.619 185.089 79.1425 176.209 76.819C175.149 76.5416 174.515 75.4575 174.792 74.3976ZM227.494 105.495C228.315 104.769 229.569 104.845 230.295 105.666C247.039 124.578 257.206 149.455 257.206 176.701C257.206 177.797 256.317 178.685 255.222 178.685C254.126 178.685 253.238 177.797 253.238 176.701C253.238 150.461 243.451 126.511 227.324 108.296C226.598 107.475 226.674 106.222 227.494 105.495ZM51.3125 140.063C52.3466 140.425 52.8916 141.557 52.5297 142.591C48.794 153.266 46.7621 164.744 46.7621 176.701C46.7621 192.899 50.4911 208.221 57.1357 221.859C57.6156 222.844 57.2061 224.031 56.2212 224.511C55.2362 224.991 54.0487 224.582 53.5689 223.597C46.6663 209.429 42.7944 193.514 42.7944 176.701C42.7944 164.292 44.9036 152.371 48.7847 141.28C49.1466 140.246 50.2783 139.701 51.3125 140.063ZM251.255 205.487C252.304 205.806 252.895 206.914 252.576 207.962C243.286 238.482 220.754 263.225 191.672 275.506C190.663 275.932 189.499 275.459 189.073 274.45C188.646 273.441 189.119 272.277 190.128 271.851C218.135 260.024 239.836 236.191 248.78 206.807C249.099 205.759 250.207 205.168 251.255 205.487ZM69.0552 243.962C69.8842 243.246 71.137 243.337 71.8533 244.166C90.7873 266.078 118.774 279.939 150 279.939C159.059 279.939 167.842 278.773 176.209 276.583C177.269 276.306 178.353 276.941 178.63 278C178.908 279.06 178.273 280.145 177.213 280.422C168.521 282.696 159.4 283.907 150 283.907C117.573 283.907 88.5067 269.507 68.8512 246.76C68.1349 245.931 68.2262 244.679 69.0552 243.962Z" fill="url(#paint1_linear_1157_18631)"/>
<path fill-rule="evenodd" clip-rule="evenodd" d="M251.256 205.489C252.304 205.808 252.895 206.916 252.576 207.964C243.286 238.484 220.754 263.227 191.672 275.508L189.972 276.226L179.163 255.022L181.174 254.213C184.099 253.035 186.942 251.697 189.692 250.208C190.656 249.687 191.86 250.045 192.381 251.009C192.903 251.972 192.544 253.176 191.581 253.698C189.33 254.916 187.019 256.038 184.654 257.059L191.822 271.12C219.009 259.059 240.017 235.598 248.78 206.809C249.099 205.761 250.208 205.17 251.256 205.489Z" fill="url(#paint2_linear_1157_18631)"/>
<path fill-rule="evenodd" clip-rule="evenodd" d="M226.437 138.238C227.465 137.712 228.724 138.119 229.25 139.147C235.265 150.907 237.58 165.158 237.58 178.933C237.58 202.578 226.886 223.779 211.33 239.342C210.514 240.159 209.191 240.159 208.374 239.343C207.558 238.527 207.558 237.204 208.374 236.387C223.29 221.463 233.4 201.282 233.4 178.933C233.4 165.559 231.142 152.026 225.528 141.05C225.002 140.023 225.409 138.763 226.437 138.238ZM68.9435 204.07C70.0279 203.674 71.2279 204.232 71.6239 205.317C77.8628 222.4 89.5311 236.876 104.543 246.652C105.51 247.282 105.783 248.577 105.153 249.544C104.523 250.511 103.229 250.785 102.261 250.155C86.5029 239.893 74.2508 224.696 67.6972 206.751C67.3012 205.666 67.8592 204.466 68.9435 204.07Z" fill="#FFC5AD"/>
<path fill-rule="evenodd" clip-rule="evenodd" d="M173.636 94.4826C173.962 93.4368 175.075 92.8539 176.121 93.1806C193.133 98.4958 207.91 108.863 218.697 122.523L219.814 123.937L201.533 141.469L200.201 139.598C192.905 129.348 182.601 121.391 170.581 117.015C169.552 116.64 169.021 115.501 169.396 114.472C169.771 113.442 170.909 112.912 171.939 113.287C183.995 117.676 194.421 125.449 202.073 135.454L214.453 123.581C204.26 111.228 190.586 101.857 174.937 96.9678C173.892 96.641 173.309 95.5284 173.636 94.4826ZM90.1046 115.65C90.8898 116.414 90.9068 117.67 90.1427 118.456C75.945 133.044 67.0369 152.798 66.506 174.632L82.612 173.958C83.06 158.008 89.1196 143.458 98.884 132.219C99.6025 131.392 100.856 131.304 101.683 132.023C102.51 132.741 102.598 133.994 101.879 134.821C92.3308 145.812 86.5529 160.159 86.5529 175.861V177.764L62.5132 178.77V176.701C62.5132 152.973 71.9626 131.447 87.2993 115.688C88.0635 114.903 89.3195 114.886 90.1046 115.65Z" fill="#FFC5AD"/>
<path fill-rule="evenodd" clip-rule="evenodd" d="M210.516 155.528C211.567 155.216 212.671 155.814 212.983 156.864C214.773 162.887 215.734 169.264 215.734 175.863C215.734 181 215.151 186.005 214.048 190.812C213.803 191.88 212.739 192.547 211.671 192.302C210.603 192.057 209.936 190.993 210.181 189.925C211.218 185.406 211.766 180.7 211.766 175.863C211.766 169.651 210.862 163.654 209.18 157.995C208.868 156.945 209.466 155.84 210.516 155.528ZM92.3884 206.758C93.3338 206.204 94.5491 206.521 95.103 207.466C99.2684 214.575 104.797 220.79 111.329 225.751C112.202 226.414 112.372 227.659 111.709 228.531C111.046 229.404 109.802 229.574 108.929 228.911C101.985 223.637 96.1088 217.031 91.6797 209.472C91.1258 208.527 91.4431 207.312 92.3884 206.758ZM205.93 206.758C206.876 207.312 207.193 208.527 206.639 209.472C198.857 222.754 186.603 233.098 171.939 238.437C170.909 238.812 169.771 238.281 169.396 237.252C169.021 236.222 169.552 235.084 170.581 234.709C184.367 229.689 195.895 219.96 203.216 207.466C203.77 206.521 204.985 206.204 205.93 206.758Z" fill="#FFC5AD"/>
<path fill-rule="evenodd" clip-rule="evenodd" d="M216.36 97.8254C217.514 97.8254 218.449 96.8901 218.449 95.7364C218.449 94.5826 217.514 93.6474 216.36 93.6474C215.207 93.6474 214.271 94.5826 214.271 95.7364C214.271 96.8901 215.207 97.8254 216.36 97.8254ZM216.36 101.793C219.705 101.793 222.417 99.0814 222.417 95.7364C222.417 92.3914 219.705 89.6797 216.36 89.6797C213.015 89.6797 210.304 92.3914 210.304 95.7364C210.304 99.0814 213.015 101.793 216.36 101.793Z" fill="#FFC5AD"/>
<path fill-rule="evenodd" clip-rule="evenodd" d="M254.301 196.47C255.455 196.47 256.39 195.535 256.39 194.381C256.39 193.227 255.455 192.292 254.301 192.292C253.148 192.292 252.212 193.227 252.212 194.381C252.212 195.535 253.148 196.47 254.301 196.47ZM254.301 200.438C257.646 200.438 260.358 197.726 260.358 194.381C260.358 191.036 257.646 188.324 254.301 188.324C250.956 188.324 248.245 191.036 248.245 194.381C248.245 197.726 250.956 200.438 254.301 200.438Z" fill="#FFC5AD"/>
<path fill-rule="evenodd" clip-rule="evenodd" d="M62.0679 234.411C63.2217 234.411 64.157 233.476 64.157 232.322C64.157 231.169 63.2217 230.233 62.0679 230.233C60.9142 230.233 59.9789 231.169 59.9789 232.322C59.9789 233.476 60.9142 234.411 62.0679 234.411ZM62.0679 238.379C65.4129 238.379 68.1246 235.667 68.1246 232.322C68.1246 228.977 65.4129 226.266 62.0679 226.266C58.7229 226.266 56.0112 228.977 56.0112 232.322C56.0112 235.667 58.7229 238.379 62.0679 238.379Z" fill="#FFC5AD"/>
<path fill-rule="evenodd" clip-rule="evenodd" d="M201.184 247.056C202.338 247.056 203.273 246.121 203.273 244.967C203.273 243.813 202.338 242.878 201.184 242.878C200.03 242.878 199.095 243.813 199.095 244.967C199.095 246.121 200.03 247.056 201.184 247.056ZM201.184 251.024C204.529 251.024 207.241 248.312 207.241 244.967C207.241 241.622 204.529 238.91 201.184 238.91C197.839 238.91 195.127 241.622 195.127 244.967C195.127 248.312 197.839 251.024 201.184 251.024Z" fill="#FFC5AD"/>
<path fill-rule="evenodd" clip-rule="evenodd" d="M65.5953 196.419C66.749 196.419 67.6843 195.484 67.6843 194.33C67.6843 193.176 66.749 192.241 65.5953 192.241C64.4415 192.241 63.5062 193.176 63.5062 194.33C63.5062 195.484 64.4415 196.419 65.5953 196.419ZM65.5953 200.387C68.9403 200.387 71.652 197.675 71.652 194.33C71.652 190.985 68.9403 188.273 65.5953 188.273C62.2502 188.273 59.5386 190.985 59.5386 194.33C59.5386 197.675 62.2502 200.387 65.5953 200.387Z" fill="#FFC5AD"/>
<path fill-rule="evenodd" clip-rule="evenodd" d="M8.41162 198.983C6.16224 198.983 4.33876 200.807 4.33876 203.056C4.33876 205.306 6.16224 207.129 8.41162 207.129C10.661 207.129 12.4845 205.306 12.4845 203.056C12.4845 200.807 10.661 198.983 8.41162 198.983ZM0.371094 203.056C0.371094 198.615 3.97096 195.016 8.41162 195.016C12.8523 195.016 16.4522 198.615 16.4522 203.056C16.4522 207.497 12.8523 211.097 8.41162 211.097C3.97096 211.097 0.371094 207.497 0.371094 203.056Z" fill="url(#paint3_linear_1157_18631)"/>
<path fill-rule="evenodd" clip-rule="evenodd" d="M171.678 30.7645C169.428 30.7645 167.605 32.588 167.605 34.8374C167.605 37.0868 169.428 38.9103 171.678 38.9103C173.927 38.9103 175.751 37.0868 175.751 34.8374C175.751 32.588 173.927 30.7645 171.678 30.7645ZM163.637 34.8374C163.637 30.3967 167.237 26.7969 171.678 26.7969C176.118 26.7969 179.718 30.3967 179.718 34.8374C179.718 39.2781 176.118 42.8779 171.678 42.8779C167.237 42.8779 163.637 39.2781 163.637 34.8374Z" fill="url(#paint4_linear_1157_18631)"/>
<path fill-rule="evenodd" clip-rule="evenodd" d="M269.693 263.55C267.444 263.55 265.62 265.373 265.62 267.623C265.62 269.872 267.444 271.695 269.693 271.695C271.943 271.695 273.766 269.872 273.766 267.623C273.766 265.373 271.943 263.55 269.693 263.55ZM261.653 267.623C261.653 263.182 265.253 259.582 269.693 259.582C274.134 259.582 277.734 263.182 277.734 267.623C277.734 272.063 274.134 275.663 269.693 275.663C265.253 275.663 261.653 272.063 261.653 267.623Z" fill="url(#paint5_linear_1157_18631)"/>
<path fill-rule="evenodd" clip-rule="evenodd" d="M13.6721 254.316C14.7677 254.316 15.6559 255.205 15.6559 256.3V265.148C15.6559 266.244 14.7677 267.132 13.6721 267.132C12.5765 267.132 11.6883 266.244 11.6883 265.148V256.3C11.6883 255.205 12.5765 254.316 13.6721 254.316ZM0.628906 269.572C0.628906 268.477 1.5171 267.588 2.61274 267.588H9.24834C10.344 267.588 11.2322 268.477 11.2322 269.572C11.2322 270.668 10.344 271.556 9.24834 271.556H2.61274C1.5171 271.556 0.628906 270.668 0.628906 269.572ZM16.5317 269.572C16.5317 268.477 17.4199 267.588 18.5156 267.588H26.9944C28.09 267.588 28.9782 268.477 28.9782 269.572C28.9782 270.668 28.09 271.556 26.9944 271.556H18.5156C17.4199 271.556 16.5317 270.668 16.5317 269.572ZM13.6721 271.643C14.7677 271.643 15.6559 272.532 15.6559 273.627V282.843C15.6559 283.939 14.7677 284.827 13.6721 284.827C12.5765 284.827 11.6883 283.939 11.6883 282.843V273.627C11.6883 272.532 12.5765 271.643 13.6721 271.643Z" fill="#FFC5AD"/>
<path fill-rule="evenodd" clip-rule="evenodd" d="M301.952 233.148C303.048 233.148 303.936 234.037 303.936 235.132V243.98C303.936 245.076 303.048 245.964 301.952 245.964C300.857 245.964 299.969 245.076 299.969 243.98V235.132C299.969 234.037 300.857 233.148 301.952 233.148ZM288.909 248.404C288.909 247.309 289.797 246.42 290.893 246.42H297.529C298.624 246.42 299.512 247.309 299.512 248.404C299.512 249.5 298.624 250.388 297.529 250.388H290.893C289.797 250.388 288.909 249.5 288.909 248.404ZM304.812 248.404C304.812 247.309 305.7 246.42 306.796 246.42H315.275C316.37 246.42 317.259 247.309 317.259 248.404C317.259 249.5 316.37 250.388 315.275 250.388H306.796C305.7 250.388 304.812 249.5 304.812 248.404ZM301.952 250.476C303.048 250.476 303.936 251.364 303.936 252.459V261.675C303.936 262.771 303.048 263.659 301.952 263.659C300.857 263.659 299.969 262.771 299.969 261.675V252.459C299.969 251.364 300.857 250.476 301.952 250.476Z" fill="url(#paint6_linear_1157_18631)"/>
<path fill-rule="evenodd" clip-rule="evenodd" d="M309.694 148.562C310.789 148.562 311.677 149.451 311.677 150.546V159.394C311.677 160.49 310.789 161.378 309.694 161.378C308.598 161.378 307.71 160.49 307.71 159.394V150.546C307.71 149.451 308.598 148.562 309.694 148.562ZM296.65 163.818C296.65 162.723 297.539 161.835 298.634 161.835H305.27C306.365 161.835 307.254 162.723 307.254 163.818C307.254 164.914 306.365 165.802 305.27 165.802H298.634C297.539 165.802 296.65 164.914 296.65 163.818ZM312.553 163.818C312.553 162.723 313.441 161.835 314.537 161.835H323.016C324.112 161.835 325 162.723 325 163.818C325 164.914 324.112 165.802 323.016 165.802H314.537C313.441 165.802 312.553 164.914 312.553 163.818ZM309.694 165.89C310.789 165.89 311.677 166.778 311.677 167.873V177.09C311.677 178.185 310.789 179.073 309.694 179.073C308.598 179.073 307.71 178.185 307.71 177.09V167.873C307.71 166.778 308.598 165.89 309.694 165.89Z" fill="url(#paint7_linear_1157_18631)"/>
<path fill-rule="evenodd" clip-rule="evenodd" d="M108.363 0C109.459 0 110.347 0.888192 110.347 1.98383V10.8317C110.347 11.9274 109.459 12.8156 108.363 12.8156C107.267 12.8156 106.379 11.9274 106.379 10.8317V1.98383C106.379 0.888192 107.267 0 108.363 0ZM95.3198 15.2558C95.3198 14.1602 96.208 13.272 97.3037 13.272H103.939C105.035 13.272 105.923 14.1602 105.923 15.2558C105.923 16.3515 105.035 17.2397 103.939 17.2397H97.3037C96.208 17.2397 95.3198 16.3515 95.3198 15.2558ZM111.223 15.2558C111.223 14.1602 112.111 13.272 113.206 13.272H121.685C122.781 13.272 123.669 14.1602 123.669 15.2558C123.669 16.3515 122.781 17.2397 121.685 17.2397H113.206C112.111 17.2397 111.223 16.3515 111.223 15.2558ZM108.363 17.3271C109.459 17.3271 110.347 18.2153 110.347 19.3109V28.527C110.347 29.6227 109.459 30.5109 108.363 30.5109C107.267 30.5109 106.379 29.6227 106.379 28.527V19.3109C106.379 18.2153 107.267 17.3271 108.363 17.3271Z" fill="url(#paint8_linear_1157_18631)"/>
<path fill-rule="evenodd" clip-rule="evenodd" d="M58.2739 128.327C58.6711 128.327 58.9931 128.005 58.9931 127.608C58.9931 127.211 58.6711 126.889 58.2739 126.889C57.8767 126.889 57.5548 127.211 57.5548 127.608C57.5548 128.005 57.8767 128.327 58.2739 128.327ZM55.0254 127.608C55.0254 125.814 56.4798 124.359 58.2739 124.359C60.068 124.359 61.5224 125.814 61.5224 127.608C61.5224 129.402 60.068 130.856 58.2739 130.856C56.4798 130.856 55.0254 129.402 55.0254 127.608Z" fill="#FFC5AD"/>
<path fill-rule="evenodd" clip-rule="evenodd" d="M86.2905 193.835C86.6877 193.835 87.0097 193.513 87.0097 193.116C87.0097 192.719 86.6877 192.397 86.2905 192.397C85.8933 192.397 85.5714 192.719 85.5714 193.116C85.5714 193.513 85.8933 193.835 86.2905 193.835ZM83.042 193.116C83.042 191.322 84.4964 189.867 86.2905 189.867C88.0846 189.867 89.539 191.322 89.539 193.116C89.539 194.91 88.0846 196.364 86.2905 196.364C84.4964 196.364 83.042 194.91 83.042 193.116Z" fill="#FFC5AD"/>
<path fill-rule="evenodd" clip-rule="evenodd" d="M97.3038 111.954C98.4575 111.954 99.3928 111.019 99.3928 109.865C99.3928 108.712 98.4575 107.776 97.3038 107.776C96.15 107.776 95.2147 108.712 95.2147 109.865C95.2147 111.019 96.15 111.954 97.3038 111.954ZM97.3038 115.922C100.649 115.922 103.36 113.21 103.36 109.865C103.36 106.52 100.649 103.809 97.3038 103.809C93.9587 103.809 91.2471 106.52 91.2471 109.865C91.2471 113.21 93.9587 115.922 97.3038 115.922Z" fill="#FFC5AD"/>
<path fill-rule="evenodd" clip-rule="evenodd" d="M157.216 80.1356C154.326 80.1356 151.984 82.4783 151.984 85.3682C151.984 88.2581 154.326 90.6008 157.216 90.6008C160.106 90.6008 162.449 88.2581 162.449 85.3682C162.449 82.4783 160.106 80.1356 157.216 80.1356ZM148.016 85.3682C148.016 80.2871 152.135 76.168 157.216 76.168C162.298 76.168 166.417 80.2871 166.417 85.3682C166.417 89.7683 163.328 93.4469 159.2 94.354V123.99C159.2 125.086 158.312 125.974 157.216 125.974C156.121 125.974 155.233 125.086 155.233 123.99V94.354C151.105 93.4469 148.016 89.7683 148.016 85.3682Z" fill="url(#paint9_linear_1157_18631)"/>
<path fill-rule="evenodd" clip-rule="evenodd" d="M132.39 221.344C133.485 221.344 134.374 222.232 134.374 223.328L134.374 252.963C138.501 253.87 141.59 257.549 141.59 261.949C141.59 267.03 137.471 271.149 132.39 271.149C127.309 271.149 123.189 267.03 123.189 261.949C123.189 257.549 126.278 253.87 130.406 252.963L130.406 223.328C130.406 222.232 131.294 221.344 132.39 221.344ZM132.39 256.717C129.5 256.717 127.157 259.059 127.157 261.949C127.157 264.839 129.5 267.182 132.39 267.182C135.28 267.182 137.622 264.839 137.622 261.949C137.622 259.059 135.28 256.717 132.39 256.717Z" fill="url(#paint10_linear_1157_18631)"/>
<path fill-rule="evenodd" clip-rule="evenodd" d="M157.216 221.344C158.312 221.344 159.2 222.232 159.2 223.328V240.279C163.328 241.186 166.417 244.865 166.417 249.265C166.417 254.346 162.298 258.465 157.216 258.465C152.135 258.465 148.016 254.346 148.016 249.265C148.016 244.865 151.105 241.186 155.232 240.279V223.328C155.232 222.232 156.121 221.344 157.216 221.344ZM157.216 244.033C154.326 244.033 151.984 246.375 151.984 249.265C151.984 252.155 154.326 254.498 157.216 254.498C160.106 254.498 162.449 252.155 162.449 249.265C162.449 246.375 160.106 244.033 157.216 244.033Z" fill="url(#paint11_linear_1157_18631)"/>
<path fill-rule="evenodd" clip-rule="evenodd" d="M131.923 128.465C130.827 128.465 129.939 127.577 129.939 126.481L129.939 109.529C125.811 108.622 122.723 104.944 122.723 100.544C122.723 95.4623 126.842 91.3433 131.923 91.3433C137.004 91.3433 141.123 95.4623 141.123 100.544C141.123 104.944 138.034 108.622 133.907 109.529L133.907 126.481C133.907 127.577 133.018 128.465 131.923 128.465ZM131.923 105.776C134.813 105.776 137.155 103.433 137.155 100.544C137.155 97.6536 134.813 95.3109 131.923 95.3109C129.033 95.3109 126.69 97.6536 126.69 100.544C126.69 103.433 129.033 105.776 131.923 105.776Z" fill="url(#paint12_linear_1157_18631)"/>
<path fill-rule="evenodd" clip-rule="evenodd" d="M110.541 124.918H168.349L168.586 124.977C178.58 127.475 186.373 136.247 188.933 145.931C191.273 154.784 189.278 164.591 180.58 171.252C189.654 176.157 193.405 186.52 192.117 196.577C190.667 207.896 182.852 219.26 168.642 223.257L168.379 223.331H122.972C121.876 223.331 120.988 222.443 120.988 221.347C120.988 220.251 121.876 219.363 122.972 219.363H167.827C180.198 215.774 186.924 205.895 188.182 196.073C189.456 186.123 185.134 176.661 175.824 173.495L171.693 172.09L175.468 169.901C185.035 164.352 187.305 155.297 185.097 146.946C182.872 138.53 176.143 131.063 167.855 128.886H114.508V213.825C114.508 214.92 113.62 215.809 112.524 215.809C111.429 215.809 110.541 214.92 110.541 213.825V124.918ZM129.346 140.798H161.001C164.648 140.798 167.256 142.747 168.826 145.439C170.349 148.05 170.932 151.377 170.819 154.554C170.705 157.738 169.884 161.012 168.338 163.557C166.787 166.112 164.331 168.168 161.001 168.168H143.031C141.935 168.168 141.047 167.28 141.047 166.184C141.047 165.089 141.935 164.2 143.031 164.2H161.001C162.477 164.2 163.833 163.332 164.947 161.498C166.065 159.656 166.759 157.079 166.854 154.412C166.949 151.738 166.436 149.215 165.399 147.438C164.409 145.742 162.996 144.766 161.001 144.766H133.314V166.184C133.314 167.28 132.426 168.168 131.33 168.168C130.234 168.168 129.346 167.28 129.346 166.184V140.798ZM129.346 177.573H164.344C167.792 177.573 170.038 180.116 171.319 182.91C172.622 185.753 173.223 189.399 173.223 192.93C173.223 196.461 172.622 200.107 171.319 202.95C170.038 205.744 167.792 208.287 164.344 208.287H136.345C135.249 208.287 134.361 207.398 134.361 206.303C134.361 205.207 135.249 204.319 136.345 204.319H164.344C165.493 204.319 166.694 203.518 167.712 201.297C168.707 199.125 169.256 196.086 169.256 192.93C169.256 189.774 168.707 186.735 167.712 184.563C166.694 182.342 165.493 181.541 164.344 181.541H133.314V199.616C133.314 200.712 132.426 201.6 131.33 201.6C130.234 201.6 129.346 200.712 129.346 199.616V177.573Z" fill="url(#paint13_linear_1157_18631)"/>
<defs>
<linearGradient id="paint0_linear_1157_18631" x1="-53.8492" y1="372.335" x2="332.209" y2="-5.78181" gradientUnits="userSpaceOnUse">
<stop offset="0.17169" stop-color="#911F8E"/>
<stop offset="0.910164" stop-color="#FD7014"/>
</linearGradient>
<linearGradient id="paint1_linear_1157_18631" x1="-27.9751" y1="347.274" x2="307.887" y2="17.1281" gradientUnits="userSpaceOnUse">
<stop offset="0.17169" stop-color="#911F8E"/>
<stop offset="0.910164" stop-color="#FD7014"/>
</linearGradient>
<linearGradient id="paint2_linear_1157_18631" x1="154.903" y1="297.233" x2="266.247" y2="184.058" gradientUnits="userSpaceOnUse">
<stop offset="0.17169" stop-color="#911F8E"/>
<stop offset="0.910164" stop-color="#FD7014"/>
</linearGradient>
<linearGradient id="paint3_linear_1157_18631" x1="-4.9367" y1="215.866" x2="20.3429" y2="191.107" gradientUnits="userSpaceOnUse">
<stop offset="0.17169" stop-color="#911F8E"/>
<stop offset="0.910164" stop-color="#FD7014"/>
</linearGradient>
<linearGradient id="paint4_linear_1157_18631" x1="158.329" y1="47.6477" x2="183.609" y2="22.8882" gradientUnits="userSpaceOnUse">
<stop offset="0.17169" stop-color="#911F8E"/>
<stop offset="0.910164" stop-color="#FD7014"/>
</linearGradient>
<linearGradient id="paint5_linear_1157_18631" x1="256.345" y1="280.433" x2="281.625" y2="255.673" gradientUnits="userSpaceOnUse">
<stop offset="0.17169" stop-color="#911F8E"/>
<stop offset="0.910164" stop-color="#FD7014"/>
</linearGradient>
<linearGradient id="paint6_linear_1157_18631" x1="279.552" y1="272.709" x2="327.313" y2="229.244" gradientUnits="userSpaceOnUse">
<stop offset="0.17169" stop-color="#911F8E"/>
<stop offset="0.910164" stop-color="#FD7014"/>
</linearGradient>
<linearGradient id="paint7_linear_1157_18631" x1="287.293" y1="188.123" x2="335.055" y2="144.658" gradientUnits="userSpaceOnUse">
<stop offset="0.17169" stop-color="#911F8E"/>
<stop offset="0.910164" stop-color="#FD7014"/>
</linearGradient>
<linearGradient id="paint8_linear_1157_18631" x1="85.9627" y1="39.5607" x2="133.724" y2="-3.90416" gradientUnits="userSpaceOnUse">
<stop offset="0.17169" stop-color="#911F8E"/>
<stop offset="0.910164" stop-color="#FD7014"/>
</linearGradient>
<linearGradient id="paint9_linear_1157_18631" x1="141.943" y1="140.747" x2="192.055" y2="122.614" gradientUnits="userSpaceOnUse">
<stop offset="0.17169" stop-color="#911F8E"/>
<stop offset="0.910164" stop-color="#FD7014"/>
</linearGradient>
<linearGradient id="paint10_linear_1157_18631" x1="117.116" y1="285.922" x2="167.228" y2="267.789" gradientUnits="userSpaceOnUse">
<stop offset="0.17169" stop-color="#911F8E"/>
<stop offset="0.910164" stop-color="#FD7014"/>
</linearGradient>
<linearGradient id="paint11_linear_1157_18631" x1="141.943" y1="269.476" x2="187.807" y2="247.21" gradientUnits="userSpaceOnUse">
<stop offset="0.17169" stop-color="#911F8E"/>
<stop offset="0.910164" stop-color="#FD7014"/>
</linearGradient>
<linearGradient id="paint12_linear_1157_18631" x1="147.196" y1="80.3326" x2="101.333" y2="102.599" gradientUnits="userSpaceOnUse">
<stop offset="0.17169" stop-color="#911F8E"/>
<stop offset="0.910164" stop-color="#FD7014"/>
</linearGradient>
<linearGradient id="paint13_linear_1157_18631" x1="83.5337" y1="252.521" x2="235.065" y2="129.126" gradientUnits="userSpaceOnUse">
<stop offset="0.17169" stop-color="#911F8E"/>
<stop offset="0.910164" stop-color="#FD7014"/>
</linearGradient>
</defs>
</svg>
