<svg
  width="307"
  height="220"
  viewBox="0 0 307 220"
  fill="none"
  xmlns="http://www.w3.org/2000/svg"
>
<g clip-path="url(#clip0_658_8570)">
<rect
      x="55"
      width="220"
      height="220"
      rx="110"
      fill="url(#paint0_linear_658_8570)"
    />
<rect
      x="93.8652"
      y="53.875"
      width="142.269"
      height="198.488"
      rx="8"
      fill="white"
    />
<rect x="145" y="146.617" width="40" height="6.50183" rx="2" fill="#EFEEEF" />
<rect x="145" y="175.621" width="40" height="6.50183" rx="2" fill="#EFEEEF" />
<rect x="133" y="161.119" width="64" height="6.50183" rx="2" fill="#EFEEEF" />
<path
      fill-rule="evenodd"
      clip-rule="evenodd"
      d="M142 104.816C142 91.8377 152.297 81.3164 165 81.3164C177.703 81.3164 188 91.8377 188 104.816C188 117.795 177.703 128.316 165 128.316C152.297 128.316 142 117.795 142 104.816ZM165 85.5891C154.607 85.5891 146.182 94.1975 146.182 104.816C146.182 115.435 154.607 124.044 165 124.044C175.393 124.044 183.818 115.435 183.818 104.816C183.818 94.1975 175.393 85.5891 165 85.5891ZM165.009 89.8619C166.164 89.862 167.1 90.8186 167.1 91.9984L167.098 103.941L175.351 112.373C176.167 113.207 176.167 114.56 175.351 115.394C174.534 116.228 173.21 116.228 172.394 115.394L163.529 106.336C163.137 105.936 162.916 105.392 162.917 104.826L162.918 91.998C162.918 90.8181 163.854 89.8617 165.009 89.8619Z"
      fill="#DAA83F"
    />
</g>
<circle cx="37.7262" cy="178.045" r="13.0451" fill="#DCAE47" />
<circle cx="289.908" cy="77.8636" r="9.22686" fill="#DCAE47" />
<circle cx="52.7473" cy="33.0652" r="6.02418" fill="#EED57D" />
<circle cx="260.747" cy="9.0652" r="6.02418" fill="#EED57D" />
<defs>
<linearGradient
      id="paint0_linear_658_8570"
      x1="165"
      y1="0"
      x2="165"
      y2="220"
      gradientUnits="userSpaceOnUse"
    >
<stop offset="0.13653" stop-color="#EED57D" />
<stop offset="1" stop-color="#D59C2F" />
</linearGradient>
<clipPath id="clip0_658_8570">
<rect x="55" width="220" height="220" rx="110" fill="white" />
</clipPath>
</defs>
</svg>
