<svg width="150" height="148" viewBox="0 0 150 148" fill="none" xmlns="http://www.w3.org/2000/svg">
<path d="M37.3128 0.257324H4.19196C1.90755 0.257324 0.0556641 2.10921 0.0556641 4.39362V58.6744C0.0556641 60.1973 1.29025 61.4319 2.81319 61.4319H60.638C57.1702 47.5848 64.3155 24.2173 88.8385 24.2173V14.045H49.5169H48.7828L44.1392 7.16275H42.5765L37.3128 0.257324Z" fill="#FFECE3"/>
<path fill-rule="evenodd" clip-rule="evenodd" d="M12.1922 7.25753H45.313L50.5767 14.163H52.1394L56.783 21.0452H57.5171H96.8388V29.2175L99.5963 30.1284V19.6664V14.162C99.5963 12.6391 98.3617 11.4054 96.8388 11.4054H51.9421L46.6783 4.5H12.1922C8.38481 4.5 5.29834 7.58647 5.29834 11.3938V65.6746C5.29834 68.7205 7.76751 71.1897 10.8134 71.1897H70.46L68.6382 68.4321H10.8134C9.29046 68.4321 8.05587 67.1975 8.05587 65.6746V11.3938C8.05587 9.10941 9.90775 7.25753 12.1922 7.25753ZM96.8388 14.163H55.4659L58.2489 18.2876H96.8388V14.163Z" fill="#FF5A1F"/>
<path fill-rule="evenodd" clip-rule="evenodd" d="M93.0331 82.6864C107.642 82.6864 119.485 70.8436 119.485 56.2347C119.485 41.6259 107.642 29.7831 93.0331 29.7831C78.4242 29.7831 66.5814 41.6259 66.5814 56.2347C66.5814 70.8436 78.4242 82.6864 93.0331 82.6864ZM93.0331 84.0652C108.403 84.0652 120.864 71.6051 120.864 56.2347C120.864 40.8644 108.403 28.4043 93.0331 28.4043C77.6628 28.4043 65.2026 40.8644 65.2026 56.2347C65.2026 71.6051 77.6628 84.0652 93.0331 84.0652Z" fill="#F04200"/>
<circle cx="93.033" cy="56.2347" r="20.6815" fill="#FFC5AD"/>
<path fill-rule="evenodd" clip-rule="evenodd" d="M118.775 80.5976L112.916 74.7383L110.966 76.688L116.83 82.5527C115.388 84.1771 115.445 86.6646 117.001 88.2207L139.712 110.932C141.328 112.547 143.947 112.547 145.562 110.932L148.062 108.432C149.677 106.816 149.677 104.197 148.062 102.582L125.351 79.8712C123.736 78.2558 121.117 78.2558 119.501 79.8712L118.775 80.5976ZM123.401 81.821C122.863 81.2826 121.99 81.2826 121.451 81.821L118.951 84.321C118.413 84.8594 118.413 85.7324 118.951 86.2708L141.662 108.982C142.201 109.52 143.074 109.52 143.612 108.982L146.112 106.482C146.65 105.943 146.65 105.07 146.112 104.532L123.401 81.821Z" fill="#F04200"/>
<path fill-rule="evenodd" clip-rule="evenodd" d="M18.2661 32.3055C18.2661 31.5441 18.8834 30.9268 19.6449 30.9268H58.0618C58.8233 30.9268 59.4406 31.5441 59.4406 32.3055C59.4406 33.067 58.8233 33.6843 58.0618 33.6843H19.6449C18.8834 33.6843 18.2661 33.067 18.2661 32.3055ZM18.2661 43.9473C18.2661 43.1858 18.8834 42.5685 19.6449 42.5685H43.5098C44.2713 42.5685 44.8886 43.1858 44.8886 43.9473C44.8886 44.7087 44.2713 45.326 43.5098 45.326H19.6449C18.8834 45.326 18.2661 44.7087 18.2661 43.9473Z" fill="#FF7847"/>
<path d="M16.6953 144H14.3906L8.79688 134.883H8.72656C8.7474 135.19 8.76562 135.516 8.78125 135.859C8.80208 136.203 8.81771 136.557 8.82812 136.922C8.84375 137.286 8.85677 137.656 8.86719 138.031V144H7.16406V132.578H9.45312L15.0391 141.633H15.0938C15.0833 141.367 15.0703 141.062 15.0547 140.719C15.0391 140.375 15.0234 140.021 15.0078 139.656C14.9974 139.286 14.9896 138.93 14.9844 138.586V132.578H16.6953V144ZM27.4841 139.656C27.4841 140.375 27.3903 141.013 27.2028 141.57C27.0153 142.128 26.7419 142.599 26.3825 142.984C26.0231 143.365 25.5908 143.656 25.0856 143.859C24.5804 144.057 24.0101 144.156 23.3747 144.156C22.7809 144.156 22.2367 144.057 21.7419 143.859C21.2471 143.656 20.8174 143.365 20.4528 142.984C20.0934 142.599 19.8148 142.128 19.6169 141.57C19.419 141.013 19.32 140.375 19.32 139.656C19.32 138.703 19.4841 137.896 19.8122 137.234C20.1455 136.568 20.6195 136.06 21.2341 135.711C21.8486 135.362 22.5804 135.188 23.4294 135.188C24.2262 135.188 24.9294 135.362 25.5387 135.711C26.1481 136.06 26.6247 136.568 26.9684 137.234C27.3122 137.901 27.4841 138.708 27.4841 139.656ZM21.2106 139.656C21.2106 140.286 21.2861 140.826 21.4372 141.273C21.5934 141.721 21.833 142.065 22.1559 142.305C22.4789 142.539 22.8955 142.656 23.4059 142.656C23.9164 142.656 24.333 142.539 24.6559 142.305C24.9789 142.065 25.2158 141.721 25.3669 141.273C25.5179 140.826 25.5934 140.286 25.5934 139.656C25.5934 139.026 25.5179 138.492 25.3669 138.055C25.2158 137.612 24.9789 137.276 24.6559 137.047C24.333 136.812 23.9137 136.695 23.3981 136.695C22.6377 136.695 22.083 136.951 21.7341 137.461C21.3851 137.971 21.2106 138.703 21.2106 139.656ZM37.2959 144.156C36.2647 144.156 35.4366 143.781 34.8116 143.031C34.1918 142.276 33.8819 141.164 33.8819 139.695C33.8819 138.211 34.197 137.089 34.8272 136.328C35.4626 135.568 36.2985 135.188 37.335 135.188C37.7725 135.188 38.1553 135.247 38.4834 135.367C38.8116 135.482 39.0928 135.638 39.3272 135.836C39.5668 136.034 39.7699 136.255 39.9366 136.5H40.0225C39.9965 136.339 39.9652 136.107 39.9287 135.805C39.8975 135.497 39.8819 135.214 39.8819 134.953V131.844H41.7256V144H40.2881L39.96 142.82H39.8819C39.7256 143.07 39.5277 143.297 39.2881 143.5C39.0537 143.698 38.7725 143.857 38.4444 143.977C38.1215 144.096 37.7386 144.156 37.2959 144.156ZM37.8116 142.664C38.598 142.664 39.1527 142.438 39.4756 141.984C39.7985 141.531 39.9652 140.852 39.9756 139.945V139.703C39.9756 138.734 39.8194 137.992 39.5069 137.477C39.1944 136.956 38.6241 136.695 37.7959 136.695C37.1345 136.695 36.6293 136.964 36.2803 137.5C35.9366 138.031 35.7647 138.773 35.7647 139.727C35.7647 140.68 35.9366 141.409 36.2803 141.914C36.6293 142.414 37.1397 142.664 37.8116 142.664ZM52.3347 139.656C52.3347 140.375 52.2409 141.013 52.0534 141.57C51.8659 142.128 51.5925 142.599 51.2331 142.984C50.8737 143.365 50.4415 143.656 49.9362 143.859C49.431 144.057 48.8607 144.156 48.2253 144.156C47.6316 144.156 47.0873 144.057 46.5925 143.859C46.0977 143.656 45.668 143.365 45.3034 142.984C44.9441 142.599 44.6654 142.128 44.4675 141.57C44.2696 141.013 44.1706 140.375 44.1706 139.656C44.1706 138.703 44.3347 137.896 44.6628 137.234C44.9961 136.568 45.4701 136.06 46.0847 135.711C46.6993 135.362 47.431 135.188 48.28 135.188C49.0769 135.188 49.78 135.362 50.3894 135.711C50.9987 136.06 51.4753 136.568 51.8191 137.234C52.1628 137.901 52.3347 138.708 52.3347 139.656ZM46.0612 139.656C46.0612 140.286 46.1368 140.826 46.2878 141.273C46.4441 141.721 46.6836 142.065 47.0066 142.305C47.3295 142.539 47.7461 142.656 48.2566 142.656C48.767 142.656 49.1836 142.539 49.5066 142.305C49.8295 142.065 50.0665 141.721 50.2175 141.273C50.3685 140.826 50.4441 140.286 50.4441 139.656C50.4441 139.026 50.3685 138.492 50.2175 138.055C50.0665 137.612 49.8295 137.276 49.5066 137.047C49.1836 136.812 48.7644 136.695 48.2487 136.695C47.4883 136.695 46.9336 136.951 46.5847 137.461C46.2357 137.971 46.0612 138.703 46.0612 139.656ZM59.2719 135.188C60.2458 135.188 61.0036 135.44 61.5453 135.945C62.0922 136.445 62.3656 137.25 62.3656 138.359V144H60.5297V138.703C60.5297 138.031 60.3917 137.529 60.1156 137.195C59.8396 136.857 59.4125 136.688 58.8344 136.688C57.9958 136.688 57.4125 136.945 57.0844 137.461C56.7615 137.977 56.6 138.724 56.6 139.703V144H54.7641V135.352H56.1937L56.4516 136.523H56.5531C56.7406 136.221 56.9724 135.974 57.2484 135.781C57.5297 135.583 57.8422 135.435 58.1859 135.336C58.5349 135.237 58.8969 135.188 59.2719 135.188ZM68.6466 135.188C69.7403 135.188 70.5658 135.43 71.1231 135.914C71.6856 136.398 71.9669 137.154 71.9669 138.18V144H70.6622L70.3106 142.773H70.2481C70.0033 143.086 69.7507 143.344 69.4903 143.547C69.2299 143.75 68.9278 143.901 68.5841 144C68.2455 144.104 67.8315 144.156 67.3419 144.156C66.8262 144.156 66.3653 144.062 65.9591 143.875C65.5528 143.682 65.2325 143.391 64.9981 143C64.7637 142.609 64.6466 142.115 64.6466 141.516C64.6466 140.625 64.9773 139.956 65.6387 139.508C66.3054 139.06 67.3106 138.812 68.6544 138.766L70.1544 138.711V138.258C70.1544 137.659 70.0137 137.232 69.7325 136.977C69.4565 136.721 69.0658 136.594 68.5606 136.594C68.1283 136.594 67.7091 136.656 67.3028 136.781C66.8966 136.906 66.5007 137.06 66.1153 137.242L65.5216 135.945C65.9434 135.721 66.4226 135.539 66.9591 135.398C67.5007 135.258 68.0632 135.188 68.6466 135.188ZM70.1466 139.867L69.0294 139.906C68.1127 139.938 67.4695 140.094 67.0997 140.375C66.7299 140.656 66.545 141.042 66.545 141.531C66.545 141.958 66.6726 142.271 66.9278 142.469C67.183 142.661 67.519 142.758 67.9356 142.758C68.571 142.758 69.0971 142.578 69.5137 142.219C69.9356 141.854 70.1466 141.32 70.1466 140.617V139.867ZM78.0759 142.672C78.3155 142.672 78.5525 142.651 78.7869 142.609C79.0212 142.562 79.2348 142.508 79.4275 142.445V143.836C79.2244 143.924 78.9614 144 78.6384 144.062C78.3155 144.125 77.9796 144.156 77.6306 144.156C77.141 144.156 76.7009 144.076 76.3103 143.914C75.9197 143.747 75.6098 143.464 75.3806 143.062C75.1515 142.661 75.0369 142.107 75.0369 141.398V136.75H73.8572V135.93L75.1228 135.281L75.7244 133.43H76.8806V135.352H79.3572V136.75H76.8806V141.375C76.8806 141.812 76.99 142.138 77.2087 142.352C77.4275 142.565 77.7166 142.672 78.0759 142.672ZM83.3412 135.352V144H81.5053V135.352H83.3412ZM82.435 132.039C82.7162 132.039 82.9584 132.115 83.1616 132.266C83.3699 132.417 83.4741 132.677 83.4741 133.047C83.4741 133.411 83.3699 133.672 83.1616 133.828C82.9584 133.979 82.7162 134.055 82.435 134.055C82.1433 134.055 81.8959 133.979 81.6928 133.828C81.4949 133.672 81.3959 133.411 81.3959 133.047C81.3959 132.677 81.4949 132.417 81.6928 132.266C81.8959 132.115 82.1433 132.039 82.435 132.039ZM93.9503 139.656C93.9503 140.375 93.8566 141.013 93.6691 141.57C93.4816 142.128 93.2081 142.599 92.8487 142.984C92.4894 143.365 92.0571 143.656 91.5519 143.859C91.0467 144.057 90.4764 144.156 89.8409 144.156C89.2472 144.156 88.7029 144.057 88.2081 143.859C87.7133 143.656 87.2836 143.365 86.9191 142.984C86.5597 142.599 86.281 142.128 86.0831 141.57C85.8852 141.013 85.7862 140.375 85.7862 139.656C85.7862 138.703 85.9503 137.896 86.2784 137.234C86.6118 136.568 87.0857 136.06 87.7003 135.711C88.3149 135.362 89.0467 135.188 89.8956 135.188C90.6925 135.188 91.3956 135.362 92.005 135.711C92.6144 136.06 93.0909 136.568 93.4347 137.234C93.7784 137.901 93.9503 138.708 93.9503 139.656ZM87.6769 139.656C87.6769 140.286 87.7524 140.826 87.9034 141.273C88.0597 141.721 88.2993 142.065 88.6222 142.305C88.9451 142.539 89.3618 142.656 89.8722 142.656C90.3826 142.656 90.7993 142.539 91.1222 142.305C91.4451 142.065 91.6821 141.721 91.8331 141.273C91.9842 140.826 92.0597 140.286 92.0597 139.656C92.0597 139.026 91.9842 138.492 91.8331 138.055C91.6821 137.612 91.4451 137.276 91.1222 137.047C90.7993 136.812 90.38 136.695 89.8644 136.695C89.104 136.695 88.5493 136.951 88.2003 137.461C87.8514 137.971 87.6769 138.703 87.6769 139.656ZM100.887 135.188C101.861 135.188 102.619 135.44 103.161 135.945C103.708 136.445 103.981 137.25 103.981 138.359V144H102.145V138.703C102.145 138.031 102.007 137.529 101.731 137.195C101.455 136.857 101.028 136.688 100.45 136.688C99.6115 136.688 99.0281 136.945 98.7 137.461C98.3771 137.977 98.2156 138.724 98.2156 139.703V144H96.3797V135.352H97.8094L98.0672 136.523H98.1687C98.3562 136.221 98.588 135.974 98.8641 135.781C99.1453 135.583 99.4578 135.435 99.8016 135.336C100.151 135.237 100.512 135.188 100.887 135.188ZM112.684 141.531C112.684 142.099 112.546 142.578 112.27 142.969C111.994 143.359 111.59 143.656 111.059 143.859C110.533 144.057 109.887 144.156 109.122 144.156C108.517 144.156 107.997 144.112 107.559 144.023C107.127 143.94 106.718 143.81 106.332 143.633V142.047C106.744 142.24 107.205 142.406 107.715 142.547C108.231 142.688 108.718 142.758 109.176 142.758C109.78 142.758 110.215 142.664 110.481 142.477C110.747 142.284 110.879 142.029 110.879 141.711C110.879 141.523 110.825 141.357 110.715 141.211C110.611 141.06 110.413 140.906 110.122 140.75C109.835 140.589 109.413 140.396 108.856 140.172C108.309 139.953 107.848 139.734 107.473 139.516C107.098 139.297 106.814 139.034 106.622 138.727C106.429 138.414 106.332 138.016 106.332 137.531C106.332 136.766 106.635 136.185 107.239 135.789C107.848 135.388 108.653 135.188 109.653 135.188C110.184 135.188 110.684 135.242 111.153 135.352C111.627 135.456 112.09 135.609 112.543 135.812L111.965 137.195C111.575 137.023 111.181 136.883 110.786 136.773C110.395 136.659 109.997 136.602 109.59 136.602C109.116 136.602 108.754 136.674 108.504 136.82C108.26 136.966 108.137 137.174 108.137 137.445C108.137 137.648 108.197 137.82 108.317 137.961C108.437 138.102 108.642 138.242 108.934 138.383C109.231 138.523 109.642 138.698 110.168 138.906C110.684 139.104 111.129 139.312 111.504 139.531C111.885 139.745 112.176 140.008 112.379 140.32C112.582 140.633 112.684 141.036 112.684 141.531ZM118.16 135.352H120.16L121.933 140.289C122.012 140.513 122.082 140.734 122.144 140.953C122.212 141.167 122.269 141.378 122.316 141.586C122.368 141.794 122.41 142.003 122.441 142.211H122.488C122.54 141.94 122.613 141.638 122.707 141.305C122.806 140.966 122.915 140.628 123.035 140.289L124.738 135.352H126.715L123.004 145.188C122.79 145.75 122.527 146.229 122.215 146.625C121.907 147.026 121.543 147.328 121.121 147.531C120.699 147.74 120.217 147.844 119.676 147.844C119.415 147.844 119.189 147.828 118.996 147.797C118.803 147.771 118.639 147.742 118.504 147.711V146.242C118.613 146.268 118.751 146.292 118.918 146.312C119.084 146.333 119.256 146.344 119.433 146.344C119.762 146.344 120.045 146.279 120.285 146.148C120.525 146.018 120.728 145.833 120.894 145.594C121.061 145.359 121.199 145.091 121.308 144.789L121.613 143.977L118.16 135.352ZM131.793 135.188C132.563 135.188 133.225 135.346 133.777 135.664C134.329 135.982 134.753 136.432 135.05 137.016C135.347 137.599 135.496 138.297 135.496 139.109V140.094H129.722C129.743 140.932 129.967 141.578 130.394 142.031C130.826 142.484 131.431 142.711 132.207 142.711C132.759 142.711 133.253 142.659 133.691 142.555C134.134 142.445 134.589 142.286 135.058 142.078V143.57C134.626 143.773 134.186 143.922 133.738 144.016C133.29 144.109 132.753 144.156 132.128 144.156C131.279 144.156 130.532 143.992 129.886 143.664C129.246 143.331 128.743 142.836 128.378 142.18C128.019 141.523 127.839 140.708 127.839 139.734C127.839 138.766 128.003 137.943 128.332 137.266C128.66 136.589 129.121 136.073 129.714 135.719C130.308 135.365 131.001 135.188 131.793 135.188ZM131.793 136.57C131.214 136.57 130.746 136.758 130.386 137.133C130.032 137.508 129.824 138.057 129.761 138.781H133.699C133.694 138.349 133.621 137.966 133.48 137.633C133.345 137.299 133.136 137.039 132.855 136.852C132.579 136.664 132.225 136.57 131.793 136.57ZM141.105 142.672C141.344 142.672 141.581 142.651 141.816 142.609C142.05 142.562 142.264 142.508 142.456 142.445V143.836C142.253 143.924 141.99 144 141.667 144.062C141.344 144.125 141.008 144.156 140.659 144.156C140.17 144.156 139.73 144.076 139.339 143.914C138.948 143.747 138.639 143.464 138.409 143.062C138.18 142.661 138.066 142.107 138.066 141.398V136.75H136.886V135.93L138.152 135.281L138.753 133.43H139.909V135.352H142.386V136.75H139.909V141.375C139.909 141.812 140.019 142.138 140.238 142.352C140.456 142.565 140.745 142.672 141.105 142.672Z" fill="#374151"/>
</svg>
