<svg width="49" height="49" viewBox="0 0 49 49" fill="none" xmlns="http://www.w3.org/2000/svg">
<path opacity="0.4" d="M33.1656 44.5H15.8324C9.05379 44.5 4.5 39.7458 4.5 32.6686V16.3334C4.5 9.25623 9.05379 4.5 15.8324 4.5H33.1676C39.9462 4.5 44.5 9.25623 44.5 16.3334V32.6686C44.5 39.7458 39.9462 44.5 33.1656 44.5Z" fill="#9CA3AF"/>
<path fill-rule="evenodd" clip-rule="evenodd" d="M22.99 17.8499C22.99 20.5899 20.76 22.8199 18.02 22.8199C15.278 22.8199 13.05 20.5899 13.05 17.8499C13.05 15.1099 15.278 12.8779 18.02 12.8779C20.76 12.8779 22.99 15.1099 22.99 17.8499ZM39.3008 28.6751C39.7668 29.1271 40.1008 29.6431 40.3208 30.1931C40.9868 31.8571 40.6408 33.8571 39.9288 35.5051C39.0848 37.4671 37.4688 38.9491 35.4328 39.5971C34.5288 39.8871 33.5808 40.0111 32.6348 40.0111H15.8728C14.2048 40.0111 12.7288 39.6231 11.5188 38.8951C10.7608 38.4391 10.6268 37.3891 11.1888 36.7051C12.1288 35.5651 13.0568 34.4211 13.9928 33.2671C15.7768 31.0591 16.9788 30.4191 18.3148 30.9811C18.8568 31.2131 19.4008 31.5631 19.9608 31.9311C21.4528 32.9191 23.5268 34.2751 26.2588 32.8031C28.1262 31.782 29.2103 30.0347 30.1538 28.5138L30.1728 28.4831C30.2363 28.3813 30.2992 28.2796 30.362 28.1782C30.6828 27.6598 30.9988 27.1492 31.3568 26.6791C31.8008 26.0971 33.4488 24.2771 35.5788 25.5731C36.9368 26.3891 38.0788 27.4931 39.3008 28.6751Z" fill="#4B5563"/>
</svg>
