<?xml version="1.0" encoding="utf-8" ?>
<svg
  version="1.1"
  id="Layer_1"
  xmlns="http://www.w3.org/2000/svg"
  xmlns:xlink="http://www.w3.org/1999/xlink"
  x="0px"
  y="0px"
  viewBox="0 0 417.1 62.4"
  style="enable-background:new 0 0 417.1 62.4;"
  xml:space="preserve"
>
<style type="text/css">
	.st0{fill:#333333;}
	.st1{fill-rule:evenodd;clip-rule:evenodd;fill:#992098;}
	.st2{fill-rule:evenodd;clip-rule:evenodd;fill:#FD7014;}
	.st3{fill-rule:evenodd;clip-rule:evenodd;fill:url(#SVGID_1_);}
	.st4{fill:none;stroke:#992098;stroke-width:22;stroke-linecap:round;stroke-linejoin:bevel;stroke-miterlimit:10;}
	.st5{fill:none;stroke:#000000;stroke-width:12;stroke-miterlimit:10;}
	.st6{fill:none;stroke:#000000;stroke-width:12;stroke-linecap:round;stroke-miterlimit:10;}
	.st7{fill:none;stroke:#FD7014;stroke-width:20;stroke-linecap:round;stroke-miterlimit:10;}
	.st8{fill:none;stroke:#000000;stroke-width:26;stroke-miterlimit:10;}
	.st9{fill:none;stroke:#000000;stroke-width:26;stroke-linecap:round;stroke-miterlimit:10;}
	.st10{fill:none;stroke:#FD7014;stroke-width:25;stroke-linecap:round;stroke-miterlimit:10;}
	.st11{fill:none;stroke:#000000;stroke-width:15;stroke-linecap:round;stroke-linejoin:round;stroke-miterlimit:10;}
	.st12{fill:#FFFFFF;stroke:#000000;stroke-width:22;stroke-miterlimit:10;}
	.st13{fill:none;stroke:#000000;stroke-width:22;stroke-miterlimit:10;}
	.st14{fill:none;stroke:#000000;stroke-width:22;stroke-linecap:round;stroke-miterlimit:10;}
	.st15{fill:url(#SVGID_2_);}
	.st16{fill:none;stroke:#992098;stroke-width:18;stroke-linecap:round;stroke-linejoin:bevel;stroke-miterlimit:10;}
	.st17{fill:url(#SVGID_3_);}
	.st18{fill:#F3F3F3;stroke:#333333;stroke-width:9;stroke-linecap:round;stroke-linejoin:round;stroke-miterlimit:10;}
	.st19{fill:#FFFFFF;stroke:#333333;stroke-width:9;stroke-linecap:round;stroke-linejoin:round;stroke-miterlimit:10;}
	.st20{fill:none;stroke:#333333;stroke-width:9;stroke-linecap:round;stroke-linejoin:round;stroke-miterlimit:10;}
	.st21{fill:none;stroke:#FD7014;stroke-width:13;stroke-linecap:round;stroke-miterlimit:10;}
	.st22{fill:none;stroke:#333333;stroke-width:10;stroke-linecap:round;stroke-linejoin:round;stroke-miterlimit:10;}
	.st23{fill:none;stroke:#992098;stroke-width:13;stroke-linecap:round;stroke-linejoin:bevel;stroke-miterlimit:10;}
	.st24{fill:#FFFFFF;}
	.st25{fill-rule:evenodd;clip-rule:evenodd;fill:url(#SVGID_4_);}
	.st26{fill:none;stroke:url(#SVGID_5_);stroke-width:47;stroke-linecap:round;stroke-linejoin:round;stroke-miterlimit:10;}
	.st27{fill:none;stroke:url(#SVGID_6_);stroke-width:47;stroke-linecap:round;stroke-linejoin:round;stroke-miterlimit:10;}
	.st28{fill:none;stroke:#992098;stroke-width:9;stroke-linecap:round;stroke-linejoin:round;stroke-miterlimit:10;}
	.st29{fill:url(#SVGID_7_);}
	.st30{fill:#F3F3F3;stroke:#333333;stroke-width:7;stroke-linecap:round;stroke-linejoin:round;stroke-miterlimit:10;}
	.st31{fill:#FFFFFF;stroke:#333333;stroke-width:7;stroke-linecap:round;stroke-linejoin:round;stroke-miterlimit:10;}
	.st32{fill:none;stroke:#333333;stroke-width:7;stroke-linecap:round;stroke-linejoin:round;stroke-miterlimit:10;}
	.st33{fill:none;stroke:#FD7014;stroke-width:7;stroke-linecap:round;stroke-miterlimit:10;}
	.st34{opacity:0.3;}
	.st35{clip-path:url(#SVGID_9_);fill:#992098;}
	.st36{fill:#F3F3F3;}
	.st37{clip-path:url(#SVGID_11_);fill:#DD5838;}
	.st38{clip-path:url(#SVGID_11_);fill:#DE5937;}
	.st39{clip-path:url(#SVGID_11_);fill:#DF5A36;}
	.st40{clip-path:url(#SVGID_11_);fill:#E05A35;}
	.st41{clip-path:url(#SVGID_11_);fill:#E15B34;}
	.st42{clip-path:url(#SVGID_11_);fill:#E25C32;}
	.st43{clip-path:url(#SVGID_11_);fill:#E35C31;}
	.st44{clip-path:url(#SVGID_11_);fill:#E45D30;}
	.st45{clip-path:url(#SVGID_11_);fill:#E55E2F;}
	.st46{clip-path:url(#SVGID_11_);fill:#E65F2E;}
	.st47{clip-path:url(#SVGID_11_);fill:#E75F2D;}
	.st48{clip-path:url(#SVGID_11_);fill:#E7602C;}
	.st49{clip-path:url(#SVGID_11_);fill:#E8602B;}
	.st50{clip-path:url(#SVGID_11_);fill:#E9612A;}
	.st51{clip-path:url(#SVGID_11_);fill:#EA622A;}
	.st52{clip-path:url(#SVGID_11_);fill:#EB6229;}
	.st53{clip-path:url(#SVGID_11_);fill:#EB6328;}
	.st54{clip-path:url(#SVGID_11_);fill:#EC6327;}
	.st55{clip-path:url(#SVGID_11_);fill:#ED6426;}
	.st56{clip-path:url(#SVGID_11_);fill:#EE6425;}
	.st57{clip-path:url(#SVGID_11_);fill:#EE6525;}
	.st58{clip-path:url(#SVGID_11_);fill:#EF6524;}
	.st59{clip-path:url(#SVGID_11_);fill:#F06623;}
	.st60{clip-path:url(#SVGID_11_);fill:#F06622;}
	.st61{clip-path:url(#SVGID_11_);fill:#F16722;}
	.st62{clip-path:url(#SVGID_11_);fill:#F16721;}
	.st63{clip-path:url(#SVGID_11_);fill:#F26820;}
	.st64{clip-path:url(#SVGID_11_);fill:#F36820;}
	.st65{clip-path:url(#SVGID_11_);fill:#F3691F;}
	.st66{clip-path:url(#SVGID_11_);fill:#F4691F;}
	.st67{clip-path:url(#SVGID_11_);fill:#F4691E;}
	.st68{clip-path:url(#SVGID_11_);fill:#F56A1D;}
	.st69{clip-path:url(#SVGID_11_);fill:#F66A1C;}
	.st70{clip-path:url(#SVGID_11_);fill:#F66B1C;}
	.st71{clip-path:url(#SVGID_11_);fill:#F66B1B;}
	.st72{clip-path:url(#SVGID_11_);fill:#F76B1B;}
	.st73{clip-path:url(#SVGID_11_);fill:#F76C1B;}
	.st74{clip-path:url(#SVGID_11_);fill:#F86C1A;}
	.st75{clip-path:url(#SVGID_11_);fill:#F86C19;}
	.st76{clip-path:url(#SVGID_11_);fill:#F96D19;}
	.st77{clip-path:url(#SVGID_11_);fill:#F96D18;}
	.st78{clip-path:url(#SVGID_11_);fill:#FA6D18;}
	.st79{clip-path:url(#SVGID_11_);fill:#FA6E18;}
	.st80{clip-path:url(#SVGID_11_);fill:#FA6E17;}
	.st81{clip-path:url(#SVGID_11_);fill:#FB6E17;}
	.st82{clip-path:url(#SVGID_11_);fill:#FB6E16;}
	.st83{clip-path:url(#SVGID_11_);fill:#FB6F16;}
	.st84{clip-path:url(#SVGID_11_);fill:#FC6F16;}
	.st85{clip-path:url(#SVGID_11_);fill:#FC6F15;}
	.st86{clip-path:url(#SVGID_11_);fill:#FC7015;}
	.st87{clip-path:url(#SVGID_11_);fill:#FD7014;}
	.st88{clip-path:url(#SVGID_11_);fill:#B83C62;}
	.st89{clip-path:url(#SVGID_11_);fill:#BA3D60;}
	.st90{clip-path:url(#SVGID_11_);fill:#BB3F5E;}
	.st91{clip-path:url(#SVGID_11_);fill:#BD405C;}
	.st92{clip-path:url(#SVGID_11_);fill:#BE415B;}
	.st93{clip-path:url(#SVGID_11_);fill:#C04259;}
	.st94{clip-path:url(#SVGID_11_);fill:#C24357;}
	.st95{clip-path:url(#SVGID_11_);fill:#C34555;}
	.st96{clip-path:url(#SVGID_11_);fill:#C54654;}
	.st97{clip-path:url(#SVGID_11_);fill:#C64752;}
	.st98{clip-path:url(#SVGID_11_);fill:#C84850;}
	.st99{clip-path:url(#SVGID_11_);fill:#C9494F;}
	.st100{clip-path:url(#SVGID_11_);fill:#CA4A4D;}
	.st101{clip-path:url(#SVGID_11_);fill:#CC4B4C;}
	.st102{clip-path:url(#SVGID_11_);fill:#CD4C4A;}
	.st103{clip-path:url(#SVGID_11_);fill:#CF4D48;}
	.st104{clip-path:url(#SVGID_11_);fill:#D04E47;}
	.st105{clip-path:url(#SVGID_11_);fill:#D14F46;}
	.st106{clip-path:url(#SVGID_11_);fill:#D25044;}
	.st107{clip-path:url(#SVGID_11_);fill:#D45143;}
	.st108{clip-path:url(#SVGID_11_);fill:#D55241;}
	.st109{clip-path:url(#SVGID_11_);fill:#D65340;}
	.st110{clip-path:url(#SVGID_11_);fill:#D7543F;}
	.st111{clip-path:url(#SVGID_11_);fill:#D8553D;}
	.st112{clip-path:url(#SVGID_11_);fill:#DA553C;}
	.st113{clip-path:url(#SVGID_11_);fill:#DB563B;}
	.st114{clip-path:url(#SVGID_11_);fill:#DC5739;}
	.st115{clip-path:url(#SVGID_11_);fill:#911F8E;}
	.st116{clip-path:url(#SVGID_11_);fill:#93218C;}
	.st117{clip-path:url(#SVGID_11_);fill:#952289;}
	.st118{clip-path:url(#SVGID_11_);fill:#972487;}
	.st119{clip-path:url(#SVGID_11_);fill:#9A2584;}
	.st120{clip-path:url(#SVGID_11_);fill:#9C2782;}
	.st121{clip-path:url(#SVGID_11_);fill:#9E2980;}
	.st122{clip-path:url(#SVGID_11_);fill:#A02A7D;}
	.st123{clip-path:url(#SVGID_11_);fill:#A22C7B;}
	.st124{clip-path:url(#SVGID_11_);fill:#A42D79;}
	.st125{clip-path:url(#SVGID_11_);fill:#A62F77;}
	.st126{clip-path:url(#SVGID_11_);fill:#A83074;}
	.st127{clip-path:url(#SVGID_11_);fill:#AA3172;}
	.st128{clip-path:url(#SVGID_11_);fill:#AB3370;}
	.st129{clip-path:url(#SVGID_11_);fill:#AD346E;}
	.st130{clip-path:url(#SVGID_11_);fill:#AF366C;}
	.st131{clip-path:url(#SVGID_11_);fill:#B1376A;}
	.st132{clip-path:url(#SVGID_11_);fill:#B33868;}
	.st133{clip-path:url(#SVGID_11_);fill:#B43A66;}
	.st134{clip-path:url(#SVGID_11_);fill:#B63B64;}
	.st135{fill:#992098;}
	.st136{fill:none;stroke:#FD7014;stroke-width:9;stroke-linecap:round;stroke-linejoin:round;stroke-miterlimit:10;}
	.st137{fill:none;stroke:#992098;stroke-width:20.9921;stroke-linecap:round;stroke-linejoin:round;stroke-miterlimit:10;}
	.st138{fill:none;stroke:#FD7014;stroke-width:12;stroke-linecap:round;stroke-linejoin:round;stroke-miterlimit:10;}
	.st139{fill:none;stroke:#992098;stroke-width:12;stroke-linecap:round;stroke-linejoin:round;stroke-miterlimit:10;}
	.st140{fill:#FD7014;}
	.st141{fill:none;stroke:url(#SVGID_12_);stroke-width:20.9921;stroke-linecap:round;stroke-linejoin:round;stroke-miterlimit:10;}
	.st142{fill:none;stroke:url(#SVGID_13_);stroke-width:14;stroke-linecap:round;stroke-linejoin:round;stroke-miterlimit:10;}
	.st143{fill:none;stroke:#992098;stroke-width:14;stroke-linecap:round;stroke-linejoin:round;stroke-miterlimit:10;}
	.st144{fill:none;stroke:#F3F3F3;stroke-width:7;stroke-linecap:round;stroke-linejoin:round;stroke-miterlimit:10;}
	.st145{fill:none;stroke:url(#SVGID_14_);stroke-width:13;stroke-linecap:round;stroke-linejoin:round;stroke-miterlimit:10;}
	.st146{fill:none;stroke:#FD7014;stroke-width:4;stroke-miterlimit:10;}
	.st147{fill:url(#SVGID_15_);}
	.st148{fill:none;stroke:url(#SVGID_16_);stroke-width:13;stroke-linecap:round;stroke-linejoin:round;stroke-miterlimit:10;}
	.st149{fill:#FFFFFF;stroke:url(#SVGID_17_);stroke-width:7;stroke-linecap:round;stroke-linejoin:round;stroke-miterlimit:10;}
	.st150{fill:none;stroke:#333333;stroke-width:6;stroke-linecap:round;stroke-linejoin:round;stroke-miterlimit:10;}
	.st151{fill:none;stroke:#992098;stroke-width:10;stroke-linecap:round;stroke-linejoin:round;stroke-miterlimit:10;}
	.st152{fill:none;stroke:#FD7014;stroke-width:10;stroke-linecap:round;stroke-linejoin:round;stroke-miterlimit:10;}
	.st153{fill:none;stroke:url(#SVGID_18_);stroke-width:10;stroke-linecap:round;stroke-linejoin:round;stroke-miterlimit:10;}
	.st154{fill:none;stroke:url(#SVGID_19_);stroke-width:10;stroke-linecap:round;stroke-linejoin:round;stroke-miterlimit:10;}
	.st155{fill:none;stroke:url(#SVGID_20_);stroke-width:10;stroke-linecap:round;stroke-linejoin:round;stroke-miterlimit:10;}
	.st156{fill:none;stroke:url(#SVGID_21_);stroke-width:10;stroke-linecap:round;stroke-linejoin:round;stroke-miterlimit:10;}
	.st157{fill:none;stroke:#000000;stroke-width:7;stroke-linecap:round;stroke-linejoin:round;stroke-miterlimit:10;}
	.st158{fill:url(#SVGID_22_);}
	.st159{fill:none;stroke:url(#SVGID_23_);stroke-width:4;stroke-miterlimit:10;}
	.st160{fill:none;stroke:url(#SVGID_24_);stroke-width:4;stroke-miterlimit:10;}
	.st161{fill:#F9FBFF;}
	.st162{fill:none;stroke:#F3F3F3;stroke-width:8;stroke-linecap:round;stroke-linejoin:round;stroke-miterlimit:10;}
	.st163{fill:none;stroke:#333333;stroke-width:8;stroke-linecap:round;stroke-linejoin:round;stroke-miterlimit:10;}
	.st164{fill:url(#SVGID_25_);}
	.st165{fill:url(#SVGID_26_);}
	.st166{fill:url(#SVGID_27_);}
	.st167{fill:url(#SVGID_28_);}
	.st168{fill:url(#SVGID_29_);}
	.st169{fill:url(#SVGID_30_);}
	.st170{fill:url(#SVGID_31_);}
	.st171{fill:url(#SVGID_32_);}
	.st172{clip-path:url(#SVGID_34_);fill:#EB6328;}
	.st173{clip-path:url(#SVGID_34_);fill:#EB6229;}
	.st174{clip-path:url(#SVGID_34_);fill:#EA622A;}
	.st175{clip-path:url(#SVGID_34_);fill:#E9612A;}
	.st176{clip-path:url(#SVGID_36_);fill:#EB6328;}
	.st177{clip-path:url(#SVGID_36_);fill:#EB6229;}
	.st178{clip-path:url(#SVGID_36_);fill:#EA622A;}
	.st179{clip-path:url(#SVGID_36_);fill:#E9612A;}
	.st180{clip-path:url(#SVGID_38_);fill:#E15B34;}
	.st181{clip-path:url(#SVGID_38_);fill:#E05A35;}
	.st182{clip-path:url(#SVGID_38_);fill:#DF5A36;}
	.st183{clip-path:url(#SVGID_38_);fill:#DE5937;}
	.st184{clip-path:url(#SVGID_38_);fill:#DD5838;}
	.st185{clip-path:url(#SVGID_38_);fill:#DC5739;}
	.st186{clip-path:url(#SVGID_38_);fill:#DB563B;}
	.st187{clip-path:url(#SVGID_38_);fill:#DA553C;}
	.st188{clip-path:url(#SVGID_38_);fill:#D8553D;}
	.st189{clip-path:url(#SVGID_38_);fill:#D7543F;}
	.st190{clip-path:url(#SVGID_38_);fill:#D65340;}
	.st191{clip-path:url(#SVGID_38_);fill:#D55241;}
	.st192{clip-path:url(#SVGID_38_);fill:#D45143;}
	.st193{clip-path:url(#SVGID_38_);fill:#D25044;}
	.st194{clip-path:url(#SVGID_38_);fill:#D14F46;}
	.st195{clip-path:url(#SVGID_38_);fill:#D04E47;}
	.st196{clip-path:url(#SVGID_38_);fill:#CF4D48;}
	.st197{clip-path:url(#SVGID_38_);fill:#CD4C4A;}
	.st198{clip-path:url(#SVGID_38_);fill:#CC4B4C;}
	.st199{clip-path:url(#SVGID_38_);fill:#CA4A4D;}
	.st200{clip-path:url(#SVGID_38_);fill:#C9494F;}
	.st201{clip-path:url(#SVGID_38_);fill:#C84850;}
	.st202{clip-path:url(#SVGID_38_);fill:#C64752;}
	.st203{clip-path:url(#SVGID_38_);fill:#C54654;}
	.st204{clip-path:url(#SVGID_38_);fill:#C34555;}
	.st205{clip-path:url(#SVGID_38_);fill:#C24357;}
	.st206{clip-path:url(#SVGID_38_);fill:#C04259;}
	.st207{clip-path:url(#SVGID_38_);fill:#BE415B;}
	.st208{clip-path:url(#SVGID_38_);fill:#BD405C;}
	.st209{clip-path:url(#SVGID_38_);fill:#BB3F5E;}
	.st210{clip-path:url(#SVGID_38_);fill:#BA3D60;}
	.st211{clip-path:url(#SVGID_38_);fill:#B83C62;}
	.st212{clip-path:url(#SVGID_38_);fill:#B63B64;}
	.st213{clip-path:url(#SVGID_38_);fill:#B43A66;}
	.st214{clip-path:url(#SVGID_38_);fill:#B33868;}
	.st215{clip-path:url(#SVGID_38_);fill:#B1376A;}
	.st216{clip-path:url(#SVGID_38_);fill:#AF366C;}
	.st217{clip-path:url(#SVGID_38_);fill:#AD346E;}
	.st218{clip-path:url(#SVGID_38_);fill:#AB3370;}
	.st219{clip-path:url(#SVGID_38_);fill:#AA3172;}
	.st220{clip-path:url(#SVGID_38_);fill:#A83074;}
	.st221{clip-path:url(#SVGID_40_);fill:#BD405C;}
	.st222{clip-path:url(#SVGID_40_);fill:#BB3F5E;}
	.st223{clip-path:url(#SVGID_40_);fill:#BA3D60;}
	.st224{clip-path:url(#SVGID_40_);fill:#B83C62;}
	.st225{clip-path:url(#SVGID_40_);fill:#B63B64;}
	.st226{clip-path:url(#SVGID_40_);fill:#B43A66;}
	.st227{clip-path:url(#SVGID_40_);fill:#B33868;}
	.st228{clip-path:url(#SVGID_40_);fill:#B1376A;}
	.st229{clip-path:url(#SVGID_40_);fill:#AF366C;}
	.st230{clip-path:url(#SVGID_40_);fill:#AD346E;}
	.st231{clip-path:url(#SVGID_40_);fill:#AB3370;}
	.st232{clip-path:url(#SVGID_40_);fill:#AA3172;}
	.st233{clip-path:url(#SVGID_40_);fill:#A83074;}
	.st234{clip-path:url(#SVGID_40_);fill:#A62F77;}
	.st235{clip-path:url(#SVGID_40_);fill:#A42D79;}
	.st236{clip-path:url(#SVGID_40_);fill:#A22C7B;}
	.st237{clip-path:url(#SVGID_40_);fill:#A02A7D;}
	.st238{clip-path:url(#SVGID_40_);fill:#9E2980;}
	.st239{clip-path:url(#SVGID_40_);fill:#9C2782;}
	.st240{clip-path:url(#SVGID_40_);fill:#9A2584;}
	.st241{clip-path:url(#SVGID_40_);fill:#972487;}
	.st242{clip-path:url(#SVGID_40_);fill:#952289;}
	.st243{clip-path:url(#SVGID_40_);fill:#93218C;}
	.st244{clip-path:url(#SVGID_40_);fill:#911F8E;}
	.st245{clip-path:url(#SVGID_42_);fill:#E15B34;}
	.st246{clip-path:url(#SVGID_42_);fill:#E05A35;}
	.st247{clip-path:url(#SVGID_42_);fill:#DF5A36;}
	.st248{clip-path:url(#SVGID_42_);fill:#DE5937;}
	.st249{clip-path:url(#SVGID_42_);fill:#DD5838;}
	.st250{clip-path:url(#SVGID_42_);fill:#DC5739;}
	.st251{clip-path:url(#SVGID_42_);fill:#DB563B;}
	.st252{clip-path:url(#SVGID_42_);fill:#DA553C;}
	.st253{clip-path:url(#SVGID_42_);fill:#D8553D;}
	.st254{clip-path:url(#SVGID_42_);fill:#D7543F;}
	.st255{clip-path:url(#SVGID_42_);fill:#D65340;}
	.st256{clip-path:url(#SVGID_42_);fill:#D55241;}
	.st257{clip-path:url(#SVGID_42_);fill:#D45143;}
	.st258{clip-path:url(#SVGID_42_);fill:#D25044;}
	.st259{clip-path:url(#SVGID_42_);fill:#D14F46;}
	.st260{clip-path:url(#SVGID_42_);fill:#D04E47;}
	.st261{clip-path:url(#SVGID_42_);fill:#CF4D48;}
	.st262{clip-path:url(#SVGID_42_);fill:#CD4C4A;}
	.st263{clip-path:url(#SVGID_42_);fill:#CC4B4C;}
	.st264{clip-path:url(#SVGID_42_);fill:#CA4A4D;}
	.st265{clip-path:url(#SVGID_42_);fill:#C9494F;}
	.st266{clip-path:url(#SVGID_42_);fill:#C84850;}
	.st267{clip-path:url(#SVGID_42_);fill:#C64752;}
	.st268{clip-path:url(#SVGID_42_);fill:#C54654;}
	.st269{clip-path:url(#SVGID_42_);fill:#C34555;}
	.st270{clip-path:url(#SVGID_42_);fill:#C24357;}
	.st271{clip-path:url(#SVGID_42_);fill:#C04259;}
	.st272{clip-path:url(#SVGID_42_);fill:#BE415B;}
	.st273{clip-path:url(#SVGID_42_);fill:#BD405C;}
	.st274{clip-path:url(#SVGID_42_);fill:#BB3F5E;}
	.st275{clip-path:url(#SVGID_42_);fill:#BA3D60;}
	.st276{clip-path:url(#SVGID_42_);fill:#B83C62;}
	.st277{clip-path:url(#SVGID_42_);fill:#B63B64;}
	.st278{clip-path:url(#SVGID_42_);fill:#B43A66;}
	.st279{clip-path:url(#SVGID_42_);fill:#B33868;}
	.st280{clip-path:url(#SVGID_42_);fill:#B1376A;}
	.st281{clip-path:url(#SVGID_42_);fill:#AF366C;}
	.st282{clip-path:url(#SVGID_42_);fill:#AD346E;}
	.st283{clip-path:url(#SVGID_42_);fill:#AB3370;}
	.st284{clip-path:url(#SVGID_42_);fill:#AA3172;}
	.st285{clip-path:url(#SVGID_44_);fill:#FD7014;}
	.st286{clip-path:url(#SVGID_44_);fill:#FC7015;}
	.st287{clip-path:url(#SVGID_44_);fill:#FC6F15;}
	.st288{clip-path:url(#SVGID_44_);fill:#FC6F16;}
	.st289{clip-path:url(#SVGID_44_);fill:#FB6F16;}
	.st290{clip-path:url(#SVGID_44_);fill:#FB6E16;}
	.st291{clip-path:url(#SVGID_44_);fill:#FB6E17;}
	.st292{clip-path:url(#SVGID_44_);fill:#FA6E17;}
	.st293{clip-path:url(#SVGID_44_);fill:#FA6E18;}
	.st294{clip-path:url(#SVGID_44_);fill:#FA6D18;}
	.st295{clip-path:url(#SVGID_44_);fill:#F96D18;}
	.st296{clip-path:url(#SVGID_44_);fill:#F96D19;}
	.st297{clip-path:url(#SVGID_44_);fill:#F86C19;}
	.st298{clip-path:url(#SVGID_44_);fill:#F86C1A;}
	.st299{clip-path:url(#SVGID_44_);fill:#F76C1B;}
	.st300{clip-path:url(#SVGID_44_);fill:#F76B1B;}
	.st301{clip-path:url(#SVGID_44_);fill:#F66B1B;}
	.st302{clip-path:url(#SVGID_44_);fill:#F66B1C;}
	.st303{clip-path:url(#SVGID_44_);fill:#F66A1C;}
	.st304{clip-path:url(#SVGID_44_);fill:#F56A1D;}
	.st305{clip-path:url(#SVGID_44_);fill:#F4691E;}
	.st306{clip-path:url(#SVGID_44_);fill:#F4691F;}
	.st307{clip-path:url(#SVGID_44_);fill:#F3691F;}
	.st308{clip-path:url(#SVGID_44_);fill:#F36820;}
	.st309{clip-path:url(#SVGID_44_);fill:#F26820;}
	.st310{clip-path:url(#SVGID_44_);fill:#F16721;}
	.st311{clip-path:url(#SVGID_46_);fill:#FD7014;}
	.st312{clip-path:url(#SVGID_46_);fill:#FC7015;}
	.st313{clip-path:url(#SVGID_46_);fill:#FC6F15;}
	.st314{clip-path:url(#SVGID_46_);fill:#FC6F16;}
	.st315{clip-path:url(#SVGID_48_);fill:#FD7014;}
	.st316{clip-path:url(#SVGID_48_);fill:#FC7015;}
	.st317{clip-path:url(#SVGID_48_);fill:#FC6F15;}
	.st318{clip-path:url(#SVGID_48_);fill:#FC6F16;}
	.st319{clip-path:url(#SVGID_48_);fill:#FB6F16;}
	.st320{clip-path:url(#SVGID_48_);fill:#FB6E16;}
	.st321{clip-path:url(#SVGID_48_);fill:#FB6E17;}
	.st322{clip-path:url(#SVGID_48_);fill:#FA6E17;}
	.st323{clip-path:url(#SVGID_48_);fill:#FA6E18;}
	.st324{clip-path:url(#SVGID_48_);fill:#FA6D18;}
	.st325{clip-path:url(#SVGID_48_);fill:#F96D18;}
	.st326{clip-path:url(#SVGID_48_);fill:#F96D19;}
	.st327{clip-path:url(#SVGID_48_);fill:#F86C19;}
	.st328{clip-path:url(#SVGID_48_);fill:#F86C1A;}
	.st329{clip-path:url(#SVGID_48_);fill:#F76C1B;}
	.st330{clip-path:url(#SVGID_48_);fill:#F76B1B;}
	.st331{clip-path:url(#SVGID_48_);fill:#F66B1B;}
	.st332{clip-path:url(#SVGID_48_);fill:#F66B1C;}
	.st333{clip-path:url(#SVGID_48_);fill:#F66A1C;}
	.st334{clip-path:url(#SVGID_48_);fill:#F56A1D;}
	.st335{clip-path:url(#SVGID_48_);fill:#F4691E;}
	.st336{clip-path:url(#SVGID_48_);fill:#F4691F;}
	.st337{clip-path:url(#SVGID_48_);fill:#F3691F;}
	.st338{clip-path:url(#SVGID_48_);fill:#F36820;}
	.st339{clip-path:url(#SVGID_48_);fill:#F26820;}
	.st340{clip-path:url(#SVGID_48_);fill:#F16721;}
	.st341{fill:none;stroke:url(#SVGID_49_);stroke-width:12;stroke-linecap:round;stroke-linejoin:round;stroke-miterlimit:10;}
	.st342{fill:none;stroke:url(#SVGID_50_);stroke-width:12;stroke-linecap:round;stroke-linejoin:round;stroke-miterlimit:10;}
	.st343{fill:none;stroke:url(#SVGID_51_);stroke-width:12;stroke-linecap:round;stroke-linejoin:round;stroke-miterlimit:10;}
	.st344{fill:none;stroke:url(#SVGID_52_);stroke-width:12;stroke-linecap:round;stroke-linejoin:round;stroke-miterlimit:10;}
	.st345{fill:none;stroke:url(#SVGID_53_);stroke-width:12;stroke-linecap:round;stroke-linejoin:round;stroke-miterlimit:10;}
	.st346{fill:none;stroke:url(#SVGID_54_);stroke-width:12;stroke-linecap:round;stroke-linejoin:round;stroke-miterlimit:10;}
	.st347{fill:none;stroke:url(#SVGID_55_);stroke-width:12;stroke-linecap:round;stroke-linejoin:round;stroke-miterlimit:10;}
	.st348{fill:none;stroke:url(#SVGID_56_);stroke-width:12;stroke-linecap:round;stroke-linejoin:round;stroke-miterlimit:10;}
	.st349{fill:none;stroke:#333333;stroke-width:7;stroke-miterlimit:10;}
	.st350{fill:none;stroke:url(#SVGID_57_);stroke-width:12;stroke-linecap:round;stroke-linejoin:round;stroke-miterlimit:10;}
	.st351{clip-path:url(#SVGID_59_);fill:#FD7014;}
	.st352{clip-path:url(#SVGID_59_);fill:#FC7015;}
	.st353{clip-path:url(#SVGID_59_);fill:#FC6F15;}
	.st354{clip-path:url(#SVGID_59_);fill:#FC6F16;}
	.st355{clip-path:url(#SVGID_59_);fill:#FB6F16;}
	.st356{clip-path:url(#SVGID_59_);fill:#FB6E16;}
	.st357{clip-path:url(#SVGID_59_);fill:#FB6E17;}
	.st358{clip-path:url(#SVGID_59_);fill:#FA6E17;}
	.st359{clip-path:url(#SVGID_59_);fill:#FA6E18;}
	.st360{clip-path:url(#SVGID_59_);fill:#FA6D18;}
	.st361{clip-path:url(#SVGID_59_);fill:#F96D18;}
	.st362{clip-path:url(#SVGID_59_);fill:#F96D19;}
	.st363{clip-path:url(#SVGID_59_);fill:#F86C19;}
	.st364{clip-path:url(#SVGID_59_);fill:#F86C1A;}
	.st365{clip-path:url(#SVGID_59_);fill:#F76C1B;}
	.st366{clip-path:url(#SVGID_59_);fill:#F76B1B;}
	.st367{clip-path:url(#SVGID_59_);fill:#F66B1B;}
	.st368{clip-path:url(#SVGID_59_);fill:#F66B1C;}
	.st369{clip-path:url(#SVGID_59_);fill:#F66A1C;}
	.st370{clip-path:url(#SVGID_59_);fill:#F56A1D;}
	.st371{clip-path:url(#SVGID_59_);fill:#F4691E;}
	.st372{clip-path:url(#SVGID_59_);fill:#F4691F;}
	.st373{clip-path:url(#SVGID_59_);fill:#F3691F;}
	.st374{clip-path:url(#SVGID_59_);fill:#F36820;}
	.st375{clip-path:url(#SVGID_59_);fill:#F26820;}
	.st376{clip-path:url(#SVGID_59_);fill:#F16721;}
	.st377{clip-path:url(#SVGID_59_);fill:#F16722;}
	.st378{clip-path:url(#SVGID_59_);fill:#F06622;}
	.st379{clip-path:url(#SVGID_59_);fill:#F06623;}
	.st380{clip-path:url(#SVGID_59_);fill:#EF6524;}
	.st381{clip-path:url(#SVGID_59_);fill:#EE6525;}
	.st382{clip-path:url(#SVGID_59_);fill:#EE6425;}
	.st383{clip-path:url(#SVGID_59_);fill:#ED6426;}
	.st384{clip-path:url(#SVGID_59_);fill:#EC6327;}
	.st385{clip-path:url(#SVGID_59_);fill:#EB6328;}
	.st386{clip-path:url(#SVGID_59_);fill:#EB6229;}
	.st387{clip-path:url(#SVGID_59_);fill:#EA622A;}
	.st388{clip-path:url(#SVGID_59_);fill:#E9612A;}
	.st389{clip-path:url(#SVGID_59_);fill:#E8602B;}
	.st390{clip-path:url(#SVGID_59_);fill:#E7602C;}
	.st391{clip-path:url(#SVGID_59_);fill:#E75F2D;}
	.st392{clip-path:url(#SVGID_59_);fill:#E65F2E;}
	.st393{clip-path:url(#SVGID_59_);fill:#E55E2F;}
	.st394{clip-path:url(#SVGID_59_);fill:#E45D30;}
	.st395{clip-path:url(#SVGID_59_);fill:#E35C31;}
	.st396{clip-path:url(#SVGID_59_);fill:#E25C32;}
	.st397{clip-path:url(#SVGID_59_);fill:#E15B34;}
	.st398{clip-path:url(#SVGID_59_);fill:#E05A35;}
	.st399{clip-path:url(#SVGID_59_);fill:#DF5A36;}
	.st400{clip-path:url(#SVGID_59_);fill:#DE5937;}
	.st401{clip-path:url(#SVGID_59_);fill:#DD5838;}
	.st402{clip-path:url(#SVGID_59_);fill:#DC5739;}
	.st403{clip-path:url(#SVGID_59_);fill:#DB563B;}
	.st404{clip-path:url(#SVGID_59_);fill:#DA553C;}
	.st405{clip-path:url(#SVGID_59_);fill:#D8553D;}
	.st406{clip-path:url(#SVGID_59_);fill:#D7543F;}
	.st407{clip-path:url(#SVGID_59_);fill:#D65340;}
	.st408{clip-path:url(#SVGID_59_);fill:#D55241;}
	.st409{clip-path:url(#SVGID_59_);fill:#D45143;}
	.st410{clip-path:url(#SVGID_59_);fill:#D25044;}
	.st411{clip-path:url(#SVGID_59_);fill:#D14F46;}
	.st412{clip-path:url(#SVGID_59_);fill:#D04E47;}
	.st413{clip-path:url(#SVGID_59_);fill:#CF4D48;}
	.st414{clip-path:url(#SVGID_59_);fill:#CD4C4A;}
	.st415{clip-path:url(#SVGID_59_);fill:#CC4B4C;}
	.st416{clip-path:url(#SVGID_59_);fill:#CA4A4D;}
	.st417{clip-path:url(#SVGID_59_);fill:#C9494F;}
	.st418{clip-path:url(#SVGID_59_);fill:#C84850;}
	.st419{clip-path:url(#SVGID_59_);fill:#C64752;}
	.st420{clip-path:url(#SVGID_59_);fill:#C54654;}
	.st421{clip-path:url(#SVGID_59_);fill:#C34555;}
	.st422{clip-path:url(#SVGID_59_);fill:#C24357;}
	.st423{clip-path:url(#SVGID_59_);fill:#C04259;}
	.st424{clip-path:url(#SVGID_59_);fill:#BE415B;}
	.st425{clip-path:url(#SVGID_59_);fill:#BD405C;}
	.st426{clip-path:url(#SVGID_59_);fill:#BB3F5E;}
	.st427{clip-path:url(#SVGID_59_);fill:#BA3D60;}
	.st428{clip-path:url(#SVGID_59_);fill:#B83C62;}
	.st429{clip-path:url(#SVGID_59_);fill:#B63B64;}
	.st430{clip-path:url(#SVGID_59_);fill:#B43A66;}
	.st431{clip-path:url(#SVGID_59_);fill:#B33868;}
	.st432{clip-path:url(#SVGID_59_);fill:#B1376A;}
	.st433{clip-path:url(#SVGID_59_);fill:#AF366C;}
	.st434{clip-path:url(#SVGID_59_);fill:#AD346E;}
	.st435{clip-path:url(#SVGID_59_);fill:#AB3370;}
	.st436{clip-path:url(#SVGID_59_);fill:#AA3172;}
	.st437{clip-path:url(#SVGID_59_);fill:#A83074;}
	.st438{clip-path:url(#SVGID_59_);fill:#A62F77;}
	.st439{clip-path:url(#SVGID_59_);fill:#A42D79;}
	.st440{clip-path:url(#SVGID_59_);fill:#A22C7B;}
	.st441{clip-path:url(#SVGID_59_);fill:#A02A7D;}
	.st442{clip-path:url(#SVGID_59_);fill:#9E2980;}
	.st443{clip-path:url(#SVGID_59_);fill:#9C2782;}
	.st444{clip-path:url(#SVGID_59_);fill:#9A2584;}
	.st445{clip-path:url(#SVGID_59_);fill:#972487;}
	.st446{clip-path:url(#SVGID_59_);fill:#952289;}
	.st447{clip-path:url(#SVGID_59_);fill:#93218C;}
	.st448{clip-path:url(#SVGID_59_);fill:#911F8E;}
	.st449{fill:url(#SVGID_60_);}
	.st450{clip-path:url(#SVGID_62_);fill:#911F8E;}
	.st451{clip-path:url(#SVGID_62_);fill:#93218C;}
	.st452{clip-path:url(#SVGID_62_);fill:#952289;}
	.st453{clip-path:url(#SVGID_62_);fill:#972487;}
	.st454{clip-path:url(#SVGID_62_);fill:#9A2584;}
	.st455{clip-path:url(#SVGID_62_);fill:#9C2782;}
	.st456{clip-path:url(#SVGID_62_);fill:#9E2980;}
	.st457{clip-path:url(#SVGID_62_);fill:#A02A7D;}
	.st458{clip-path:url(#SVGID_62_);fill:#A22C7B;}
	.st459{clip-path:url(#SVGID_62_);fill:#A42D79;}
	.st460{clip-path:url(#SVGID_62_);fill:#A62F77;}
	.st461{clip-path:url(#SVGID_62_);fill:#A83074;}
	.st462{clip-path:url(#SVGID_62_);fill:#AA3172;}
	.st463{clip-path:url(#SVGID_62_);fill:#AB3370;}
	.st464{clip-path:url(#SVGID_62_);fill:#AD346E;}
	.st465{clip-path:url(#SVGID_62_);fill:#AF366C;}
	.st466{clip-path:url(#SVGID_62_);fill:#B1376A;}
	.st467{clip-path:url(#SVGID_62_);fill:#B33868;}
	.st468{clip-path:url(#SVGID_62_);fill:#B43A66;}
	.st469{clip-path:url(#SVGID_62_);fill:#B63B64;}
	.st470{clip-path:url(#SVGID_62_);fill:#B83C62;}
	.st471{clip-path:url(#SVGID_62_);fill:#BA3D60;}
	.st472{clip-path:url(#SVGID_62_);fill:#BB3F5E;}
	.st473{clip-path:url(#SVGID_62_);fill:#BD405C;}
	.st474{clip-path:url(#SVGID_62_);fill:#BE415B;}
	.st475{clip-path:url(#SVGID_62_);fill:#C04259;}
	.st476{clip-path:url(#SVGID_62_);fill:#C24357;}
	.st477{clip-path:url(#SVGID_62_);fill:#C34555;}
	.st478{clip-path:url(#SVGID_62_);fill:#C54654;}
	.st479{clip-path:url(#SVGID_62_);fill:#C64752;}
	.st480{clip-path:url(#SVGID_62_);fill:#C84850;}
	.st481{clip-path:url(#SVGID_62_);fill:#C9494F;}
	.st482{clip-path:url(#SVGID_62_);fill:#CA4A4D;}
	.st483{clip-path:url(#SVGID_62_);fill:#CC4B4C;}
	.st484{clip-path:url(#SVGID_62_);fill:#CD4C4A;}
	.st485{clip-path:url(#SVGID_62_);fill:#CF4D48;}
	.st486{clip-path:url(#SVGID_62_);fill:#D04E47;}
	.st487{clip-path:url(#SVGID_62_);fill:#D14F46;}
	.st488{clip-path:url(#SVGID_62_);fill:#D25044;}
	.st489{clip-path:url(#SVGID_62_);fill:#D45143;}
	.st490{clip-path:url(#SVGID_62_);fill:#D55241;}
	.st491{clip-path:url(#SVGID_62_);fill:#D65340;}
	.st492{clip-path:url(#SVGID_62_);fill:#D7543F;}
	.st493{clip-path:url(#SVGID_62_);fill:#D8553D;}
	.st494{clip-path:url(#SVGID_62_);fill:#DA553C;}
	.st495{clip-path:url(#SVGID_62_);fill:#DB563B;}
	.st496{clip-path:url(#SVGID_62_);fill:#DC5739;}
	.st497{clip-path:url(#SVGID_62_);fill:#DD5838;}
	.st498{clip-path:url(#SVGID_62_);fill:#DE5937;}
	.st499{clip-path:url(#SVGID_62_);fill:#DF5A36;}
	.st500{clip-path:url(#SVGID_62_);fill:#E05A35;}
	.st501{clip-path:url(#SVGID_62_);fill:#E15B34;}
	.st502{clip-path:url(#SVGID_62_);fill:#E25C32;}
	.st503{clip-path:url(#SVGID_62_);fill:#E35C31;}
	.st504{clip-path:url(#SVGID_62_);fill:#E45D30;}
	.st505{clip-path:url(#SVGID_62_);fill:#E55E2F;}
	.st506{clip-path:url(#SVGID_62_);fill:#E65F2E;}
	.st507{clip-path:url(#SVGID_62_);fill:#E75F2D;}
	.st508{clip-path:url(#SVGID_62_);fill:#E7602C;}
	.st509{clip-path:url(#SVGID_62_);fill:#E8602B;}
	.st510{clip-path:url(#SVGID_62_);fill:#E9612A;}
	.st511{clip-path:url(#SVGID_62_);fill:#EA622A;}
	.st512{clip-path:url(#SVGID_62_);fill:#EB6229;}
	.st513{clip-path:url(#SVGID_62_);fill:#EB6328;}
	.st514{clip-path:url(#SVGID_62_);fill:#EC6327;}
	.st515{clip-path:url(#SVGID_62_);fill:#ED6426;}
	.st516{clip-path:url(#SVGID_62_);fill:#EE6425;}
	.st517{clip-path:url(#SVGID_62_);fill:#EE6525;}
	.st518{clip-path:url(#SVGID_62_);fill:#EF6524;}
	.st519{clip-path:url(#SVGID_62_);fill:#F06623;}
	.st520{clip-path:url(#SVGID_62_);fill:#F06622;}
	.st521{clip-path:url(#SVGID_62_);fill:#F16722;}
	.st522{clip-path:url(#SVGID_62_);fill:#F16721;}
	.st523{clip-path:url(#SVGID_62_);fill:#F26820;}
	.st524{clip-path:url(#SVGID_62_);fill:#F36820;}
	.st525{clip-path:url(#SVGID_62_);fill:#F3691F;}
	.st526{clip-path:url(#SVGID_62_);fill:#F4691F;}
	.st527{clip-path:url(#SVGID_62_);fill:#F4691E;}
	.st528{clip-path:url(#SVGID_62_);fill:#F56A1D;}
	.st529{clip-path:url(#SVGID_62_);fill:#F66A1C;}
	.st530{clip-path:url(#SVGID_62_);fill:#F66B1C;}
	.st531{clip-path:url(#SVGID_62_);fill:#F66B1B;}
	.st532{clip-path:url(#SVGID_62_);fill:#F76B1B;}
	.st533{clip-path:url(#SVGID_62_);fill:#F76C1B;}
	.st534{clip-path:url(#SVGID_62_);fill:#F86C1A;}
	.st535{clip-path:url(#SVGID_62_);fill:#F86C19;}
	.st536{clip-path:url(#SVGID_62_);fill:#F96D19;}
	.st537{clip-path:url(#SVGID_62_);fill:#F96D18;}
	.st538{clip-path:url(#SVGID_62_);fill:#FA6D18;}
	.st539{clip-path:url(#SVGID_62_);fill:#FA6E18;}
	.st540{clip-path:url(#SVGID_62_);fill:#FA6E17;}
	.st541{clip-path:url(#SVGID_62_);fill:#FB6E17;}
	.st542{clip-path:url(#SVGID_62_);fill:#FB6E16;}
	.st543{clip-path:url(#SVGID_62_);fill:#FB6F16;}
	.st544{clip-path:url(#SVGID_62_);fill:#FC6F16;}
	.st545{clip-path:url(#SVGID_62_);fill:#FC6F15;}
	.st546{clip-path:url(#SVGID_62_);fill:#FC7015;}
	.st547{clip-path:url(#SVGID_62_);fill:#FD7014;}
	.st548{clip-path:url(#SVGID_64_);fill:#B63B64;}
	.st549{clip-path:url(#SVGID_64_);fill:#B73C63;}
	.st550{clip-path:url(#SVGID_64_);fill:#B93D61;}
	.st551{clip-path:url(#SVGID_64_);fill:#BA3D60;}
	.st552{clip-path:url(#SVGID_64_);fill:#BB3E5F;}
	.st553{clip-path:url(#SVGID_64_);fill:#BC3F5E;}
	.st554{clip-path:url(#SVGID_64_);fill:#BD405C;}
	.st555{clip-path:url(#SVGID_64_);fill:#BE415B;}
	.st556{clip-path:url(#SVGID_64_);fill:#BF425A;}
	.st557{clip-path:url(#SVGID_64_);fill:#C04259;}
	.st558{clip-path:url(#SVGID_64_);fill:#C14357;}
	.st559{clip-path:url(#SVGID_64_);fill:#C24456;}
	.st560{clip-path:url(#SVGID_64_);fill:#C34555;}
	.st561{clip-path:url(#SVGID_64_);fill:#C44654;}
	.st562{clip-path:url(#SVGID_64_);fill:#C64653;}
	.st563{clip-path:url(#SVGID_64_);fill:#C74751;}
	.st564{clip-path:url(#SVGID_64_);fill:#C84850;}
	.st565{clip-path:url(#SVGID_64_);fill:#C9494F;}
	.st566{clip-path:url(#SVGID_64_);fill:#CA494E;}
	.st567{clip-path:url(#SVGID_64_);fill:#CB4A4D;}
	.st568{clip-path:url(#SVGID_64_);fill:#CC4B4C;}
	.st569{clip-path:url(#SVGID_64_);fill:#CD4C4B;}
	.st570{clip-path:url(#SVGID_64_);fill:#CE4D49;}
	.st571{clip-path:url(#SVGID_64_);fill:#CF4D48;}
	.st572{clip-path:url(#SVGID_64_);fill:#D04E47;}
	.st573{clip-path:url(#SVGID_64_);fill:#D14F46;}
	.st574{clip-path:url(#SVGID_64_);fill:#D24F45;}
	.st575{clip-path:url(#SVGID_64_);fill:#D35044;}
	.st576{clip-path:url(#SVGID_64_);fill:#D45143;}
	.st577{clip-path:url(#SVGID_64_);fill:#D55242;}
	.st578{clip-path:url(#SVGID_64_);fill:#D55241;}
	.st579{clip-path:url(#SVGID_64_);fill:#D65340;}
	.st580{clip-path:url(#SVGID_64_);fill:#D7543F;}
	.st581{clip-path:url(#SVGID_64_);fill:#D8543E;}
	.st582{clip-path:url(#SVGID_64_);fill:#D9553C;}
	.st583{clip-path:url(#SVGID_64_);fill:#DA563B;}
	.st584{clip-path:url(#SVGID_64_);fill:#DB563A;}
	.st585{clip-path:url(#SVGID_64_);fill:#DC5739;}
	.st586{clip-path:url(#SVGID_64_);fill:#DD5838;}
	.st587{clip-path:url(#SVGID_64_);fill:#DE5837;}
	.st588{clip-path:url(#SVGID_64_);fill:#DF5936;}
	.st589{clip-path:url(#SVGID_64_);fill:#DF5A35;}
	.st590{clip-path:url(#SVGID_64_);fill:#E05A34;}
	.st591{clip-path:url(#SVGID_64_);fill:#E15B33;}
	.st592{clip-path:url(#SVGID_64_);fill:#E25C33;}
	.st593{clip-path:url(#SVGID_64_);fill:#E35C32;}
	.st594{clip-path:url(#SVGID_64_);fill:#E45D31;}
	.st595{clip-path:url(#SVGID_64_);fill:#E45E30;}
	.st596{clip-path:url(#SVGID_64_);fill:#E55E2F;}
	.st597{clip-path:url(#SVGID_64_);fill:#E65F2E;}
	.st598{clip-path:url(#SVGID_64_);fill:#E75F2D;}
	.st599{clip-path:url(#SVGID_64_);fill:#E8602C;}
	.st600{clip-path:url(#SVGID_64_);fill:#E8612B;}
	.st601{clip-path:url(#SVGID_64_);fill:#E9612A;}
	.st602{clip-path:url(#SVGID_64_);fill:#EA6229;}
	.st603{clip-path:url(#SVGID_64_);fill:#EB6229;}
	.st604{clip-path:url(#SVGID_64_);fill:#EB6328;}
	.st605{clip-path:url(#SVGID_64_);fill:#EC6327;}
	.st606{clip-path:url(#SVGID_64_);fill:#ED6426;}
	.st607{clip-path:url(#SVGID_64_);fill:#EE6425;}
	.st608{clip-path:url(#SVGID_64_);fill:#EE6525;}
	.st609{clip-path:url(#SVGID_64_);fill:#EF6624;}
	.st610{clip-path:url(#SVGID_64_);fill:#F06623;}
	.st611{clip-path:url(#SVGID_64_);fill:#F06722;}
	.st612{clip-path:url(#SVGID_64_);fill:#F16721;}
	.st613{clip-path:url(#SVGID_64_);fill:#F26821;}
	.st614{clip-path:url(#SVGID_64_);fill:#F26820;}
	.st615{clip-path:url(#SVGID_64_);fill:#F3681F;}
	.st616{clip-path:url(#SVGID_64_);fill:#F4691F;}
	.st617{clip-path:url(#SVGID_64_);fill:#F4691E;}
	.st618{clip-path:url(#SVGID_64_);fill:#F56A1D;}
	.st619{clip-path:url(#SVGID_64_);fill:#F66B1C;}
	.st620{clip-path:url(#SVGID_64_);fill:#F76B1B;}
	.st621{clip-path:url(#SVGID_64_);fill:#F76C1B;}
	.st622{clip-path:url(#SVGID_64_);fill:#F86C1A;}
	.st623{clip-path:url(#SVGID_64_);fill:#F96D19;}
	.st624{clip-path:url(#SVGID_64_);fill:#F96D18;}
	.st625{clip-path:url(#SVGID_64_);fill:#FA6D18;}
	.st626{clip-path:url(#SVGID_64_);fill:#911F8E;}
	.st627{clip-path:url(#SVGID_64_);fill:#92208D;}
	.st628{clip-path:url(#SVGID_64_);fill:#94218B;}
	.st629{clip-path:url(#SVGID_64_);fill:#95228A;}
	.st630{clip-path:url(#SVGID_64_);fill:#962388;}
	.st631{clip-path:url(#SVGID_64_);fill:#972487;}
	.st632{clip-path:url(#SVGID_64_);fill:#992585;}
	.st633{clip-path:url(#SVGID_64_);fill:#9A2684;}
	.st634{clip-path:url(#SVGID_64_);fill:#9B2783;}
	.st635{clip-path:url(#SVGID_64_);fill:#9C2781;}
	.st636{clip-path:url(#SVGID_64_);fill:#9E2880;}
	.st637{clip-path:url(#SVGID_64_);fill:#9F297E;}
	.st638{clip-path:url(#SVGID_64_);fill:#A02A7D;}
	.st639{clip-path:url(#SVGID_64_);fill:#A12B7C;}
	.st640{clip-path:url(#SVGID_64_);fill:#A22C7A;}
	.st641{clip-path:url(#SVGID_64_);fill:#A42D79;}
	.st642{clip-path:url(#SVGID_64_);fill:#A52E78;}
	.st643{clip-path:url(#SVGID_64_);fill:#A62F76;}
	.st644{clip-path:url(#SVGID_64_);fill:#A73075;}
	.st645{clip-path:url(#SVGID_64_);fill:#A83174;}
	.st646{clip-path:url(#SVGID_64_);fill:#AA3172;}
	.st647{clip-path:url(#SVGID_64_);fill:#AB3271;}
	.st648{clip-path:url(#SVGID_64_);fill:#AC3370;}
	.st649{clip-path:url(#SVGID_64_);fill:#AD346E;}
	.st650{clip-path:url(#SVGID_64_);fill:#AE356D;}
	.st651{clip-path:url(#SVGID_64_);fill:#AF366C;}
	.st652{clip-path:url(#SVGID_64_);fill:#B1376A;}
	.st653{clip-path:url(#SVGID_64_);fill:#B23869;}
	.st654{clip-path:url(#SVGID_64_);fill:#B33868;}
	.st655{clip-path:url(#SVGID_64_);fill:#B43966;}
	.st656{clip-path:url(#SVGID_64_);fill:#B53A65;}
	.st657{clip-path:url(#SVGID_64_);fill:#FA6E17;}
	.st658{clip-path:url(#SVGID_64_);fill:#FB6E16;}
	.st659{clip-path:url(#SVGID_64_);fill:#FB6F16;}
	.st660{clip-path:url(#SVGID_64_);fill:#FC6F16;}
	.st661{clip-path:url(#SVGID_64_);fill:#FC6F15;}
	.st662{clip-path:url(#SVGID_64_);fill:#FC7015;}
	.st663{clip-path:url(#SVGID_64_);fill:#FD7014;}
	.st664{fill:url(#SVGID_65_);}
	.st665{fill:url(#SVGID_66_);}
	.st666{fill:url(#SVGID_67_);}
	.st667{fill:url(#SVGID_68_);}
	.st668{fill:url(#SVGID_69_);}
	.st669{fill-rule:evenodd;clip-rule:evenodd;fill:#FFFFFF;}
	.st670{fill:url(#SVGID_72_);}
	.st671{fill:url(#SVGID_73_);}
</style>
<g>
	<g>
		<path
        class="st1"
        d="M6.4,15.2c-1,1.6-1.4,3.1-1.4,4c0,0,0,0,0,0c0,0,0,27,0,28.9c0,1.9,1.3,4.7,3.9,6.8c2.5,2,6.1,3.3,10.5,2.3
			c0.3-0.1,1.2-0.5,2.6-1.6c1.3-1,2.9-2.5,4.7-4.2c1.7-1.7,3.6-3.5,5.5-5.4l0.1-0.1c1.8-1.9,3.7-3.7,5.5-5.5c1-1,2.6-0.9,3.5,0.1
			c1,1,0.9,2.6-0.1,3.5c-1.7,1.7-3.6,3.5-5.4,5.4l-0.1,0.1c-1.9,1.9-3.8,3.8-5.5,5.5c-1.8,1.7-3.5,3.3-5.1,4.5
			c-1.5,1.1-3.1,2.2-4.7,2.6c-5.9,1.2-11-0.5-14.6-3.3C2.3,55.9,0,51.8,0,48c0,0,0,0,0,0l0-28.9c0-2.2,0.9-4.5,2.2-6.7
			c1.3-2.2,3.3-4.3,5.7-5.8c2.4-1.6,5.4-2.6,8.7-2.6c3.3,0.1,6.8,1.2,10.4,3.8c1.1,0.8,1.4,2.4,0.6,3.5c-0.8,1.1-2.4,1.4-3.5,0.6
			c-2.8-2-5.4-2.8-7.5-2.8c-2.2,0-4.2,0.6-5.9,1.8C8.8,12,7.4,13.6,6.4,15.2z"
      />
		<path
        class="st2"
        d="M52.2,51.4c1-1.6,1.4-3.1,1.4-4c0,0,0,0,0,0l0-28.9c0-1.9-1.3-4.7-3.9-6.8c-2.5-2-5.9-3.5-10.3-2.4
			c-0.3,0.1-1.4,0.6-2.8,1.7c-1.3,1-2.9,2.5-4.7,4.2c-1.7,1.7-3.6,3.5-5.5,5.4l-0.1,0.1c-1.8,1.9-3.7,3.7-5.5,5.5
			c-1,1-2.6,0.9-3.5-0.1c-1-1-0.9-2.6,0.1-3.5c1.7-1.7,3.6-3.5,5.4-5.4l0.1-0.1c1.9-1.9,3.8-3.8,5.5-5.5c1.8-1.7,3.5-3.3,5.1-4.5
			C35,6,36.7,4.9,38.3,4.6c5.9-1.2,11,0.5,14.6,3.3c3.5,2.8,5.7,6.9,5.7,10.7c0,0,0,0,0,0l0,28.9c0,2.2-0.9,4.5-2.2,6.7
			c-1.3,2.2-3.3,4.3-5.7,5.8c-2.4,1.6-5.4,2.6-8.7,2.6c-3.3-0.1-6.8-1.2-10.4-3.8c-1.1-0.8-1.4-2.4-0.6-3.5c0.8-1.1,2.4-1.4,3.5-0.6
			c2.8,2,5.4,2.8,7.5,2.8c2.2,0,4.2-0.6,5.9-1.8C49.8,54.6,51.2,53,52.2,51.4z"
      />
		<g>
			<linearGradient
          id="SVGID_1_"
          gradientUnits="userSpaceOnUse"
          x1="16.1794"
          y1="32.3247"
          x2="43.1987"
          y2="32.3247"
        >
				<stop offset="0.1745" style="stop-color:#992098" />
				<stop offset="1" style="stop-color:#FD7014" />
			</linearGradient>
			<path
          style="fill:url(#SVGID_1_);"
          d="M18.7,45.8c-0.6,0-1.3-0.2-1.8-0.7c-1-1-1-2.6,0-3.5l22-22c1-1,2.6-1,3.5,0
				c1,1,1,2.6,0,3.5l-22,22C19.9,45.6,19.3,45.8,18.7,45.8z"
        />
		</g>
	</g>
	<g>
		<path
        class="st0"
        d="M113.9,15.7c2.6,1.4,4.6,3.4,6.1,6.1c1.5,2.7,2.2,5.9,2.2,9.7v24.6h-8.6V32.8c0-3.7-0.9-6.6-2.8-8.6
			c-1.9-2-4.4-3-7.7-3s-5.8,1-7.7,3c-1.9,2-2.8,4.9-2.8,8.6v23.4H84V14.3h8.6v4.8c1.4-1.7,3.2-3.1,5.4-4c2.2-1,4.5-1.4,7-1.4
			C108.4,13.6,111.3,14.3,113.9,15.7z"
      />
		<path
        class="st0"
        d="M140.5,54.1c-3.2-1.8-5.7-4.3-7.5-7.6c-1.8-3.3-2.7-7-2.7-11.3c0-4.2,0.9-8,2.8-11.3c1.9-3.3,4.4-5.8,7.7-7.6
			c3.2-1.8,6.8-2.7,10.8-2.7c4,0,7.6,0.9,10.8,2.7c3.2,1.8,5.8,4.3,7.7,7.6c1.9,3.3,2.8,7.1,2.8,11.3s-1,8-2.9,11.3
			c-1.9,3.3-4.5,5.8-7.8,7.6c-3.3,1.8-7,2.7-11,2.7C147.2,56.8,143.7,55.9,140.5,54.1z M157.4,47.7c1.9-1.1,3.5-2.7,4.7-4.8
			c1.2-2.1,1.8-4.7,1.8-7.7s-0.6-5.6-1.7-7.7c-1.2-2.1-2.7-3.7-4.6-4.7s-4-1.6-6.2-1.6c-2.2,0-4.3,0.5-6.2,1.6s-3.4,2.6-4.5,4.7
			c-1.1,2.1-1.7,4.7-1.7,7.7c0,4.5,1.1,8,3.4,10.4c2.3,2.5,5.2,3.7,8.7,3.7C153.4,49.3,155.5,48.7,157.4,47.7z"
      />
		<path
        class="st0"
        d="M181,23.9c1.7-3.2,4.1-5.7,7.1-7.5c3-1.8,6.4-2.7,10-2.7c2.7,0,5.4,0.6,8.1,1.8c2.7,1.2,4.8,2.8,6.3,4.7V0
			h8.7v56.1h-8.7v-6.3c-1.4,2-3.4,3.7-5.9,5c-2.5,1.3-5.4,2-8.6,2c-3.6,0-7-0.9-10-2.8c-3-1.8-5.4-4.4-7.1-7.7
			c-1.7-3.3-2.6-7.1-2.6-11.3C178.4,30.8,179.3,27.1,181,23.9z M210.8,27.7c-1.2-2.1-2.7-3.7-4.7-4.9c-1.9-1.1-4-1.7-6.2-1.7
			c-2.2,0-4.3,0.5-6.2,1.6c-1.9,1.1-3.5,2.7-4.7,4.8c-1.2,2.1-1.8,4.6-1.8,7.5c0,2.9,0.6,5.4,1.8,7.6c1.2,2.2,2.8,3.8,4.7,5
			c1.9,1.1,4,1.7,6.2,1.7c2.2,0,4.3-0.6,6.2-1.7c1.9-1.1,3.5-2.7,4.7-4.9c1.2-2.1,1.8-4.7,1.8-7.5C212.6,32.3,212,29.8,210.8,27.7z"
      />
		<path
        class="st0"
        d="M270.5,38.4h-31.9c0.3,3.3,1.5,6,3.7,8c2.2,2,5,3,8.2,3c4.6,0,7.9-1.9,9.9-5.8h9.3c-1.3,3.8-3.6,7-6.9,9.4
			c-3.3,2.5-7.4,3.7-12.3,3.7c-4,0-7.6-0.9-10.7-2.7c-3.2-1.8-5.6-4.3-7.4-7.6c-1.8-3.3-2.7-7-2.7-11.3c0-4.3,0.9-8.1,2.6-11.3
			c1.7-3.3,4.2-5.8,7.4-7.5c3.2-1.8,6.8-2.7,10.9-2.7c3.9,0,7.5,0.9,10.5,2.6c3.1,1.7,5.5,4.1,7.2,7.2c1.7,3.1,2.6,6.7,2.6,10.7
			C270.8,35.8,270.7,37.2,270.5,38.4z M261.8,31.5c-0.1-3.2-1.2-5.7-3.4-7.7c-2.2-1.9-5-2.9-8.3-2.9c-3,0-5.5,0.9-7.7,2.8
			s-3.4,4.5-3.8,7.7H261.8z"
      />
		<path class="st0" d="M287.8,0v56.1h-8.6V0H287.8z" />
		<path
        class="st0"
        d="M337,38.4h-31.9c0.3,3.3,1.5,6,3.7,8c2.2,2,5,3,8.2,3c4.6,0,7.9-1.9,9.9-5.8h9.3c-1.3,3.8-3.6,7-6.9,9.4
			c-3.3,2.5-7.4,3.7-12.3,3.7c-4,0-7.6-0.9-10.7-2.7c-3.2-1.8-5.6-4.3-7.4-7.6c-1.8-3.3-2.7-7-2.7-11.3c0-4.3,0.9-8.1,2.6-11.3
			c1.7-3.3,4.2-5.8,7.4-7.5c3.2-1.8,6.8-2.7,10.9-2.7c3.9,0,7.5,0.9,10.5,2.6c3.1,1.7,5.5,4.1,7.2,7.2c1.7,3.1,2.6,6.7,2.6,10.7
			C337.3,35.8,337.2,37.2,337,38.4z M328.3,31.5c-0.1-3.2-1.2-5.7-3.4-7.7c-2.2-1.9-5-2.9-8.3-2.9c-3,0-5.5,0.9-7.7,2.8
			s-3.4,4.5-3.8,7.7H328.3z"
      />
		<path
        class="st0"
        d="M352,55c-2.6-1.2-4.7-2.8-6.2-4.9c-1.5-2-2.3-4.3-2.4-6.9h8.9c0.2,1.8,1,3.2,2.5,4.4c1.5,1.2,3.5,1.8,5.8,1.8
			c2.4,0,4.3-0.5,5.6-1.4c1.3-0.9,2-2.1,2-3.6c0-1.6-0.7-2.7-2.2-3.5c-1.5-0.8-3.9-1.6-7.1-2.5c-3.1-0.9-5.7-1.7-7.7-2.5
			c-2-0.8-3.7-2-5.1-3.7s-2.2-3.9-2.2-6.6c0-2.2,0.7-4.3,2-6.1c1.3-1.8,3.2-3.3,5.6-4.4c2.5-1.1,5.3-1.6,8.5-1.6
			c4.8,0,8.6,1.2,11.5,3.6c2.9,2.4,4.5,5.7,4.7,9.8h-8.6c-0.2-1.9-0.9-3.4-2.3-4.5c-1.4-1.1-3.2-1.7-5.5-1.7c-2.3,0-4,0.4-5.2,1.3
			c-1.2,0.9-1.8,2-1.8,3.4c0,1.1,0.4,2,1.2,2.8c0.8,0.8,1.8,1.4,3,1.8c1.2,0.4,2.9,1,5.2,1.6c3,0.8,5.5,1.6,7.5,2.5
			c1.9,0.8,3.6,2.1,5,3.7c1.4,1.6,2.1,3.8,2.2,6.4c0,2.4-0.7,4.5-2,6.4c-1.3,1.9-3.2,3.3-5.6,4.4c-2.4,1.1-5.2,1.6-8.5,1.6
			C357.5,56.8,354.6,56.2,352,55z"
      />
		<path
        class="st0"
        d="M392.3,55c-2.6-1.2-4.7-2.8-6.2-4.9c-1.5-2-2.3-4.3-2.4-6.9h8.9c0.2,1.8,1,3.2,2.5,4.4
			c1.5,1.2,3.5,1.8,5.8,1.8c2.4,0,4.3-0.5,5.6-1.4c1.3-0.9,2-2.1,2-3.6c0-1.6-0.7-2.7-2.2-3.5c-1.5-0.8-3.9-1.6-7.1-2.5
			c-3.1-0.9-5.7-1.7-7.7-2.5c-2-0.8-3.7-2-5.1-3.7s-2.2-3.9-2.2-6.6c0-2.2,0.7-4.3,2-6.1c1.3-1.8,3.2-3.3,5.6-4.4
			c2.5-1.1,5.3-1.6,8.5-1.6c4.8,0,8.6,1.2,11.5,3.6c2.9,2.4,4.5,5.7,4.7,9.8H408c-0.2-1.9-0.9-3.4-2.3-4.5c-1.4-1.1-3.2-1.7-5.5-1.7
			c-2.3,0-4,0.4-5.2,1.3c-1.2,0.9-1.8,2-1.8,3.4c0,1.1,0.4,2,1.2,2.8c0.8,0.8,1.8,1.4,3,1.8c1.2,0.4,2.9,1,5.2,1.6
			c3,0.8,5.5,1.6,7.5,2.5c1.9,0.8,3.6,2.1,5,3.7c1.4,1.6,2.1,3.8,2.2,6.4c0,2.4-0.7,4.5-2,6.4c-1.3,1.9-3.2,3.3-5.6,4.4
			c-2.4,1.1-5.2,1.6-8.5,1.6C397.9,56.8,394.9,56.2,392.3,55z"
      />
	</g>
</g>
</svg>
