<svg width="24" height="24" viewBox="0 0 24 24" fill="none" xmlns="http://www.w3.org/2000/svg">
<rect width="24" height="24" rx="8" fill="#E5E7EB"/>
<path fill-rule="evenodd" clip-rule="evenodd" d="M6 8C6 6.89543 6.89543 6 8 6H9.66667C10.0349 6 10.3333 6.29848 10.3333 6.66667C10.3333 7.03486 10.0349 7.33333 9.66667 7.33333H8C7.63181 7.33333 7.33333 7.63181 7.33333 8V9.73099C7.33333 10.0992 7.03486 10.3977 6.66667 10.3977C6.29848 10.3977 6 10.0992 6 9.73099V8ZM13.6667 6.66667C13.6667 6.29848 13.9651 6 14.3333 6H16C17.1046 6 18 6.89543 18 8V9.73099C18 10.0992 17.7015 10.3977 17.3333 10.3977C16.9651 10.3977 16.6667 10.0992 16.6667 9.73099V8C16.6667 7.63181 16.3682 7.33333 16 7.33333H14.3333C13.9651 7.33333 13.6667 7.03486 13.6667 6.66667ZM8.33333 12C8.33333 11.6318 8.63181 11.3333 9 11.3333H15C15.3682 11.3333 15.6667 11.6318 15.6667 12C15.6667 12.3682 15.3682 12.6667 15 12.6667H9C8.63181 12.6667 8.33333 12.3682 8.33333 12ZM6.66667 13.7785C7.03486 13.7785 7.33333 14.077 7.33333 14.4452V16C7.33333 16.3682 7.63181 16.6667 8 16.6667H9.66667C10.0349 16.6667 10.3333 16.9651 10.3333 17.3333C10.3333 17.7015 10.0349 18 9.66667 18H8C6.89543 18 6 17.1046 6 16V14.4452C6 14.077 6.29848 13.7785 6.66667 13.7785ZM17.3333 13.7785C17.7015 13.7785 18 14.077 18 14.4452V16C18 17.1046 17.1046 18 16 18H14.3333C13.9651 18 13.6667 17.7015 13.6667 17.3333C13.6667 16.9651 13.9651 16.6667 14.3333 16.6667H16C16.3682 16.6667 16.6667 16.3682 16.6667 16V14.4452C16.6667 14.077 16.9651 13.7785 17.3333 13.7785Z" fill="#374151"/>
</svg>
