<svg
  width="35"
  height="30"
  viewBox="0 0 29 28"
  fill="none"
  xmlns="http://www.w3.org/2000/svg"
>
<path
    fill-rule="evenodd"
    clip-rule="evenodd"
    d="M3.21788 5.285C2.73487 6.06438 2.5344 6.76747 2.53432 7.21403C2.53432 7.21407 2.53432 7.21399 2.53432 7.21403L2.53458 21.0805C2.53449 21.9952 3.14236 23.3192 4.39261 24.3227C5.59629 25.2888 7.31666 25.8847 9.41414 25.4485C9.57316 25.4155 9.9804 25.2173 10.6741 24.6781C11.3201 24.1759 12.0777 23.4894 12.9127 22.6846C13.7445 21.8828 14.6293 20.987 15.5315 20.0726L15.5917 20.0115C16.4701 19.1212 17.3638 18.2154 18.2194 17.3865C18.6965 16.9243 19.4579 16.9364 19.9201 17.4134C20.3822 17.8905 20.3702 18.6519 19.8931 19.1141C19.0573 19.9238 18.1802 20.8128 17.2949 21.7102L17.2438 21.762C16.3456 22.6723 15.4394 23.5901 14.582 24.4165C13.7277 25.2399 12.8978 25.9962 12.1503 26.5772C11.4504 27.1213 10.6581 27.6467 9.90385 27.8036C7.05319 28.3963 4.60987 27.5815 2.88696 26.1986C1.21066 24.8532 0.129046 22.8899 0.129162 21.0805C0.129162 21.0805 0.129162 21.0806 0.129162 21.0805L0.128906 7.21408C0.128996 6.17676 0.543291 5.03441 1.17327 4.01789C1.81488 2.98258 2.74233 1.97497 3.9022 1.22649C5.06838 0.47392 6.4867 -0.0262573 8.07941 0.00106631C9.6773 0.028479 11.3639 0.585421 13.0623 1.80765C13.6015 2.19564 13.724 2.94723 13.336 3.48637C12.948 4.02552 12.1964 4.14805 11.6573 3.76007C10.3004 2.78361 9.08087 2.42401 8.03815 2.40613C6.99024 2.38815 6.03348 2.71391 5.20647 3.2476C4.37314 3.78536 3.68929 4.52433 3.21788 5.285Z"
    fill="#992098"
  />
<path
    fill-rule="evenodd"
    clip-rule="evenodd"
    d="M25.1874 22.715C25.6704 21.9356 25.8709 21.2325 25.871 20.786C25.871 20.7859 25.871 20.786 25.871 20.786L25.8707 6.91953C25.8708 6.00484 25.2629 4.68077 24.0127 3.67728C22.809 2.71117 21.0886 2.11531 18.9911 2.55146C18.8321 2.58453 18.4249 2.78271 17.7312 3.3219C17.0852 3.82409 16.3276 4.51058 15.4926 5.31538C14.6607 6.11715 13.776 7.01296 12.8738 7.92743L12.8135 7.98847C11.9352 8.87879 11.0415 9.78462 10.1859 10.6135C9.70881 11.0757 8.9474 11.0636 8.48521 10.5866C8.02303 10.1095 8.0351 9.34807 8.51217 8.88588C9.34792 8.07621 10.2251 7.18716 11.1104 6.2898L11.1615 6.23804C12.0596 5.3277 12.9659 4.40991 13.8233 3.58349C14.6775 2.7601 15.5075 2.0038 16.255 1.42276C16.9548 0.878738 17.7472 0.353264 18.5014 0.196423C21.3521 -0.396336 23.7954 0.418518 25.5183 1.80138C27.1946 3.14683 28.2762 5.11007 28.2761 6.91949C28.2761 6.91953 28.2761 6.91944 28.2761 6.91949L28.2764 20.7859C28.2763 21.8232 27.862 22.9656 27.232 23.9821C26.5904 25.0174 25.6629 26.025 24.5031 26.7735C23.3369 27.5261 21.9186 28.0263 20.3259 27.9989C18.728 27.9715 17.0414 27.4146 15.343 26.1923C14.8038 25.8044 14.6813 25.0528 15.0693 24.5136C15.4572 23.9745 16.2088 23.8519 16.748 24.2399C18.1049 25.2164 19.3244 25.576 20.3671 25.5939C21.415 25.6119 22.3718 25.2861 23.1988 24.7524C24.0321 24.2146 24.716 23.4757 25.1874 22.715Z"
    fill="#FD7014"
  />
<path
    d="M18.7496 11.6905C20.1535 11.6905 21.2916 10.5524 21.2916 9.14849C21.2916 7.74456 20.1535 6.60645 18.7496 6.60645C17.3457 6.60645 16.2075 7.74456 16.2075 9.14849C16.2075 9.45223 16.2608 9.74352 16.3585 10.0135C16.3368 10.0319 16.3156 10.0512 16.2949 10.0714L10.9069 15.3264C10.8357 15.3959 10.7749 15.4721 10.7245 15.553C10.4745 15.4708 10.2073 15.4263 9.92974 15.4263C8.52581 15.4263 7.3877 16.5644 7.3877 17.9683C7.3877 19.3723 8.52581 20.5104 9.92974 20.5104C11.3337 20.5104 12.4718 19.3723 12.4718 17.9683C12.4718 17.7086 12.4328 17.458 12.3605 17.222C12.4407 17.1743 12.5167 17.1164 12.5864 17.0484L17.9744 11.7934C18.0318 11.7374 18.0824 11.6771 18.1261 11.6135C18.3256 11.6638 18.5345 11.6905 18.7496 11.6905Z"
    fill="url(#paint0_linear_769_24125)"
  />
<defs>
<linearGradient
      id="paint0_linear_769_24125"
      x1="8.14553"
      y1="19.0436"
      x2="19.5902"
      y2="7.35272"
      gradientUnits="userSpaceOnUse"
    >
<stop stop-color="#911F8E" />
<stop offset="1" stop-color="#FD7014" />
</linearGradient>
</defs>
</svg>
