<svg
  width="325"
  height="320"
  viewBox="0 0 325 320"
  fill="none"
  xmlns="http://www.w3.org/2000/svg"
>
<path
    fill-rule="evenodd"
    clip-rule="evenodd"
    d="M83.1254 51.9053C83.6544 52.8648 83.3054 54.0714 82.3459 54.6004C39.323 78.3192 10.1848 124.109 10.1848 176.701C10.1848 177.797 9.29658 178.685 8.20093 178.685C7.10529 178.685 6.2171 177.797 6.2171 176.701C6.2171 122.606 36.1927 75.5143 80.4303 51.1258C81.3898 50.5968 82.5965 50.9458 83.1254 51.9053ZM219.822 54.0735C220.381 53.1313 221.598 52.8207 222.541 53.3798C250.119 69.7451 271.738 95.0984 283.361 125.408C283.753 126.431 283.241 127.578 282.218 127.97C281.195 128.363 280.048 127.851 279.656 126.828C268.357 97.3623 247.335 72.7065 220.516 56.792C219.574 56.2328 219.263 55.0157 219.822 54.0735ZM52.1199 279.112C52.8639 278.308 54.1191 278.259 54.9234 279.003C79.7696 301.988 113 316.032 149.516 316.032C183.765 316.032 215.123 303.678 239.385 283.179C240.221 282.472 241.473 282.578 242.18 283.415C242.887 284.251 242.782 285.503 241.945 286.21C216.994 307.291 184.737 320 149.516 320C111.963 320 77.7796 305.552 52.229 281.915C51.4247 281.171 51.3759 279.916 52.1199 279.112Z"
    fill="#FF956B"
  />
<path
    fill-rule="evenodd"
    clip-rule="evenodd"
    d="M150 295.525C215.625 295.525 268.824 242.326 268.824 176.702C268.824 111.077 215.625 57.8778 150 57.8778C84.3756 57.8778 31.1764 111.077 31.1764 176.702C31.1764 242.326 84.3756 295.525 150 295.525ZM150 299.493C217.816 299.493 272.791 244.517 272.791 176.702C272.791 108.886 217.816 53.9102 150 53.9102C82.1843 53.9102 27.2087 108.886 27.2087 176.702C27.2087 244.517 82.1843 299.493 150 299.493Z"
    fill="#FF956B"
  />
<path
    fill-rule="evenodd"
    clip-rule="evenodd"
    d="M139.141 72.0152C139.274 73.1028 138.499 74.0917 137.411 74.2239C107.646 77.8417 81.7838 94.1294 65.3842 117.54C64.7556 118.438 63.5186 118.656 62.6212 118.027C61.7238 117.398 61.5059 116.161 62.1346 115.264C79.158 90.9624 106.012 74.0434 136.933 70.2852C138.02 70.153 139.009 70.9275 139.141 72.0152ZM174.792 74.3985C175.069 73.3386 176.153 72.7042 177.213 72.9815C186.437 75.3951 195.176 79.0063 203.254 83.6385C204.205 84.1836 204.533 85.3959 203.988 86.3463C203.443 87.2968 202.231 87.6255 201.281 87.0804C193.502 82.62 185.089 79.1434 176.209 76.8199C175.149 76.5426 174.515 75.4585 174.792 74.3985ZM227.494 105.496C228.315 104.77 229.568 104.846 230.295 105.667C247.039 124.579 257.206 149.456 257.206 176.702C257.206 177.798 256.317 178.686 255.222 178.686C254.126 178.686 253.238 177.798 253.238 176.702C253.238 150.462 243.45 126.512 227.324 108.297C226.598 107.476 226.674 106.223 227.494 105.496ZM51.3124 140.064C52.3466 140.426 52.8915 141.558 52.5297 142.592C48.7939 153.267 46.762 164.745 46.762 176.702C46.762 192.9 50.4911 208.222 57.1357 221.86C57.6155 222.845 57.2061 224.032 56.2211 224.512C55.2362 224.992 54.0487 224.583 53.5688 223.598C46.6662 209.43 42.7944 193.515 42.7944 176.702C42.7944 164.293 44.9036 152.372 48.7847 141.281C49.1465 140.247 50.2783 139.702 51.3124 140.064ZM251.255 205.488C252.304 205.807 252.895 206.915 252.576 207.963C243.286 238.483 220.754 263.226 191.672 275.507C190.663 275.933 189.499 275.46 189.073 274.451C188.646 273.442 189.119 272.278 190.128 271.852C218.135 260.025 239.836 236.192 248.78 206.808C249.099 205.76 250.207 205.169 251.255 205.488ZM69.0551 243.963C69.8842 243.247 71.1369 243.338 71.8533 244.167C90.7872 266.079 118.774 279.94 150 279.94C159.059 279.94 167.842 278.774 176.209 276.584C177.269 276.307 178.353 276.942 178.63 278.001C178.908 279.061 178.273 280.146 177.213 280.423C168.521 282.697 159.4 283.908 150 283.908C117.573 283.908 88.5066 269.508 68.8511 246.761C68.1348 245.932 68.2261 244.679 69.0551 243.963Z"
    fill="#FF956B"
  />
<path
    fill-rule="evenodd"
    clip-rule="evenodd"
    d="M251.255 205.487C252.304 205.806 252.895 206.914 252.576 207.962C243.286 238.482 220.754 263.225 191.672 275.506L189.971 276.224L179.162 255.02L181.174 254.211C184.099 253.033 186.942 251.695 189.692 250.206C190.656 249.685 191.86 250.043 192.381 251.007C192.903 251.97 192.544 253.174 191.581 253.696C189.33 254.914 187.019 256.036 184.654 257.057L191.822 271.118C219.009 259.057 240.017 235.596 248.78 206.807C249.099 205.759 250.207 205.168 251.255 205.487Z"
    fill="#FF956B"
  />
<path
    fill-rule="evenodd"
    clip-rule="evenodd"
    d="M226.437 138.236C227.465 137.71 228.724 138.117 229.25 139.145C235.265 150.905 237.58 165.156 237.58 178.931C237.58 202.576 226.886 223.777 211.33 239.34C210.514 240.157 209.191 240.157 208.374 239.341C207.558 238.525 207.558 237.202 208.374 236.385C223.29 221.461 233.4 201.28 233.4 178.931C233.4 165.557 231.142 152.024 225.528 141.048C225.002 140.021 225.409 138.761 226.437 138.236ZM68.9435 204.068C70.0279 203.672 71.2279 204.23 71.6239 205.315C77.8628 222.398 89.5311 236.874 104.543 246.65C105.51 247.28 105.783 248.575 105.153 249.542C104.523 250.51 103.229 250.783 102.261 250.153C86.5029 239.891 74.2508 224.694 67.6972 206.749C67.3012 205.664 67.8592 204.464 68.9435 204.068Z"
    fill="#FF956B"
  />
<path
    fill-rule="evenodd"
    clip-rule="evenodd"
    d="M173.635 94.4836C173.962 93.4378 175.075 92.8549 176.12 93.1816C193.133 98.4968 207.91 108.864 218.697 122.524L219.814 123.938L201.533 141.47L200.201 139.599C192.905 129.349 182.601 121.392 170.581 117.016C169.552 116.641 169.021 115.502 169.396 114.473C169.771 113.443 170.909 112.913 171.939 113.288C183.995 117.677 194.421 125.45 202.073 135.455L214.453 123.582C204.259 111.229 190.586 101.858 174.937 96.9688C173.891 96.642 173.309 95.5294 173.635 94.4836ZM90.1044 115.651C90.8896 116.415 90.9067 117.671 90.1425 118.457C75.9448 133.045 67.0367 152.799 66.5058 174.633L82.6118 173.958C83.0598 158.009 89.1194 143.459 98.8838 132.22C99.6023 131.393 100.855 131.305 101.682 132.024C102.51 132.742 102.598 133.995 101.879 134.822C92.3306 145.813 86.5527 160.16 86.5527 175.862V177.765L62.513 178.771V176.702C62.513 152.974 71.9624 131.448 87.2991 115.689C88.0633 114.904 89.3193 114.887 90.1044 115.651Z"
    fill="#FF956B"
  />
<path
    fill-rule="evenodd"
    clip-rule="evenodd"
    d="M210.516 155.529C211.566 155.217 212.671 155.815 212.983 156.865C214.773 162.888 215.734 169.265 215.734 175.864C215.734 181.001 215.151 186.006 214.048 190.813C213.803 191.881 212.739 192.548 211.671 192.303C210.603 192.058 209.936 190.994 210.181 189.926C211.218 185.407 211.766 180.701 211.766 175.864C211.766 169.652 210.862 163.655 209.18 157.996C208.868 156.946 209.466 155.841 210.516 155.529ZM92.3883 206.759C93.3336 206.205 94.5489 206.522 95.1028 207.467C99.2682 214.576 104.796 220.791 111.329 225.752C112.201 226.415 112.371 227.659 111.709 228.532C111.046 229.405 109.802 229.575 108.929 228.912C101.985 223.638 96.1086 217.032 91.6796 209.473C91.1256 208.528 91.4429 207.312 92.3883 206.759ZM205.93 206.759C206.876 207.312 207.193 208.528 206.639 209.473C198.857 222.754 186.603 233.099 171.939 238.438C170.909 238.813 169.771 238.282 169.396 237.253C169.021 236.223 169.551 235.085 170.581 234.71C184.367 229.69 195.895 219.961 203.216 207.467C203.77 206.522 204.985 206.205 205.93 206.759Z"
    fill="#FF956B"
  />
<path
    fill-rule="evenodd"
    clip-rule="evenodd"
    d="M216.36 97.8235C217.514 97.8235 218.449 96.8882 218.449 95.7344C218.449 94.5807 217.514 93.6454 216.36 93.6454C215.207 93.6454 214.271 94.5807 214.271 95.7344C214.271 96.8882 215.207 97.8235 216.36 97.8235ZM216.36 101.791C219.705 101.791 222.417 99.0795 222.417 95.7344C222.417 92.3894 219.705 89.6777 216.36 89.6777C213.015 89.6777 210.304 92.3894 210.304 95.7344C210.304 99.0795 213.015 101.791 216.36 101.791Z"
    fill="#FF956B"
  />
<path
    fill-rule="evenodd"
    clip-rule="evenodd"
    d="M254.301 196.469C255.455 196.469 256.39 195.534 256.39 194.38C256.39 193.226 255.455 192.291 254.301 192.291C253.147 192.291 252.212 193.226 252.212 194.38C252.212 195.534 253.147 196.469 254.301 196.469ZM254.301 200.437C257.646 200.437 260.358 197.725 260.358 194.38C260.358 191.035 257.646 188.323 254.301 188.323C250.956 188.323 248.244 191.035 248.244 194.38C248.244 197.725 250.956 200.437 254.301 200.437Z"
    fill="#FF956B"
  />
<path
    fill-rule="evenodd"
    clip-rule="evenodd"
    d="M62.0677 234.41C63.2214 234.41 64.1567 233.475 64.1567 232.321C64.1567 231.168 63.2214 230.232 62.0677 230.232C60.9139 230.232 59.9787 231.168 59.9787 232.321C59.9787 233.475 60.9139 234.41 62.0677 234.41ZM62.0677 238.378C65.4127 238.378 68.1244 235.666 68.1244 232.321C68.1244 228.976 65.4127 226.265 62.0677 226.265C58.7227 226.265 56.011 228.976 56.011 232.321C56.011 235.666 58.7227 238.378 62.0677 238.378Z"
    fill="#FF956B"
  />
<path
    fill-rule="evenodd"
    clip-rule="evenodd"
    d="M201.184 247.057C202.338 247.057 203.273 246.122 203.273 244.968C203.273 243.814 202.338 242.879 201.184 242.879C200.03 242.879 199.095 243.814 199.095 244.968C199.095 246.122 200.03 247.057 201.184 247.057ZM201.184 251.025C204.529 251.025 207.241 248.313 207.241 244.968C207.241 241.623 204.529 238.911 201.184 238.911C197.839 238.911 195.127 241.623 195.127 244.968C195.127 248.313 197.839 251.025 201.184 251.025Z"
    fill="#FF956B"
  />
<path
    fill-rule="evenodd"
    clip-rule="evenodd"
    d="M65.595 196.42C66.7488 196.42 67.6841 195.485 67.6841 194.331C67.6841 193.177 66.7488 192.242 65.595 192.242C64.4413 192.242 63.506 193.177 63.506 194.331C63.506 195.485 64.4413 196.42 65.595 196.42ZM65.595 200.388C68.94 200.388 71.6517 197.676 71.6517 194.331C71.6517 190.986 68.94 188.274 65.595 188.274C62.25 188.274 59.5383 190.986 59.5383 194.331C59.5383 197.676 62.25 200.388 65.595 200.388Z"
    fill="#FF956B"
  />
<path
    fill-rule="evenodd"
    clip-rule="evenodd"
    d="M8.4115 198.984C6.16212 198.984 4.33864 200.808 4.33864 203.057C4.33864 205.307 6.16212 207.13 8.4115 207.13C10.6609 207.13 12.4844 205.307 12.4844 203.057C12.4844 200.808 10.6609 198.984 8.4115 198.984ZM0.370972 203.057C0.370972 198.616 3.97084 195.017 8.4115 195.017C12.8522 195.017 16.452 198.616 16.452 203.057C16.452 207.498 12.8522 211.098 8.4115 211.098C3.97084 211.098 0.370972 207.498 0.370972 203.057Z"
    fill="#FF956B"
  />
<path
    fill-rule="evenodd"
    clip-rule="evenodd"
    d="M171.678 30.7636C169.428 30.7636 167.605 32.587 167.605 34.8364C167.605 37.0858 169.428 38.9093 171.678 38.9093C173.927 38.9093 175.75 37.0858 175.75 34.8364C175.75 32.587 173.927 30.7636 171.678 30.7636ZM163.637 34.8364C163.637 30.3958 167.237 26.7959 171.678 26.7959C176.118 26.7959 179.718 30.3958 179.718 34.8364C179.718 39.2771 176.118 42.877 171.678 42.877C167.237 42.877 163.637 39.2771 163.637 34.8364Z"
    fill="#FF956B"
  />
<path
    fill-rule="evenodd"
    clip-rule="evenodd"
    d="M269.693 263.549C267.444 263.549 265.621 265.372 265.621 267.622C265.621 269.871 267.444 271.694 269.693 271.694C271.943 271.694 273.766 269.871 273.766 267.622C273.766 265.372 271.943 263.549 269.693 263.549ZM261.653 267.622C261.653 263.181 265.253 259.581 269.693 259.581C274.134 259.581 277.734 263.181 277.734 267.622C277.734 272.062 274.134 275.662 269.693 275.662C265.253 275.662 261.653 272.062 261.653 267.622Z"
    fill="#FF956B"
  />
<path
    fill-rule="evenodd"
    clip-rule="evenodd"
    d="M13.672 254.316C14.7677 254.316 15.6559 255.205 15.6559 256.3V265.148C15.6559 266.244 14.7677 267.132 13.672 267.132C12.5764 267.132 11.6882 266.244 11.6882 265.148V256.3C11.6882 255.205 12.5764 254.316 13.672 254.316ZM0.628845 269.572C0.628845 268.477 1.51704 267.588 2.61268 267.588H9.24828C10.3439 267.588 11.2321 268.477 11.2321 269.572C11.2321 270.668 10.3439 271.556 9.24828 271.556H2.61268C1.51704 271.556 0.628845 270.668 0.628845 269.572ZM16.5317 269.572C16.5317 268.477 17.4199 267.588 18.5155 267.588H26.9943C28.09 267.588 28.9782 268.477 28.9782 269.572C28.9782 270.668 28.09 271.556 26.9943 271.556H18.5155C17.4199 271.556 16.5317 270.668 16.5317 269.572ZM13.672 271.643C14.7677 271.643 15.6559 272.532 15.6559 273.627V282.843C15.6559 283.939 14.7677 284.827 13.672 284.827C12.5764 284.827 11.6882 283.939 11.6882 282.843V273.627C11.6882 272.532 12.5764 271.643 13.672 271.643Z"
    fill="#FF956B"
  />
<path
    fill-rule="evenodd"
    clip-rule="evenodd"
    d="M301.952 233.147C303.048 233.147 303.936 234.036 303.936 235.131V243.979C303.936 245.075 303.048 245.963 301.952 245.963C300.856 245.963 299.968 245.075 299.968 243.979V235.131C299.968 234.036 300.856 233.147 301.952 233.147ZM288.909 248.403C288.909 247.308 289.797 246.419 290.893 246.419H297.528C298.624 246.419 299.512 247.308 299.512 248.403C299.512 249.499 298.624 250.387 297.528 250.387H290.893C289.797 250.387 288.909 249.499 288.909 248.403ZM304.812 248.403C304.812 247.308 305.7 246.419 306.796 246.419H315.274C316.37 246.419 317.258 247.308 317.258 248.403C317.258 249.499 316.37 250.387 315.274 250.387H306.796C305.7 250.387 304.812 249.499 304.812 248.403ZM301.952 250.475C303.048 250.475 303.936 251.363 303.936 252.458V261.674C303.936 262.77 303.048 263.658 301.952 263.658C300.856 263.658 299.968 262.77 299.968 261.674V252.458C299.968 251.363 300.856 250.475 301.952 250.475Z"
    fill="#FF956B"
  />
<path
    fill-rule="evenodd"
    clip-rule="evenodd"
    d="M309.694 148.562C310.789 148.562 311.678 149.45 311.678 150.545V159.393C311.678 160.489 310.789 161.377 309.694 161.377C308.598 161.377 307.71 160.489 307.71 159.393V150.545C307.71 149.45 308.598 148.562 309.694 148.562ZM296.651 163.817C296.651 162.722 297.539 161.834 298.634 161.834H305.27C306.366 161.834 307.254 162.722 307.254 163.817C307.254 164.913 306.366 165.801 305.27 165.801H298.634C297.539 165.801 296.651 164.913 296.651 163.817ZM312.553 163.817C312.553 162.722 313.442 161.834 314.537 161.834H323.016C324.112 161.834 325 162.722 325 163.817C325 164.913 324.112 165.801 323.016 165.801H314.537C313.442 165.801 312.553 164.913 312.553 163.817ZM309.694 165.889C310.789 165.889 311.678 166.777 311.678 167.872V177.089C311.678 178.184 310.789 179.072 309.694 179.072C308.598 179.072 307.71 178.184 307.71 177.089V167.872C307.71 166.777 308.598 165.889 309.694 165.889Z"
    fill="#FF956B"
  />
<path
    fill-rule="evenodd"
    clip-rule="evenodd"
    d="M108.363 0C109.459 0 110.347 0.888192 110.347 1.98383V10.8317C110.347 11.9274 109.459 12.8156 108.363 12.8156C107.267 12.8156 106.379 11.9274 106.379 10.8317V1.98383C106.379 0.888192 107.267 0 108.363 0ZM95.3198 15.2558C95.3198 14.1602 96.208 13.272 97.3036 13.272H103.939C105.035 13.272 105.923 14.1602 105.923 15.2558C105.923 16.3515 105.035 17.2397 103.939 17.2397H97.3036C96.208 17.2397 95.3198 16.3515 95.3198 15.2558ZM111.223 15.2558C111.223 14.1602 112.111 13.272 113.206 13.272H121.685C122.781 13.272 123.669 14.1602 123.669 15.2558C123.669 16.3515 122.781 17.2397 121.685 17.2397H113.206C112.111 17.2397 111.223 16.3515 111.223 15.2558ZM108.363 17.3271C109.459 17.3271 110.347 18.2153 110.347 19.3109V28.527C110.347 29.6227 109.459 30.5109 108.363 30.5109C107.267 30.5109 106.379 29.6227 106.379 28.527V19.3109C106.379 18.2153 107.267 17.3271 108.363 17.3271Z"
    fill="#FF956B"
  />
<path
    fill-rule="evenodd"
    clip-rule="evenodd"
    d="M58.2737 128.325C58.6708 128.325 58.9928 128.003 58.9928 127.606C58.9928 127.209 58.6708 126.887 58.2737 126.887C57.8765 126.887 57.5545 127.209 57.5545 127.606C57.5545 128.003 57.8765 128.325 58.2737 128.325ZM55.0251 127.606C55.0251 125.812 56.4796 124.357 58.2737 124.357C60.0678 124.357 61.5222 125.812 61.5222 127.606C61.5222 129.4 60.0678 130.854 58.2737 130.854C56.4796 130.854 55.0251 129.4 55.0251 127.606Z"
    fill="#FF956B"
  />
<path
    fill-rule="evenodd"
    clip-rule="evenodd"
    d="M86.2906 193.834C86.6878 193.834 87.0098 193.512 87.0098 193.115C87.0098 192.718 86.6878 192.396 86.2906 192.396C85.8935 192.396 85.5715 192.718 85.5715 193.115C85.5715 193.512 85.8935 193.834 86.2906 193.834ZM83.0421 193.115C83.0421 191.321 84.4965 189.866 86.2906 189.866C88.0848 189.866 89.5392 191.321 89.5392 193.115C89.5392 194.909 88.0848 196.363 86.2906 196.363C84.4965 196.363 83.0421 194.909 83.0421 193.115Z"
    fill="#FF956B"
  />
<path
    fill-rule="evenodd"
    clip-rule="evenodd"
    d="M97.3036 111.954C98.4573 111.954 99.3926 111.019 99.3926 109.865C99.3926 108.712 98.4573 107.776 97.3036 107.776C96.1498 107.776 95.2146 108.712 95.2146 109.865C95.2146 111.019 96.1498 111.954 97.3036 111.954ZM97.3036 115.922C100.649 115.922 103.36 113.21 103.36 109.865C103.36 106.52 100.649 103.809 97.3036 103.809C93.9586 103.809 91.2469 106.52 91.2469 109.865C91.2469 113.21 93.9586 115.922 97.3036 115.922Z"
    fill="#FF956B"
  />
<path
    fill-rule="evenodd"
    clip-rule="evenodd"
    d="M157.217 80.1347C154.327 80.1347 151.984 82.4774 151.984 85.3672C151.984 88.2571 154.327 90.5998 157.217 90.5998C160.106 90.5998 162.449 88.2571 162.449 85.3672C162.449 82.4774 160.106 80.1347 157.217 80.1347ZM148.016 85.3672C148.016 80.2861 152.135 76.167 157.217 76.167C162.298 76.167 166.417 80.2861 166.417 85.3672C166.417 89.7673 163.328 93.4459 159.2 94.3531V123.989C159.2 125.085 158.312 125.973 157.217 125.973C156.121 125.973 155.233 125.085 155.233 123.989V94.353C151.105 93.4459 148.016 89.7673 148.016 85.3672Z"
    fill="#FF956B"
  />
<path
    fill-rule="evenodd"
    clip-rule="evenodd"
    d="M132.39 221.344C133.486 221.344 134.374 222.232 134.374 223.328L134.374 252.963C138.501 253.87 141.59 257.549 141.59 261.949C141.59 267.03 137.471 271.149 132.39 271.149C127.309 271.149 123.19 267.03 123.19 261.949C123.19 257.549 126.278 253.87 130.406 252.963L130.406 223.328C130.406 222.232 131.294 221.344 132.39 221.344ZM132.39 256.717C129.5 256.717 127.157 259.059 127.157 261.949C127.157 264.839 129.5 267.182 132.39 267.182C135.28 267.182 137.622 264.839 137.622 261.949C137.622 259.059 135.28 256.717 132.39 256.717Z"
    fill="#FF956B"
  />
<path
    fill-rule="evenodd"
    clip-rule="evenodd"
    d="M157.216 221.344C158.312 221.344 159.2 222.232 159.2 223.328V240.279C163.328 241.186 166.417 244.865 166.417 249.265C166.417 254.346 162.298 258.465 157.216 258.465C152.135 258.465 148.016 254.346 148.016 249.265C148.016 244.865 151.105 241.186 155.233 240.279V223.328C155.233 222.232 156.121 221.344 157.216 221.344ZM157.216 244.033C154.327 244.033 151.984 246.375 151.984 249.265C151.984 252.155 154.327 254.498 157.216 254.498C160.106 254.498 162.449 252.155 162.449 249.265C162.449 246.375 160.106 244.033 157.216 244.033Z"
    fill="#FF956B"
  />
<path
    fill-rule="evenodd"
    clip-rule="evenodd"
    d="M131.923 128.465C130.827 128.465 129.939 127.577 129.939 126.481L129.939 109.529C125.811 108.622 122.722 104.944 122.722 100.544C122.722 95.4623 126.841 91.3433 131.923 91.3433C137.004 91.3433 141.123 95.4623 141.123 100.544C141.123 104.944 138.034 108.622 133.906 109.529L133.906 126.481C133.906 127.577 133.018 128.465 131.923 128.465ZM131.923 105.776C134.812 105.776 137.155 103.433 137.155 100.544C137.155 97.6536 134.812 95.3109 131.923 95.3109C129.033 95.3109 126.69 97.6536 126.69 100.544C126.69 103.433 129.033 105.776 131.923 105.776Z"
    fill="#FF956B"
  />
<path
    fill-rule="evenodd"
    clip-rule="evenodd"
    d="M110.54 124.916H168.349L168.586 124.975C178.579 127.474 186.373 136.245 188.933 145.93C191.273 154.782 189.278 164.589 180.58 171.25C189.654 176.155 193.405 186.518 192.117 196.575C190.667 207.894 182.852 219.258 168.642 223.255L168.379 223.329H122.972C121.876 223.329 120.988 222.441 120.988 221.345C120.988 220.25 121.876 219.361 122.972 219.361H167.827C180.198 215.772 186.924 205.893 188.182 196.071C189.456 186.121 185.134 176.659 175.824 173.493L171.693 172.089L175.468 169.899C185.035 164.35 187.305 155.295 185.097 146.944C182.872 138.528 176.143 131.061 167.855 128.884H114.508V213.823C114.508 214.918 113.62 215.807 112.524 215.807C111.429 215.807 110.54 214.918 110.54 213.823V124.916ZM129.346 140.796H161.001C164.648 140.796 167.256 142.745 168.826 145.437C170.349 148.048 170.932 151.375 170.819 154.552C170.705 157.736 169.884 161.01 168.338 163.555C166.787 166.11 164.331 168.166 161.001 168.166H143.031C141.935 168.166 141.047 167.278 141.047 166.182C141.047 165.087 141.935 164.199 143.031 164.199H161.001C162.476 164.199 163.833 163.33 164.947 161.496C166.065 159.654 166.759 157.077 166.854 154.41C166.949 151.736 166.436 149.213 165.399 147.436C164.409 145.74 162.995 144.764 161.001 144.764H133.314V166.182C133.314 167.278 132.425 168.166 131.33 168.166C130.234 168.166 129.346 167.278 129.346 166.182V140.796ZM129.346 177.571H164.344C167.792 177.571 170.038 180.114 171.319 182.908C172.622 185.751 173.223 189.397 173.223 192.928C173.223 196.459 172.622 200.105 171.319 202.948C170.038 205.742 167.792 208.285 164.344 208.285H136.345C135.249 208.285 134.361 207.396 134.361 206.301C134.361 205.205 135.249 204.317 136.345 204.317H164.344C165.493 204.317 166.694 203.516 167.712 201.295C168.707 199.123 169.255 196.084 169.255 192.928C169.255 189.772 168.707 186.733 167.712 184.561C166.694 182.34 165.493 181.539 164.344 181.539H133.314V199.614C133.314 200.71 132.425 201.598 131.33 201.598C130.234 201.598 129.346 200.71 129.346 199.614V177.571Z"
    fill="#FF956B"
  />
</svg>
