<svg width="387" height="102" viewBox="0 0 387 102" fill="none" xmlns="http://www.w3.org/2000/svg">
<rect width="385.144" height="101.842" transform="translate(0.97998 0.0253906)" fill="white"/>
<path d="M134.76 40.0546C137.187 40.0546 139.352 40.5586 141.256 41.5666C143.197 42.5746 144.709 44.0679 145.792 46.0466C146.875 48.0253 147.416 50.4146 147.416 53.2146V71.4146H141.088V54.1666C141.088 51.4039 140.397 49.2946 139.016 47.8386C137.635 46.3453 135.749 45.5986 133.36 45.5986C130.971 45.5986 129.067 46.3453 127.648 47.8386C126.267 49.2946 125.576 51.4039 125.576 54.1666V71.4146H119.192V40.5586H125.576V44.0866C126.621 42.8173 127.947 41.8279 129.552 41.1186C131.195 40.4093 132.931 40.0546 134.76 40.0546Z" fill="#333333"/>
<path d="M168.383 71.9186C165.471 71.9186 162.839 71.2653 160.487 69.9586C158.135 68.6146 156.287 66.7479 154.943 64.3586C153.599 61.9319 152.927 59.1319 152.927 55.9586C152.927 52.8226 153.618 50.0413 154.999 47.6146C156.38 45.1879 158.266 43.3213 160.655 42.0146C163.044 40.7079 165.714 40.0546 168.663 40.0546C171.612 40.0546 174.282 40.7079 176.671 42.0146C179.06 43.3213 180.946 45.1879 182.327 47.6146C183.708 50.0413 184.399 52.8226 184.399 55.9586C184.399 59.0946 183.69 61.8759 182.271 64.3026C180.852 66.7293 178.911 68.6146 176.447 69.9586C174.02 71.2653 171.332 71.9186 168.383 71.9186ZM168.383 66.3746C170.026 66.3746 171.556 65.9826 172.975 65.1986C174.431 64.4146 175.607 63.2386 176.503 61.6706C177.399 60.1026 177.847 58.1986 177.847 55.9586C177.847 53.7186 177.418 51.8333 176.559 50.3026C175.7 48.7346 174.562 47.5586 173.143 46.7746C171.724 45.9906 170.194 45.5986 168.551 45.5986C166.908 45.5986 165.378 45.9906 163.959 46.7746C162.578 47.5586 161.476 48.7346 160.655 50.3026C159.834 51.8333 159.423 53.7186 159.423 55.9586C159.423 59.2813 160.263 61.8573 161.943 63.6866C163.66 65.4786 165.807 66.3746 168.383 66.3746Z" fill="#333333"/>
<path d="M188.022 55.8466C188.022 52.7479 188.657 50.0039 189.926 47.6146C191.233 45.2253 192.987 43.3773 195.19 42.0706C197.43 40.7266 199.913 40.0546 202.638 40.0546C204.654 40.0546 206.633 40.5026 208.574 41.3986C210.553 42.2573 212.121 43.4146 213.278 44.8706V29.9746H219.718V71.4146H213.278V66.7666C212.233 68.2599 210.777 69.4919 208.91 70.4626C207.081 71.4333 204.971 71.9186 202.582 71.9186C199.894 71.9186 197.43 71.2466 195.19 69.9026C192.987 68.5213 191.233 66.6173 189.926 64.1906C188.657 61.7266 188.022 58.9453 188.022 55.8466ZM213.278 55.9586C213.278 53.8306 212.83 51.9826 211.934 50.4146C211.075 48.8466 209.937 47.6519 208.518 46.8306C207.099 46.0093 205.569 45.5986 203.926 45.5986C202.283 45.5986 200.753 46.0093 199.334 46.8306C197.915 47.6146 196.758 48.7906 195.862 50.3586C195.003 51.8893 194.574 53.7186 194.574 55.8466C194.574 57.9746 195.003 59.8413 195.862 61.4466C196.758 63.0519 197.915 64.2839 199.334 65.1426C200.79 65.9639 202.321 66.3746 203.926 66.3746C205.569 66.3746 207.099 65.9639 208.518 65.1426C209.937 64.3213 211.075 63.1266 211.934 61.5586C212.83 59.9533 213.278 58.0866 213.278 55.9586Z" fill="#333333"/>
<path d="M255.823 55.2306C255.823 56.3879 255.748 57.4333 255.599 58.3666H232.023C232.21 60.8306 233.124 62.8093 234.767 64.3026C236.41 65.7959 238.426 66.5426 240.815 66.5426C244.25 66.5426 246.676 65.1053 248.095 62.2306H254.983C254.05 65.0679 252.351 67.4013 249.887 69.2306C247.46 71.0226 244.436 71.9186 240.815 71.9186C237.866 71.9186 235.215 71.2653 232.863 69.9586C230.548 68.6146 228.719 66.7479 227.375 64.3586C226.068 61.9319 225.415 59.1319 225.415 55.9586C225.415 52.7853 226.05 50.0039 227.319 47.6146C228.626 45.1879 230.436 43.3213 232.751 42.0146C235.103 40.7079 237.791 40.0546 240.815 40.0546C243.727 40.0546 246.322 40.6893 248.599 41.9586C250.876 43.2279 252.65 45.0199 253.919 47.3346C255.188 49.6119 255.823 52.2439 255.823 55.2306ZM249.159 53.2146C249.122 50.8626 248.282 48.9773 246.639 47.5586C244.996 46.1399 242.962 45.4306 240.535 45.4306C238.332 45.4306 236.447 46.1399 234.879 47.5586C233.311 48.9399 232.378 50.8253 232.079 53.2146H249.159Z" fill="#333333"/>
<path d="M267.93 29.9746V71.4146H261.546V29.9746H267.93Z" fill="#333333"/>
<path d="M304.031 55.2306C304.031 56.3879 303.957 57.4333 303.807 58.3666H280.231C280.418 60.8306 281.333 62.8093 282.975 64.3026C284.618 65.7959 286.634 66.5426 289.023 66.5426C292.458 66.5426 294.885 65.1053 296.303 62.2306H303.191C302.258 65.0679 300.559 67.4013 298.095 69.2306C295.669 71.0226 292.645 71.9186 289.023 71.9186C286.074 71.9186 283.423 71.2653 281.071 69.9586C278.757 68.6146 276.927 66.7479 275.583 64.3586C274.277 61.9319 273.623 59.1319 273.623 55.9586C273.623 52.7853 274.258 50.0039 275.527 47.6146C276.834 45.1879 278.645 43.3213 280.959 42.0146C283.311 40.7079 285.999 40.0546 289.023 40.0546C291.935 40.0546 294.53 40.6893 296.807 41.9586C299.085 43.2279 300.858 45.0199 302.127 47.3346C303.397 49.6119 304.031 52.2439 304.031 55.2306ZM297.367 53.2146C297.33 50.8626 296.49 48.9773 294.847 47.5586C293.205 46.1399 291.17 45.4306 288.743 45.4306C286.541 45.4306 284.655 46.1399 283.087 47.5586C281.519 48.9399 280.586 50.8253 280.287 53.2146H297.367Z" fill="#333333"/>
<path d="M320.954 71.9186C318.527 71.9186 316.343 71.4893 314.402 70.6306C312.498 69.7346 310.986 68.5399 309.866 67.0466C308.746 65.5159 308.148 63.8173 308.074 61.9506H314.682C314.794 63.2573 315.41 64.3586 316.53 65.2546C317.687 66.1133 319.124 66.5426 320.842 66.5426C322.634 66.5426 324.015 66.2066 324.986 65.5346C325.994 64.8253 326.498 63.9293 326.498 62.8466C326.498 61.6893 325.938 60.8306 324.818 60.2706C323.735 59.7106 321.999 59.0946 319.61 58.4226C317.295 57.7879 315.41 57.1719 313.954 56.5746C312.498 55.9773 311.228 55.0626 310.146 53.8306C309.1 52.5986 308.578 50.9746 308.578 48.9586C308.578 47.3159 309.063 45.8226 310.034 44.4786C311.004 43.0973 312.386 42.0146 314.178 41.2306C316.007 40.4466 318.098 40.0546 320.45 40.0546C323.959 40.0546 326.778 40.9506 328.906 42.7426C331.071 44.4973 332.228 46.9053 332.378 49.9666H325.994C325.882 48.5853 325.322 47.4839 324.314 46.6626C323.306 45.8413 321.943 45.4306 320.226 45.4306C318.546 45.4306 317.258 45.7479 316.362 46.3826C315.466 47.0173 315.018 47.8573 315.018 48.9026C315.018 49.7239 315.316 50.4146 315.914 50.9746C316.511 51.5346 317.239 51.9826 318.098 52.3186C318.956 52.6173 320.226 53.0093 321.906 53.4946C324.146 54.0919 325.975 54.7079 327.394 55.3426C328.85 55.9399 330.1 56.8359 331.146 58.0306C332.191 59.2253 332.732 60.8119 332.77 62.7906C332.77 64.5453 332.284 66.1133 331.314 67.4946C330.343 68.8759 328.962 69.9586 327.17 70.7426C325.415 71.5266 323.343 71.9186 320.954 71.9186Z" fill="#333333"/>
<path d="M350.308 71.9186C347.881 71.9186 345.697 71.4893 343.756 70.6306C341.852 69.7346 340.34 68.5399 339.22 67.0466C338.1 65.5159 337.503 63.8173 337.428 61.9506H344.036C344.148 63.2573 344.764 64.3586 345.884 65.2546C347.041 66.1133 348.478 66.5426 350.196 66.5426C351.988 66.5426 353.369 66.2066 354.34 65.5346C355.348 64.8253 355.852 63.9293 355.852 62.8466C355.852 61.6893 355.292 60.8306 354.172 60.2706C353.089 59.7106 351.353 59.0946 348.964 58.4226C346.649 57.7879 344.764 57.1719 343.308 56.5746C341.852 55.9773 340.582 55.0626 339.5 53.8306C338.454 52.5986 337.932 50.9746 337.932 48.9586C337.932 47.3159 338.417 45.8226 339.388 44.4786C340.358 43.0973 341.74 42.0146 343.532 41.2306C345.361 40.4466 347.452 40.0546 349.804 40.0546C353.313 40.0546 356.132 40.9506 358.26 42.7426C360.425 44.4973 361.583 46.9053 361.732 49.9666H355.348C355.236 48.5853 354.676 47.4839 353.668 46.6626C352.66 45.8413 351.297 45.4306 349.58 45.4306C347.9 45.4306 346.612 45.7479 345.716 46.3826C344.82 47.0173 344.372 47.8573 344.372 48.9026C344.372 49.7239 344.671 50.4146 345.268 50.9746C345.865 51.5346 346.593 51.9826 347.452 52.3186C348.31 52.6173 349.58 53.0093 351.26 53.4946C353.5 54.0919 355.329 54.7079 356.748 55.3426C358.204 55.9399 359.454 56.8359 360.5 58.0306C361.545 59.2253 362.087 60.8119 362.124 62.7906C362.124 64.5453 361.638 66.1133 360.668 67.4946C359.697 68.8759 358.316 69.9586 356.524 70.7426C354.769 71.5266 352.697 71.9186 350.308 71.9186Z" fill="#333333"/>
<path fill-rule="evenodd" clip-rule="evenodd" d="M32.685 29.2101C31.4802 31.1542 30.9802 32.908 30.98 34.0218C30.98 34.0219 30.98 34.0217 30.98 34.0218L30.9806 68.6099C30.9804 70.8915 32.4967 74.1942 35.6153 76.6973C38.6177 79.1071 42.9089 80.5934 48.1408 79.5055C48.5375 79.423 49.5533 78.9287 51.2835 77.5837C52.895 76.3311 54.7848 74.6187 56.8675 72.6113C58.9424 70.6113 61.1493 68.3769 63.3998 66.0958L63.55 65.9436C65.741 63.7228 67.9702 61.4633 70.1044 59.3958C71.2944 58.2429 73.1936 58.273 74.3465 59.463C75.4994 60.653 75.4693 62.5522 74.2793 63.7051C72.1946 65.7247 70.0067 67.9423 67.7983 70.1807L67.6709 70.3098C65.4306 72.5805 63.1701 74.8698 61.0314 76.9312C58.9005 78.9851 56.8304 80.8716 54.9658 82.3209C53.2201 83.6779 51.2437 84.9886 49.3623 85.3799C42.2517 86.8584 36.1572 84.8259 31.8596 81.3765C27.6783 78.0204 24.9803 73.1234 24.9806 68.61C24.9806 68.6099 24.9806 68.6101 24.9806 68.61L24.98 34.0219C24.9802 31.4345 26.0136 28.585 27.585 26.0495C29.1854 23.467 31.4988 20.9537 34.392 19.0867C37.3009 17.2095 40.8387 15.9618 44.8115 16.03C48.7973 16.0984 53.0043 17.4876 57.2407 20.5363C58.5856 21.5041 58.8912 23.3788 57.9234 24.7237C56.9557 26.0685 55.0809 26.3741 53.7361 25.4064C50.3515 22.9707 47.3095 22.0737 44.7086 22.0291C42.0947 21.9843 39.7082 22.7968 37.6453 24.1281C35.5667 25.4695 33.8609 27.3127 32.685 29.2101Z" fill="#992098"/>
<path fill-rule="evenodd" clip-rule="evenodd" d="M87.4868 72.6844C88.6916 70.7404 89.1917 68.9866 89.1919 67.8727C89.1919 67.8726 89.1919 67.8728 89.1919 67.8727L89.1913 33.2846C89.1915 31.003 87.6752 27.7003 84.5566 25.1972C81.5542 22.7874 77.2629 21.3011 72.031 22.389C71.6344 22.4715 70.6186 22.9658 68.8883 24.3108C67.2768 25.5634 65.3871 27.2758 63.3043 29.2833C61.2294 31.2832 59.0226 33.5177 56.7721 35.7987L56.6218 35.951C54.4308 38.1717 52.2016 40.4312 50.0675 42.4988C48.8775 43.6516 46.9782 43.6215 45.8254 42.4315C44.6725 41.2416 44.7026 39.3423 45.8926 38.1894C47.9773 36.1698 50.1652 33.9522 52.3736 31.7138L52.5009 31.5847C54.7413 29.314 57.0018 27.0247 59.1405 24.9633C61.2713 22.9095 63.3415 21.023 65.206 19.5736C66.9518 18.2166 68.9281 16.9059 70.8095 16.5147C77.9201 15.0361 84.0147 17.0687 88.3123 20.518C92.4936 23.8741 95.1915 28.7712 95.1913 33.2845C95.1913 33.2846 95.1913 33.2844 95.1913 33.2845L95.1919 67.8726C95.1917 70.46 94.1583 73.3095 92.5869 75.8451C90.9864 78.4275 88.673 80.9409 85.7799 82.8079C82.871 84.6851 79.3332 85.9327 75.3604 85.8645C71.3746 85.7962 67.1676 84.4069 62.9311 81.3582C61.5863 80.3904 61.2806 78.5157 62.2484 77.1709C63.2162 75.826 65.0909 75.5204 66.4358 76.4882C69.8204 78.9238 72.8623 79.8208 75.4633 79.8654C78.0772 79.9103 80.4637 79.0977 82.5266 77.7665C84.6052 76.4251 86.311 74.5818 87.4868 72.6844Z" fill="#FD7014"/>
<path fill-rule="evenodd" clip-rule="evenodd" d="M71.4268 45.1836C74.9287 45.1836 77.7676 42.3447 77.7676 38.8428C77.7676 35.3408 74.9287 32.502 71.4268 32.502C67.9248 32.502 65.0859 35.3408 65.0859 38.8428C65.0859 39.6004 65.2188 40.327 65.4625 41.0005C65.4083 41.0464 65.3554 41.0945 65.3038 41.1448L51.8642 54.2527C51.6864 54.4261 51.5348 54.6162 51.4093 54.818C50.7856 54.6129 50.1191 54.502 49.4268 54.502C45.9248 54.502 43.0859 57.3408 43.0859 60.8428C43.0859 64.3447 45.9248 67.1836 49.4268 67.1836C52.9287 67.1836 55.7676 64.3447 55.7676 60.8428C55.7676 60.1949 55.6704 59.5698 55.4899 58.9811C55.6901 58.8621 55.8795 58.7178 56.0535 58.548L69.4931 45.4401C69.6362 45.3005 69.7624 45.1501 69.8716 44.9915C70.3692 45.117 70.8902 45.1836 71.4268 45.1836Z" fill="url(#paint0_linear_599_6872)"/>
<defs>
<linearGradient id="paint0_linear_599_6872" x1="44.9763" y1="63.5248" x2="73.5236" y2="34.3635" gradientUnits="userSpaceOnUse">
<stop stop-color="#911F8E"/>
<stop offset="1" stop-color="#FD7014"/>
</linearGradient>
</defs>
</svg>
