<?xml version="1.0" encoding="utf-8"?>
<!-- Generator: Adobe Illustrator 23.0.6, SVG Export Plug-In . SVG Version: 6.00 Build 0)  -->
<svg version="1.1" id="Layer_1" xmlns="http://www.w3.org/2000/svg" xmlns:xlink="http://www.w3.org/1999/xlink" x="0px" y="0px"
	 viewBox="0 0 800 600" style="enable-background:new 0 0 800 600;" xml:space="preserve">
<style type="text/css">
	.st0{fill:#333333;}
	.st1{fill-rule:evenodd;clip-rule:evenodd;fill:#992098;}
	.st2{fill-rule:evenodd;clip-rule:evenodd;fill:#FD7014;}
	.st3{fill-rule:evenodd;clip-rule:evenodd;fill:url(#SVGID_1_);}
	.st4{fill:none;stroke:#992098;stroke-width:22;stroke-linecap:round;stroke-linejoin:bevel;stroke-miterlimit:10;}
	.st5{fill:none;stroke:#000000;stroke-width:12;stroke-miterlimit:10;}
	.st6{fill:none;stroke:#000000;stroke-width:12;stroke-linecap:round;stroke-miterlimit:10;}
	.st7{fill:none;stroke:#FD7014;stroke-width:20;stroke-linecap:round;stroke-miterlimit:10;}
	.st8{fill:none;stroke:#000000;stroke-width:26;stroke-miterlimit:10;}
	.st9{fill:none;stroke:#000000;stroke-width:26;stroke-linecap:round;stroke-miterlimit:10;}
	.st10{fill:none;stroke:#FD7014;stroke-width:25;stroke-linecap:round;stroke-miterlimit:10;}
	.st11{fill:none;stroke:#000000;stroke-width:15;stroke-linecap:round;stroke-linejoin:round;stroke-miterlimit:10;}
	.st12{fill:#FFFFFF;stroke:#000000;stroke-width:22;stroke-miterlimit:10;}
	.st13{fill:none;stroke:#000000;stroke-width:22;stroke-miterlimit:10;}
	.st14{fill:none;stroke:#000000;stroke-width:22;stroke-linecap:round;stroke-miterlimit:10;}
	.st15{fill:url(#SVGID_2_);}
	.st16{fill:none;stroke:#992098;stroke-width:18;stroke-linecap:round;stroke-linejoin:bevel;stroke-miterlimit:10;}
	.st17{fill:url(#SVGID_3_);}
	.st18{fill:#F3F3F3;stroke:#333333;stroke-width:9;stroke-linecap:round;stroke-linejoin:round;stroke-miterlimit:10;}
	.st19{fill:#FFFFFF;stroke:#333333;stroke-width:9;stroke-linecap:round;stroke-linejoin:round;stroke-miterlimit:10;}
	.st20{fill:none;stroke:#333333;stroke-width:9;stroke-linecap:round;stroke-linejoin:round;stroke-miterlimit:10;}
	.st21{fill:none;stroke:#FD7014;stroke-width:13;stroke-linecap:round;stroke-miterlimit:10;}
	.st22{fill:none;stroke:#333333;stroke-width:10;stroke-linecap:round;stroke-linejoin:round;stroke-miterlimit:10;}
	.st23{fill:none;stroke:#992098;stroke-width:13;stroke-linecap:round;stroke-linejoin:bevel;stroke-miterlimit:10;}
	.st24{fill:#FFFFFF;}
	.st25{fill-rule:evenodd;clip-rule:evenodd;fill:url(#SVGID_4_);}
	.st26{fill:none;stroke:url(#SVGID_5_);stroke-width:47;stroke-linecap:round;stroke-linejoin:round;stroke-miterlimit:10;}
	.st27{fill:none;stroke:url(#SVGID_6_);stroke-width:47;stroke-linecap:round;stroke-linejoin:round;stroke-miterlimit:10;}
	.st28{fill:none;stroke:#992098;stroke-width:9;stroke-linecap:round;stroke-linejoin:round;stroke-miterlimit:10;}
	.st29{fill:url(#SVGID_7_);}
	.st30{fill:#F3F3F3;stroke:#333333;stroke-width:7;stroke-linecap:round;stroke-linejoin:round;stroke-miterlimit:10;}
	.st31{fill:#FFFFFF;stroke:#333333;stroke-width:7;stroke-linecap:round;stroke-linejoin:round;stroke-miterlimit:10;}
	.st32{fill:none;stroke:#333333;stroke-width:7;stroke-linecap:round;stroke-linejoin:round;stroke-miterlimit:10;}
	.st33{fill:none;stroke:#FD7014;stroke-width:7;stroke-linecap:round;stroke-miterlimit:10;}
	.st34{opacity:0.3;}
	.st35{clip-path:url(#SVGID_9_);fill:#992098;}
	.st36{fill:#F3F3F3;}
	.st37{clip-path:url(#SVGID_11_);fill:#DD5838;}
	.st38{clip-path:url(#SVGID_11_);fill:#DE5937;}
	.st39{clip-path:url(#SVGID_11_);fill:#DF5A36;}
	.st40{clip-path:url(#SVGID_11_);fill:#E05A35;}
	.st41{clip-path:url(#SVGID_11_);fill:#E15B34;}
	.st42{clip-path:url(#SVGID_11_);fill:#E25C32;}
	.st43{clip-path:url(#SVGID_11_);fill:#E35C31;}
	.st44{clip-path:url(#SVGID_11_);fill:#E45D30;}
	.st45{clip-path:url(#SVGID_11_);fill:#E55E2F;}
	.st46{clip-path:url(#SVGID_11_);fill:#E65F2E;}
	.st47{clip-path:url(#SVGID_11_);fill:#E75F2D;}
	.st48{clip-path:url(#SVGID_11_);fill:#E7602C;}
	.st49{clip-path:url(#SVGID_11_);fill:#E8602B;}
	.st50{clip-path:url(#SVGID_11_);fill:#E9612A;}
	.st51{clip-path:url(#SVGID_11_);fill:#EA622A;}
	.st52{clip-path:url(#SVGID_11_);fill:#EB6229;}
	.st53{clip-path:url(#SVGID_11_);fill:#EB6328;}
	.st54{clip-path:url(#SVGID_11_);fill:#EC6327;}
	.st55{clip-path:url(#SVGID_11_);fill:#ED6426;}
	.st56{clip-path:url(#SVGID_11_);fill:#EE6425;}
	.st57{clip-path:url(#SVGID_11_);fill:#EE6525;}
	.st58{clip-path:url(#SVGID_11_);fill:#EF6524;}
	.st59{clip-path:url(#SVGID_11_);fill:#F06623;}
	.st60{clip-path:url(#SVGID_11_);fill:#F06622;}
	.st61{clip-path:url(#SVGID_11_);fill:#F16722;}
	.st62{clip-path:url(#SVGID_11_);fill:#F16721;}
	.st63{clip-path:url(#SVGID_11_);fill:#F26820;}
	.st64{clip-path:url(#SVGID_11_);fill:#F36820;}
	.st65{clip-path:url(#SVGID_11_);fill:#F3691F;}
	.st66{clip-path:url(#SVGID_11_);fill:#F4691F;}
	.st67{clip-path:url(#SVGID_11_);fill:#F4691E;}
	.st68{clip-path:url(#SVGID_11_);fill:#F56A1D;}
	.st69{clip-path:url(#SVGID_11_);fill:#F66A1C;}
	.st70{clip-path:url(#SVGID_11_);fill:#F66B1C;}
	.st71{clip-path:url(#SVGID_11_);fill:#F66B1B;}
	.st72{clip-path:url(#SVGID_11_);fill:#F76B1B;}
	.st73{clip-path:url(#SVGID_11_);fill:#F76C1B;}
	.st74{clip-path:url(#SVGID_11_);fill:#F86C1A;}
	.st75{clip-path:url(#SVGID_11_);fill:#F86C19;}
	.st76{clip-path:url(#SVGID_11_);fill:#F96D19;}
	.st77{clip-path:url(#SVGID_11_);fill:#F96D18;}
	.st78{clip-path:url(#SVGID_11_);fill:#FA6D18;}
	.st79{clip-path:url(#SVGID_11_);fill:#FA6E18;}
	.st80{clip-path:url(#SVGID_11_);fill:#FA6E17;}
	.st81{clip-path:url(#SVGID_11_);fill:#FB6E17;}
	.st82{clip-path:url(#SVGID_11_);fill:#FB6E16;}
	.st83{clip-path:url(#SVGID_11_);fill:#FB6F16;}
	.st84{clip-path:url(#SVGID_11_);fill:#FC6F16;}
	.st85{clip-path:url(#SVGID_11_);fill:#FC6F15;}
	.st86{clip-path:url(#SVGID_11_);fill:#FC7015;}
	.st87{clip-path:url(#SVGID_11_);fill:#FD7014;}
	.st88{clip-path:url(#SVGID_11_);fill:#B83C62;}
	.st89{clip-path:url(#SVGID_11_);fill:#BA3D60;}
	.st90{clip-path:url(#SVGID_11_);fill:#BB3F5E;}
	.st91{clip-path:url(#SVGID_11_);fill:#BD405C;}
	.st92{clip-path:url(#SVGID_11_);fill:#BE415B;}
	.st93{clip-path:url(#SVGID_11_);fill:#C04259;}
	.st94{clip-path:url(#SVGID_11_);fill:#C24357;}
	.st95{clip-path:url(#SVGID_11_);fill:#C34555;}
	.st96{clip-path:url(#SVGID_11_);fill:#C54654;}
	.st97{clip-path:url(#SVGID_11_);fill:#C64752;}
	.st98{clip-path:url(#SVGID_11_);fill:#C84850;}
	.st99{clip-path:url(#SVGID_11_);fill:#C9494F;}
	.st100{clip-path:url(#SVGID_11_);fill:#CA4A4D;}
	.st101{clip-path:url(#SVGID_11_);fill:#CC4B4C;}
	.st102{clip-path:url(#SVGID_11_);fill:#CD4C4A;}
	.st103{clip-path:url(#SVGID_11_);fill:#CF4D48;}
	.st104{clip-path:url(#SVGID_11_);fill:#D04E47;}
	.st105{clip-path:url(#SVGID_11_);fill:#D14F46;}
	.st106{clip-path:url(#SVGID_11_);fill:#D25044;}
	.st107{clip-path:url(#SVGID_11_);fill:#D45143;}
	.st108{clip-path:url(#SVGID_11_);fill:#D55241;}
	.st109{clip-path:url(#SVGID_11_);fill:#D65340;}
	.st110{clip-path:url(#SVGID_11_);fill:#D7543F;}
	.st111{clip-path:url(#SVGID_11_);fill:#D8553D;}
	.st112{clip-path:url(#SVGID_11_);fill:#DA553C;}
	.st113{clip-path:url(#SVGID_11_);fill:#DB563B;}
	.st114{clip-path:url(#SVGID_11_);fill:#DC5739;}
	.st115{clip-path:url(#SVGID_11_);fill:#911F8E;}
	.st116{clip-path:url(#SVGID_11_);fill:#93218C;}
	.st117{clip-path:url(#SVGID_11_);fill:#952289;}
	.st118{clip-path:url(#SVGID_11_);fill:#972487;}
	.st119{clip-path:url(#SVGID_11_);fill:#9A2584;}
	.st120{clip-path:url(#SVGID_11_);fill:#9C2782;}
	.st121{clip-path:url(#SVGID_11_);fill:#9E2980;}
	.st122{clip-path:url(#SVGID_11_);fill:#A02A7D;}
	.st123{clip-path:url(#SVGID_11_);fill:#A22C7B;}
	.st124{clip-path:url(#SVGID_11_);fill:#A42D79;}
	.st125{clip-path:url(#SVGID_11_);fill:#A62F77;}
	.st126{clip-path:url(#SVGID_11_);fill:#A83074;}
	.st127{clip-path:url(#SVGID_11_);fill:#AA3172;}
	.st128{clip-path:url(#SVGID_11_);fill:#AB3370;}
	.st129{clip-path:url(#SVGID_11_);fill:#AD346E;}
	.st130{clip-path:url(#SVGID_11_);fill:#AF366C;}
	.st131{clip-path:url(#SVGID_11_);fill:#B1376A;}
	.st132{clip-path:url(#SVGID_11_);fill:#B33868;}
	.st133{clip-path:url(#SVGID_11_);fill:#B43A66;}
	.st134{clip-path:url(#SVGID_11_);fill:#B63B64;}
	.st135{fill:#992098;}
	.st136{fill:none;stroke:#FD7014;stroke-width:9;stroke-linecap:round;stroke-linejoin:round;stroke-miterlimit:10;}
	.st137{fill:none;stroke:#992098;stroke-width:20.9921;stroke-linecap:round;stroke-linejoin:round;stroke-miterlimit:10;}
	.st138{fill:none;stroke:#FD7014;stroke-width:12;stroke-linecap:round;stroke-linejoin:round;stroke-miterlimit:10;}
	.st139{fill:none;stroke:#992098;stroke-width:12;stroke-linecap:round;stroke-linejoin:round;stroke-miterlimit:10;}
	.st140{fill:#FD7014;}
	.st141{fill:none;stroke:url(#SVGID_12_);stroke-width:20.9921;stroke-linecap:round;stroke-linejoin:round;stroke-miterlimit:10;}
	.st142{fill:none;stroke:url(#SVGID_13_);stroke-width:14;stroke-linecap:round;stroke-linejoin:round;stroke-miterlimit:10;}
	.st143{fill:none;stroke:#992098;stroke-width:14;stroke-linecap:round;stroke-linejoin:round;stroke-miterlimit:10;}
	.st144{fill:none;stroke:#F3F3F3;stroke-width:7;stroke-linecap:round;stroke-linejoin:round;stroke-miterlimit:10;}
	.st145{fill:none;stroke:url(#SVGID_14_);stroke-width:13;stroke-linecap:round;stroke-linejoin:round;stroke-miterlimit:10;}
	.st146{fill:none;stroke:#FD7014;stroke-width:4;stroke-miterlimit:10;}
	.st147{fill:url(#SVGID_15_);}
	.st148{fill:none;stroke:url(#SVGID_16_);stroke-width:13;stroke-linecap:round;stroke-linejoin:round;stroke-miterlimit:10;}
	.st149{fill:#FFFFFF;stroke:url(#SVGID_17_);stroke-width:7;stroke-linecap:round;stroke-linejoin:round;stroke-miterlimit:10;}
	.st150{fill:none;stroke:#333333;stroke-width:6;stroke-linecap:round;stroke-linejoin:round;stroke-miterlimit:10;}
	.st151{fill:none;stroke:#992098;stroke-width:10;stroke-linecap:round;stroke-linejoin:round;stroke-miterlimit:10;}
	.st152{fill:none;stroke:#FD7014;stroke-width:10;stroke-linecap:round;stroke-linejoin:round;stroke-miterlimit:10;}
	.st153{fill:none;stroke:url(#SVGID_18_);stroke-width:10;stroke-linecap:round;stroke-linejoin:round;stroke-miterlimit:10;}
	.st154{fill:none;stroke:url(#SVGID_19_);stroke-width:10;stroke-linecap:round;stroke-linejoin:round;stroke-miterlimit:10;}
	.st155{fill:none;stroke:url(#SVGID_20_);stroke-width:10;stroke-linecap:round;stroke-linejoin:round;stroke-miterlimit:10;}
	.st156{fill:none;stroke:url(#SVGID_21_);stroke-width:10;stroke-linecap:round;stroke-linejoin:round;stroke-miterlimit:10;}
	.st157{fill:none;stroke:#000000;stroke-width:7;stroke-linecap:round;stroke-linejoin:round;stroke-miterlimit:10;}
	.st158{fill:url(#SVGID_22_);}
	.st159{fill:none;stroke:url(#SVGID_23_);stroke-width:4;stroke-miterlimit:10;}
	.st160{fill:none;stroke:url(#SVGID_24_);stroke-width:4;stroke-miterlimit:10;}
	.st161{fill:#F9FBFF;}
	.st162{fill:none;stroke:#F3F3F3;stroke-width:8;stroke-linecap:round;stroke-linejoin:round;stroke-miterlimit:10;}
	.st163{fill:none;stroke:#333333;stroke-width:8;stroke-linecap:round;stroke-linejoin:round;stroke-miterlimit:10;}
	.st164{fill:url(#SVGID_25_);}
	.st165{fill:url(#SVGID_26_);}
	.st166{fill:url(#SVGID_27_);}
	.st167{fill:url(#SVGID_28_);}
	.st168{fill:url(#SVGID_29_);}
	.st169{fill:url(#SVGID_30_);}
	.st170{fill:url(#SVGID_31_);}
	.st171{fill:url(#SVGID_32_);}
	.st172{fill:none;stroke:url(#SVGID_33_);stroke-width:12;stroke-linecap:round;stroke-linejoin:round;stroke-miterlimit:10;}
	.st173{fill:none;stroke:url(#SVGID_34_);stroke-width:12;stroke-linecap:round;stroke-linejoin:round;stroke-miterlimit:10;}
	.st174{fill:none;stroke:url(#SVGID_35_);stroke-width:12;stroke-linecap:round;stroke-linejoin:round;stroke-miterlimit:10;}
	.st175{fill:none;stroke:url(#SVGID_36_);stroke-width:12;stroke-linecap:round;stroke-linejoin:round;stroke-miterlimit:10;}
	.st176{fill:none;stroke:url(#SVGID_37_);stroke-width:12;stroke-linecap:round;stroke-linejoin:round;stroke-miterlimit:10;}
	.st177{fill:none;stroke:url(#SVGID_38_);stroke-width:12;stroke-linecap:round;stroke-linejoin:round;stroke-miterlimit:10;}
	.st178{fill:none;stroke:url(#SVGID_39_);stroke-width:12;stroke-linecap:round;stroke-linejoin:round;stroke-miterlimit:10;}
	.st179{fill:none;stroke:url(#SVGID_40_);stroke-width:12;stroke-linecap:round;stroke-linejoin:round;stroke-miterlimit:10;}
	.st180{fill:none;stroke:#333333;stroke-width:7;stroke-miterlimit:10;}
	.st181{fill:none;stroke:url(#SVGID_41_);stroke-width:12;stroke-linecap:round;stroke-linejoin:round;stroke-miterlimit:10;}
	.st182{fill:url(#SVGID_42_);}
	.st183{clip-path:url(#SVGID_44_);fill:#911F8E;}
	.st184{clip-path:url(#SVGID_44_);fill:#93218C;}
	.st185{clip-path:url(#SVGID_44_);fill:#952289;}
	.st186{clip-path:url(#SVGID_44_);fill:#972487;}
	.st187{clip-path:url(#SVGID_44_);fill:#9A2584;}
	.st188{clip-path:url(#SVGID_44_);fill:#9C2782;}
	.st189{clip-path:url(#SVGID_44_);fill:#9E2980;}
	.st190{clip-path:url(#SVGID_44_);fill:#A02A7D;}
	.st191{clip-path:url(#SVGID_44_);fill:#A22C7B;}
	.st192{clip-path:url(#SVGID_44_);fill:#A42D79;}
	.st193{clip-path:url(#SVGID_44_);fill:#A62F77;}
	.st194{clip-path:url(#SVGID_44_);fill:#A83074;}
	.st195{clip-path:url(#SVGID_44_);fill:#AA3172;}
	.st196{clip-path:url(#SVGID_44_);fill:#AB3370;}
	.st197{clip-path:url(#SVGID_44_);fill:#AD346E;}
	.st198{clip-path:url(#SVGID_44_);fill:#AF366C;}
	.st199{clip-path:url(#SVGID_44_);fill:#B1376A;}
	.st200{clip-path:url(#SVGID_44_);fill:#B33868;}
	.st201{clip-path:url(#SVGID_44_);fill:#B43A66;}
	.st202{clip-path:url(#SVGID_44_);fill:#B63B64;}
	.st203{clip-path:url(#SVGID_44_);fill:#B83C62;}
	.st204{clip-path:url(#SVGID_44_);fill:#BA3D60;}
	.st205{clip-path:url(#SVGID_44_);fill:#BB3F5E;}
	.st206{clip-path:url(#SVGID_44_);fill:#BD405C;}
	.st207{clip-path:url(#SVGID_44_);fill:#BE415B;}
	.st208{clip-path:url(#SVGID_44_);fill:#C04259;}
	.st209{clip-path:url(#SVGID_44_);fill:#C24357;}
	.st210{clip-path:url(#SVGID_44_);fill:#C34555;}
	.st211{clip-path:url(#SVGID_44_);fill:#C54654;}
	.st212{clip-path:url(#SVGID_44_);fill:#C64752;}
	.st213{clip-path:url(#SVGID_44_);fill:#C84850;}
	.st214{clip-path:url(#SVGID_44_);fill:#C9494F;}
	.st215{clip-path:url(#SVGID_44_);fill:#CA4A4D;}
	.st216{clip-path:url(#SVGID_44_);fill:#CC4B4C;}
	.st217{clip-path:url(#SVGID_44_);fill:#CD4C4A;}
	.st218{clip-path:url(#SVGID_44_);fill:#CF4D48;}
	.st219{clip-path:url(#SVGID_44_);fill:#D04E47;}
	.st220{clip-path:url(#SVGID_44_);fill:#D14F46;}
	.st221{clip-path:url(#SVGID_44_);fill:#D25044;}
	.st222{clip-path:url(#SVGID_44_);fill:#D45143;}
	.st223{clip-path:url(#SVGID_44_);fill:#D55241;}
	.st224{clip-path:url(#SVGID_44_);fill:#D65340;}
	.st225{clip-path:url(#SVGID_44_);fill:#D7543F;}
	.st226{clip-path:url(#SVGID_44_);fill:#D8553D;}
	.st227{clip-path:url(#SVGID_44_);fill:#DA553C;}
	.st228{clip-path:url(#SVGID_44_);fill:#DB563B;}
	.st229{clip-path:url(#SVGID_44_);fill:#DC5739;}
	.st230{clip-path:url(#SVGID_44_);fill:#DD5838;}
	.st231{clip-path:url(#SVGID_44_);fill:#DE5937;}
	.st232{clip-path:url(#SVGID_44_);fill:#DF5A36;}
	.st233{clip-path:url(#SVGID_44_);fill:#E05A35;}
	.st234{clip-path:url(#SVGID_44_);fill:#E15B34;}
	.st235{clip-path:url(#SVGID_44_);fill:#E25C32;}
	.st236{clip-path:url(#SVGID_44_);fill:#E35C31;}
	.st237{clip-path:url(#SVGID_44_);fill:#E45D30;}
	.st238{clip-path:url(#SVGID_44_);fill:#E55E2F;}
	.st239{clip-path:url(#SVGID_44_);fill:#E65F2E;}
	.st240{clip-path:url(#SVGID_44_);fill:#E75F2D;}
	.st241{clip-path:url(#SVGID_44_);fill:#E7602C;}
	.st242{clip-path:url(#SVGID_44_);fill:#E8602B;}
	.st243{clip-path:url(#SVGID_44_);fill:#E9612A;}
	.st244{clip-path:url(#SVGID_44_);fill:#EA622A;}
	.st245{clip-path:url(#SVGID_44_);fill:#EB6229;}
	.st246{clip-path:url(#SVGID_44_);fill:#EB6328;}
	.st247{clip-path:url(#SVGID_44_);fill:#EC6327;}
	.st248{clip-path:url(#SVGID_44_);fill:#ED6426;}
	.st249{clip-path:url(#SVGID_44_);fill:#EE6425;}
	.st250{clip-path:url(#SVGID_44_);fill:#EE6525;}
	.st251{clip-path:url(#SVGID_44_);fill:#EF6524;}
	.st252{clip-path:url(#SVGID_44_);fill:#F06623;}
	.st253{clip-path:url(#SVGID_44_);fill:#F06622;}
	.st254{clip-path:url(#SVGID_44_);fill:#F16722;}
	.st255{clip-path:url(#SVGID_44_);fill:#F16721;}
	.st256{clip-path:url(#SVGID_44_);fill:#F26820;}
	.st257{clip-path:url(#SVGID_44_);fill:#F36820;}
	.st258{clip-path:url(#SVGID_44_);fill:#F3691F;}
	.st259{clip-path:url(#SVGID_44_);fill:#F4691F;}
	.st260{clip-path:url(#SVGID_44_);fill:#F4691E;}
	.st261{clip-path:url(#SVGID_44_);fill:#F56A1D;}
	.st262{clip-path:url(#SVGID_44_);fill:#F66A1C;}
	.st263{clip-path:url(#SVGID_44_);fill:#F66B1C;}
	.st264{clip-path:url(#SVGID_44_);fill:#F66B1B;}
	.st265{clip-path:url(#SVGID_44_);fill:#F76B1B;}
	.st266{clip-path:url(#SVGID_44_);fill:#F76C1B;}
	.st267{clip-path:url(#SVGID_44_);fill:#F86C1A;}
	.st268{clip-path:url(#SVGID_44_);fill:#F86C19;}
	.st269{clip-path:url(#SVGID_44_);fill:#F96D19;}
	.st270{clip-path:url(#SVGID_44_);fill:#F96D18;}
	.st271{clip-path:url(#SVGID_44_);fill:#FA6D18;}
	.st272{clip-path:url(#SVGID_44_);fill:#FA6E18;}
	.st273{clip-path:url(#SVGID_44_);fill:#FA6E17;}
	.st274{clip-path:url(#SVGID_44_);fill:#FB6E17;}
	.st275{clip-path:url(#SVGID_44_);fill:#FB6E16;}
	.st276{clip-path:url(#SVGID_44_);fill:#FB6F16;}
	.st277{clip-path:url(#SVGID_44_);fill:#FC6F16;}
	.st278{clip-path:url(#SVGID_44_);fill:#FC6F15;}
	.st279{clip-path:url(#SVGID_44_);fill:#FC7015;}
	.st280{clip-path:url(#SVGID_44_);fill:#FD7014;}
	.st281{clip-path:url(#SVGID_46_);fill:#911F8E;}
	.st282{clip-path:url(#SVGID_46_);fill:#93218C;}
	.st283{clip-path:url(#SVGID_46_);fill:#952289;}
	.st284{clip-path:url(#SVGID_46_);fill:#972487;}
	.st285{clip-path:url(#SVGID_46_);fill:#9A2584;}
	.st286{clip-path:url(#SVGID_46_);fill:#9C2782;}
	.st287{clip-path:url(#SVGID_46_);fill:#9E2980;}
	.st288{clip-path:url(#SVGID_46_);fill:#A02A7D;}
	.st289{clip-path:url(#SVGID_46_);fill:#A22C7B;}
	.st290{clip-path:url(#SVGID_46_);fill:#A42D79;}
	.st291{clip-path:url(#SVGID_46_);fill:#A62F77;}
	.st292{clip-path:url(#SVGID_46_);fill:#A83074;}
	.st293{clip-path:url(#SVGID_46_);fill:#AA3172;}
	.st294{clip-path:url(#SVGID_46_);fill:#AB3370;}
	.st295{clip-path:url(#SVGID_46_);fill:#AD346E;}
	.st296{clip-path:url(#SVGID_46_);fill:#AF366C;}
	.st297{clip-path:url(#SVGID_46_);fill:#B1376A;}
	.st298{clip-path:url(#SVGID_46_);fill:#B33868;}
	.st299{clip-path:url(#SVGID_46_);fill:#B43A66;}
	.st300{clip-path:url(#SVGID_46_);fill:#B63B64;}
	.st301{clip-path:url(#SVGID_46_);fill:#B83C62;}
	.st302{clip-path:url(#SVGID_46_);fill:#BA3D60;}
	.st303{clip-path:url(#SVGID_46_);fill:#BB3F5E;}
	.st304{clip-path:url(#SVGID_46_);fill:#BD405C;}
	.st305{clip-path:url(#SVGID_46_);fill:#BE415B;}
	.st306{clip-path:url(#SVGID_46_);fill:#C04259;}
	.st307{clip-path:url(#SVGID_46_);fill:#C24357;}
	.st308{clip-path:url(#SVGID_46_);fill:#C34555;}
	.st309{clip-path:url(#SVGID_46_);fill:#C54654;}
	.st310{clip-path:url(#SVGID_46_);fill:#C64752;}
	.st311{clip-path:url(#SVGID_46_);fill:#C84850;}
	.st312{clip-path:url(#SVGID_46_);fill:#C9494F;}
	.st313{clip-path:url(#SVGID_46_);fill:#CA4A4D;}
	.st314{clip-path:url(#SVGID_46_);fill:#CC4B4C;}
	.st315{clip-path:url(#SVGID_46_);fill:#CD4C4A;}
	.st316{clip-path:url(#SVGID_46_);fill:#CF4D48;}
	.st317{clip-path:url(#SVGID_46_);fill:#D04E47;}
	.st318{clip-path:url(#SVGID_46_);fill:#D14F46;}
	.st319{clip-path:url(#SVGID_46_);fill:#D25044;}
	.st320{clip-path:url(#SVGID_46_);fill:#D45143;}
	.st321{clip-path:url(#SVGID_46_);fill:#D55241;}
	.st322{clip-path:url(#SVGID_46_);fill:#D65340;}
	.st323{clip-path:url(#SVGID_46_);fill:#D7543F;}
	.st324{clip-path:url(#SVGID_46_);fill:#D8553D;}
	.st325{clip-path:url(#SVGID_46_);fill:#DA553C;}
	.st326{clip-path:url(#SVGID_46_);fill:#DB563B;}
	.st327{clip-path:url(#SVGID_46_);fill:#DC5739;}
	.st328{clip-path:url(#SVGID_46_);fill:#DD5838;}
	.st329{clip-path:url(#SVGID_46_);fill:#DE5937;}
	.st330{clip-path:url(#SVGID_46_);fill:#DF5A36;}
	.st331{clip-path:url(#SVGID_46_);fill:#E05A35;}
	.st332{clip-path:url(#SVGID_46_);fill:#E15B34;}
	.st333{clip-path:url(#SVGID_46_);fill:#E25C32;}
	.st334{clip-path:url(#SVGID_46_);fill:#E35C31;}
	.st335{clip-path:url(#SVGID_46_);fill:#E45D30;}
	.st336{clip-path:url(#SVGID_46_);fill:#E55E2F;}
	.st337{clip-path:url(#SVGID_46_);fill:#E65F2E;}
	.st338{clip-path:url(#SVGID_46_);fill:#E75F2D;}
	.st339{clip-path:url(#SVGID_46_);fill:#E7602C;}
	.st340{clip-path:url(#SVGID_46_);fill:#E8602B;}
	.st341{clip-path:url(#SVGID_46_);fill:#E9612A;}
	.st342{clip-path:url(#SVGID_46_);fill:#EA622A;}
	.st343{clip-path:url(#SVGID_46_);fill:#EB6229;}
	.st344{clip-path:url(#SVGID_46_);fill:#EB6328;}
	.st345{clip-path:url(#SVGID_46_);fill:#EC6327;}
	.st346{clip-path:url(#SVGID_46_);fill:#ED6426;}
	.st347{clip-path:url(#SVGID_46_);fill:#EE6425;}
	.st348{clip-path:url(#SVGID_46_);fill:#EE6525;}
	.st349{clip-path:url(#SVGID_46_);fill:#EF6524;}
	.st350{clip-path:url(#SVGID_46_);fill:#F06623;}
	.st351{clip-path:url(#SVGID_46_);fill:#F06622;}
	.st352{clip-path:url(#SVGID_46_);fill:#F16722;}
	.st353{clip-path:url(#SVGID_46_);fill:#F16721;}
	.st354{clip-path:url(#SVGID_46_);fill:#F26820;}
	.st355{clip-path:url(#SVGID_46_);fill:#F36820;}
	.st356{clip-path:url(#SVGID_46_);fill:#F3691F;}
	.st357{clip-path:url(#SVGID_46_);fill:#F4691F;}
	.st358{clip-path:url(#SVGID_46_);fill:#F4691E;}
	.st359{clip-path:url(#SVGID_46_);fill:#F56A1D;}
	.st360{clip-path:url(#SVGID_46_);fill:#F66A1C;}
	.st361{clip-path:url(#SVGID_46_);fill:#F66B1C;}
	.st362{clip-path:url(#SVGID_46_);fill:#F66B1B;}
	.st363{clip-path:url(#SVGID_46_);fill:#F76B1B;}
	.st364{clip-path:url(#SVGID_46_);fill:#F76C1B;}
	.st365{clip-path:url(#SVGID_46_);fill:#F86C1A;}
	.st366{clip-path:url(#SVGID_46_);fill:#F86C19;}
	.st367{clip-path:url(#SVGID_46_);fill:#F96D19;}
	.st368{clip-path:url(#SVGID_46_);fill:#F96D18;}
	.st369{clip-path:url(#SVGID_46_);fill:#FA6D18;}
	.st370{clip-path:url(#SVGID_46_);fill:#FA6E18;}
	.st371{clip-path:url(#SVGID_46_);fill:#FA6E17;}
	.st372{clip-path:url(#SVGID_46_);fill:#FB6E17;}
	.st373{clip-path:url(#SVGID_46_);fill:#FB6E16;}
	.st374{clip-path:url(#SVGID_46_);fill:#FB6F16;}
	.st375{clip-path:url(#SVGID_46_);fill:#FC6F16;}
	.st376{clip-path:url(#SVGID_46_);fill:#FC6F15;}
	.st377{clip-path:url(#SVGID_46_);fill:#FC7015;}
	.st378{clip-path:url(#SVGID_46_);fill:#FD7014;}
	.st379{clip-path:url(#SVGID_48_);fill:#B63B64;}
	.st380{clip-path:url(#SVGID_48_);fill:#B73C63;}
	.st381{clip-path:url(#SVGID_48_);fill:#B93D61;}
	.st382{clip-path:url(#SVGID_48_);fill:#BA3D60;}
	.st383{clip-path:url(#SVGID_48_);fill:#BB3E5F;}
	.st384{clip-path:url(#SVGID_48_);fill:#BC3F5E;}
	.st385{clip-path:url(#SVGID_48_);fill:#BD405C;}
	.st386{clip-path:url(#SVGID_48_);fill:#BE415B;}
	.st387{clip-path:url(#SVGID_48_);fill:#BF425A;}
	.st388{clip-path:url(#SVGID_48_);fill:#C04259;}
	.st389{clip-path:url(#SVGID_48_);fill:#C14357;}
	.st390{clip-path:url(#SVGID_48_);fill:#C24456;}
	.st391{clip-path:url(#SVGID_48_);fill:#C34555;}
	.st392{clip-path:url(#SVGID_48_);fill:#C44654;}
	.st393{clip-path:url(#SVGID_48_);fill:#C64653;}
	.st394{clip-path:url(#SVGID_48_);fill:#C74751;}
	.st395{clip-path:url(#SVGID_48_);fill:#C84850;}
	.st396{clip-path:url(#SVGID_48_);fill:#C9494F;}
	.st397{clip-path:url(#SVGID_48_);fill:#CA494E;}
	.st398{clip-path:url(#SVGID_48_);fill:#CB4A4D;}
	.st399{clip-path:url(#SVGID_48_);fill:#CC4B4C;}
	.st400{clip-path:url(#SVGID_48_);fill:#CD4C4B;}
	.st401{clip-path:url(#SVGID_48_);fill:#CE4D49;}
	.st402{clip-path:url(#SVGID_48_);fill:#CF4D48;}
	.st403{clip-path:url(#SVGID_48_);fill:#D04E47;}
	.st404{clip-path:url(#SVGID_48_);fill:#D14F46;}
	.st405{clip-path:url(#SVGID_48_);fill:#D24F45;}
	.st406{clip-path:url(#SVGID_48_);fill:#D35044;}
	.st407{clip-path:url(#SVGID_48_);fill:#D45143;}
	.st408{clip-path:url(#SVGID_48_);fill:#D55242;}
	.st409{clip-path:url(#SVGID_48_);fill:#D55241;}
	.st410{clip-path:url(#SVGID_48_);fill:#D65340;}
	.st411{clip-path:url(#SVGID_48_);fill:#D7543F;}
	.st412{clip-path:url(#SVGID_48_);fill:#D8543E;}
	.st413{clip-path:url(#SVGID_48_);fill:#D9553C;}
	.st414{clip-path:url(#SVGID_48_);fill:#DA563B;}
	.st415{clip-path:url(#SVGID_48_);fill:#DB563A;}
	.st416{clip-path:url(#SVGID_48_);fill:#DC5739;}
	.st417{clip-path:url(#SVGID_48_);fill:#DD5838;}
	.st418{clip-path:url(#SVGID_48_);fill:#DE5837;}
	.st419{clip-path:url(#SVGID_48_);fill:#DF5936;}
	.st420{clip-path:url(#SVGID_48_);fill:#DF5A35;}
	.st421{clip-path:url(#SVGID_48_);fill:#E05A34;}
	.st422{clip-path:url(#SVGID_48_);fill:#E15B33;}
	.st423{clip-path:url(#SVGID_48_);fill:#E25C33;}
	.st424{clip-path:url(#SVGID_48_);fill:#E35C32;}
	.st425{clip-path:url(#SVGID_48_);fill:#E45D31;}
	.st426{clip-path:url(#SVGID_48_);fill:#E45E30;}
	.st427{clip-path:url(#SVGID_48_);fill:#E55E2F;}
	.st428{clip-path:url(#SVGID_48_);fill:#E65F2E;}
	.st429{clip-path:url(#SVGID_48_);fill:#E75F2D;}
	.st430{clip-path:url(#SVGID_48_);fill:#E8602C;}
	.st431{clip-path:url(#SVGID_48_);fill:#E8612B;}
	.st432{clip-path:url(#SVGID_48_);fill:#E9612A;}
	.st433{clip-path:url(#SVGID_48_);fill:#EA6229;}
	.st434{clip-path:url(#SVGID_48_);fill:#EB6229;}
	.st435{clip-path:url(#SVGID_48_);fill:#EB6328;}
	.st436{clip-path:url(#SVGID_48_);fill:#EC6327;}
	.st437{clip-path:url(#SVGID_48_);fill:#ED6426;}
	.st438{clip-path:url(#SVGID_48_);fill:#EE6425;}
	.st439{clip-path:url(#SVGID_48_);fill:#EE6525;}
	.st440{clip-path:url(#SVGID_48_);fill:#EF6624;}
	.st441{clip-path:url(#SVGID_48_);fill:#F06623;}
	.st442{clip-path:url(#SVGID_48_);fill:#F06722;}
	.st443{clip-path:url(#SVGID_48_);fill:#F16721;}
	.st444{clip-path:url(#SVGID_48_);fill:#F26821;}
	.st445{clip-path:url(#SVGID_48_);fill:#F26820;}
	.st446{clip-path:url(#SVGID_48_);fill:#F3681F;}
	.st447{clip-path:url(#SVGID_48_);fill:#F4691F;}
	.st448{clip-path:url(#SVGID_48_);fill:#F4691E;}
	.st449{clip-path:url(#SVGID_48_);fill:#F56A1D;}
	.st450{clip-path:url(#SVGID_48_);fill:#F66B1C;}
	.st451{clip-path:url(#SVGID_48_);fill:#F76B1B;}
	.st452{clip-path:url(#SVGID_48_);fill:#F76C1B;}
	.st453{clip-path:url(#SVGID_48_);fill:#F86C1A;}
	.st454{clip-path:url(#SVGID_48_);fill:#F96D19;}
	.st455{clip-path:url(#SVGID_48_);fill:#F96D18;}
	.st456{clip-path:url(#SVGID_48_);fill:#FA6D18;}
	.st457{clip-path:url(#SVGID_48_);fill:#911F8E;}
	.st458{clip-path:url(#SVGID_48_);fill:#92208D;}
	.st459{clip-path:url(#SVGID_48_);fill:#94218B;}
	.st460{clip-path:url(#SVGID_48_);fill:#95228A;}
	.st461{clip-path:url(#SVGID_48_);fill:#962388;}
	.st462{clip-path:url(#SVGID_48_);fill:#972487;}
	.st463{clip-path:url(#SVGID_48_);fill:#992585;}
	.st464{clip-path:url(#SVGID_48_);fill:#9A2684;}
	.st465{clip-path:url(#SVGID_48_);fill:#9B2783;}
	.st466{clip-path:url(#SVGID_48_);fill:#9C2781;}
	.st467{clip-path:url(#SVGID_48_);fill:#9E2880;}
	.st468{clip-path:url(#SVGID_48_);fill:#9F297E;}
	.st469{clip-path:url(#SVGID_48_);fill:#A02A7D;}
	.st470{clip-path:url(#SVGID_48_);fill:#A12B7C;}
	.st471{clip-path:url(#SVGID_48_);fill:#A22C7A;}
	.st472{clip-path:url(#SVGID_48_);fill:#A42D79;}
	.st473{clip-path:url(#SVGID_48_);fill:#A52E78;}
	.st474{clip-path:url(#SVGID_48_);fill:#A62F76;}
	.st475{clip-path:url(#SVGID_48_);fill:#A73075;}
	.st476{clip-path:url(#SVGID_48_);fill:#A83174;}
	.st477{clip-path:url(#SVGID_48_);fill:#AA3172;}
	.st478{clip-path:url(#SVGID_48_);fill:#AB3271;}
	.st479{clip-path:url(#SVGID_48_);fill:#AC3370;}
	.st480{clip-path:url(#SVGID_48_);fill:#AD346E;}
	.st481{clip-path:url(#SVGID_48_);fill:#AE356D;}
	.st482{clip-path:url(#SVGID_48_);fill:#AF366C;}
	.st483{clip-path:url(#SVGID_48_);fill:#B1376A;}
	.st484{clip-path:url(#SVGID_48_);fill:#B23869;}
	.st485{clip-path:url(#SVGID_48_);fill:#B33868;}
	.st486{clip-path:url(#SVGID_48_);fill:#B43966;}
	.st487{clip-path:url(#SVGID_48_);fill:#B53A65;}
	.st488{clip-path:url(#SVGID_48_);fill:#FA6E17;}
	.st489{clip-path:url(#SVGID_48_);fill:#FB6E16;}
	.st490{clip-path:url(#SVGID_48_);fill:#FB6F16;}
	.st491{clip-path:url(#SVGID_48_);fill:#FC6F16;}
	.st492{clip-path:url(#SVGID_48_);fill:#FC6F15;}
	.st493{clip-path:url(#SVGID_48_);fill:#FC7015;}
	.st494{clip-path:url(#SVGID_48_);fill:#FD7014;}
	.st495{fill:url(#SVGID_49_);}
	.st496{fill:url(#SVGID_50_);}
	.st497{fill:url(#SVGID_51_);}
	.st498{fill:url(#SVGID_52_);}
	.st499{fill:url(#SVGID_53_);}
</style>
<g>
	<g>
		<g>
			<path class="st36" d="M279.5,499.4c1.8,0,3.2,1.4,3.2,3.2v49.6c0,1.8-1.4,3.2-3.2,3.2H138.2c-1.8,0-3.2-1.4-3.2-3.2v-49.6
				c0-1.8,1.4-3.2,3.2-3.2H279.5 M279.5,485.4H138.2c-9.5,0-17.2,7.7-17.2,17.2v49.6c0,9.5,7.7,17.2,17.2,17.2h141.3
				c9.5,0,17.2-7.7,17.2-17.2v-49.6C296.7,493.1,289,485.4,279.5,485.4L279.5,485.4z"/>
		</g>
		<g>
			<path class="st36" d="M181.7,393.9V450h-45.6v-56.1H181.7 M184.5,379.9h-51.3c-6.2,0-11.1,5-11.1,11.1v61.8
				c0,6.2,5,11.1,11.1,11.1h51.3c6.2,0,11.1-5,11.1-11.1V391C195.7,384.9,190.7,379.9,184.5,379.9L184.5,379.9z"/>
		</g>
		<g>
			<path class="st36" d="M379.5,393.9c1.8,0,3.2,1.4,3.2,3.2v49.6c0,1.8-1.4,3.2-3.2,3.2H238.2c-1.8,0-3.2-1.4-3.2-3.2v-49.6
				c0-1.8,1.4-3.2,3.2-3.2H379.5 M379.5,379.9H238.2c-9.5,0-17.2,7.7-17.2,17.2v49.6c0,9.5,7.7,17.2,17.2,17.2h141.3
				c9.5,0,17.2-7.7,17.2-17.2v-49.6C396.8,387.6,389.1,379.9,379.5,379.9L379.5,379.9z"/>
		</g>
		<g>
			<path class="st36" d="M481.5,499.4c1.8,0,3.2,1.4,3.2,3.2v49.6c0,1.8-1.4,3.2-3.2,3.2H340.2c-1.8,0-3.2-1.4-3.2-3.2v-49.6
				c0-1.8,1.4-3.2,3.2-3.2H481.5 M481.5,485.4H340.2c-9.5,0-17.2,7.7-17.2,17.2v49.6c0,9.5,7.7,17.2,17.2,17.2h141.3
				c9.5,0,17.2-7.7,17.2-17.2v-49.6C498.8,493.1,491,485.4,481.5,485.4L481.5,485.4z"/>
		</g>
		<g>
			<path class="st36" d="M680.7,499.4c1.8,0,3.2,1.4,3.2,3.2v49.6c0,1.8-1.4,3.2-3.2,3.2H539.3c-1.8,0-3.2-1.4-3.2-3.2v-49.6
				c0-1.8,1.4-3.2,3.2-3.2H680.7 M680.7,485.4H539.3c-9.5,0-17.2,7.7-17.2,17.2v49.6c0,9.5,7.7,17.2,17.2,17.2h141.3
				c9.5,0,17.2-7.7,17.2-17.2v-49.6C697.9,493.1,690.2,485.4,680.7,485.4L680.7,485.4z"/>
		</g>
		<g>
			<path class="st36" d="M579.6,393.9c1.8,0,3.2,1.4,3.2,3.2v49.6c0,1.8-1.4,3.2-3.2,3.2H438.3c-1.8,0-3.2-1.4-3.2-3.2v-49.6
				c0-1.8,1.4-3.2,3.2-3.2H579.6 M579.6,379.9H438.3c-9.5,0-17.2,7.7-17.2,17.2v49.6c0,9.5,7.7,17.2,17.2,17.2h141.3
				c9.5,0,17.2-7.7,17.2-17.2v-49.6C596.9,387.6,589.2,379.9,579.6,379.9L579.6,379.9z"/>
		</g>
		<g>
			<path class="st36" d="M683.9,393.9V450h-47.7v-56.1H683.9 M686.6,379.9h-53.1c-6.2,0-11.3,5.1-11.3,11.3v61.5
				c0,6.2,5.1,11.3,11.3,11.3h53.1c6.2,0,11.3-5.1,11.3-11.3v-61.5C697.9,384.9,692.8,379.9,686.6,379.9L686.6,379.9z"/>
		</g>
		<g>
			<path class="st36" d="M280.7,286.5c1.8,0,3.2,1.4,3.2,3.2v49.6c0,1.8-1.4,3.2-3.2,3.2H139.3c-1.8,0-3.2-1.4-3.2-3.2v-49.6
				c0-1.8,1.4-3.2,3.2-3.2H280.7 M280.7,272.5H139.3c-9.5,0-17.2,7.7-17.2,17.2v49.6c0,9.5,7.7,17.2,17.2,17.2h141.3
				c9.5,0,17.2-7.7,17.2-17.2v-49.6C297.9,280.2,290.2,272.5,280.7,272.5L280.7,272.5z"/>
		</g>
		<g>
			<path class="st36" d="M681.8,286.5c1.8,0,3.2,1.4,3.2,3.2v49.6c0,1.8-1.4,3.2-3.2,3.2H540.5c-1.8,0-3.2-1.4-3.2-3.2v-49.6
				c0-1.8,1.4-3.2,3.2-3.2H681.8 M681.8,272.5H540.5c-9.5,0-17.2,7.7-17.2,17.2v49.6c0,9.5,7.7,17.2,17.2,17.2h141.3
				c9.5,0,17.2-7.7,17.2-17.2v-49.6C699.1,280.2,691.3,272.5,681.8,272.5L681.8,272.5z"/>
		</g>
	</g>
	<g>
		<g>
			<path class="st0" d="M259.5,477.4c1.8,0,3.2,1.4,3.2,3.2v49.6c0,1.8-1.4,3.2-3.2,3.2H118.2c-1.8,0-3.2-1.4-3.2-3.2v-49.6
				c0-1.8,1.4-3.2,3.2-3.2H259.5 M259.5,463.4H118.2c-9.5,0-17.2,7.7-17.2,17.2v49.6c0,9.5,7.7,17.2,17.2,17.2h141.3
				c9.5,0,17.2-7.7,17.2-17.2v-49.6C276.7,471.1,269,463.4,259.5,463.4L259.5,463.4z"/>
		</g>
		<g>
			<path class="st0" d="M161.7,371.9V428h-45.6v-56.1H161.7 M164.5,357.9h-51.3c-6.2,0-11.1,5-11.1,11.1v61.8
				c0,6.2,5,11.1,11.1,11.1h51.3c6.2,0,11.1-5,11.1-11.1V369C175.7,362.9,170.7,357.9,164.5,357.9L164.5,357.9z"/>
		</g>
		<g>
			<path class="st0" d="M359.5,371.9c1.8,0,3.2,1.4,3.2,3.2v49.6c0,1.8-1.4,3.2-3.2,3.2H218.2c-1.8,0-3.2-1.4-3.2-3.2v-49.6
				c0-1.8,1.4-3.2,3.2-3.2H359.5 M359.5,357.9H218.2c-9.5,0-17.2,7.7-17.2,17.2v49.6c0,9.5,7.7,17.2,17.2,17.2h141.3
				c9.5,0,17.2-7.7,17.2-17.2v-49.6C376.8,365.6,369.1,357.9,359.5,357.9L359.5,357.9z"/>
		</g>
		<g>
			<path class="st0" d="M461.5,477.4c1.8,0,3.2,1.4,3.2,3.2v49.6c0,1.8-1.4,3.2-3.2,3.2H320.2c-1.8,0-3.2-1.4-3.2-3.2v-49.6
				c0-1.8,1.4-3.2,3.2-3.2H461.5 M461.5,463.4H320.2c-9.5,0-17.2,7.7-17.2,17.2v49.6c0,9.5,7.7,17.2,17.2,17.2h141.3
				c9.5,0,17.2-7.7,17.2-17.2v-49.6C478.8,471.1,471,463.4,461.5,463.4L461.5,463.4z"/>
		</g>
		<g>
			<path class="st0" d="M660.7,477.4c1.8,0,3.2,1.4,3.2,3.2v49.6c0,1.8-1.4,3.2-3.2,3.2H519.3c-1.8,0-3.2-1.4-3.2-3.2v-49.6
				c0-1.8,1.4-3.2,3.2-3.2H660.7 M660.7,463.4H519.3c-9.5,0-17.2,7.7-17.2,17.2v49.6c0,9.5,7.7,17.2,17.2,17.2h141.3
				c9.5,0,17.2-7.7,17.2-17.2v-49.6C677.9,471.1,670.2,463.4,660.7,463.4L660.7,463.4z"/>
		</g>
		<g>
			<path class="st0" d="M559.6,371.9c1.8,0,3.2,1.4,3.2,3.2v49.6c0,1.8-1.4,3.2-3.2,3.2H418.3c-1.8,0-3.2-1.4-3.2-3.2v-49.6
				c0-1.8,1.4-3.2,3.2-3.2H559.6 M559.6,357.9H418.3c-9.5,0-17.2,7.7-17.2,17.2v49.6c0,9.5,7.7,17.2,17.2,17.2h141.3
				c9.5,0,17.2-7.7,17.2-17.2v-49.6C576.9,365.6,569.2,357.9,559.6,357.9L559.6,357.9z"/>
		</g>
		<g>
			<path class="st0" d="M663.9,371.9V428h-47.7v-56.1H663.9 M666.6,357.9h-53.1c-6.2,0-11.3,5.1-11.3,11.3v61.5
				c0,6.2,5.1,11.3,11.3,11.3h53.1c6.2,0,11.3-5.1,11.3-11.3v-61.5C677.9,362.9,672.8,357.9,666.6,357.9L666.6,357.9z"/>
		</g>
		<g>
			<path class="st0" d="M260.7,264.5c1.8,0,3.2,1.4,3.2,3.2v49.6c0,1.8-1.4,3.2-3.2,3.2H119.3c-1.8,0-3.2-1.4-3.2-3.2v-49.6
				c0-1.8,1.4-3.2,3.2-3.2H260.7 M260.7,250.5H119.3c-9.5,0-17.2,7.7-17.2,17.2v49.6c0,9.5,7.7,17.2,17.2,17.2h141.3
				c9.5,0,17.2-7.7,17.2-17.2v-49.6C277.9,258.2,270.2,250.5,260.7,250.5L260.7,250.5z"/>
		</g>
		<g>
			<path class="st0" d="M661.8,264.5c1.8,0,3.2,1.4,3.2,3.2v49.6c0,1.8-1.4,3.2-3.2,3.2H520.5c-1.8,0-3.2-1.4-3.2-3.2v-49.6
				c0-1.8,1.4-3.2,3.2-3.2H661.8 M661.8,250.5H520.5c-9.5,0-17.2,7.7-17.2,17.2v49.6c0,9.5,7.7,17.2,17.2,17.2h141.3
				c9.5,0,17.2-7.7,17.2-17.2v-49.6C679.1,258.2,671.3,250.5,661.8,250.5L661.8,250.5z"/>
		</g>
	</g>
	<g>
		<g>
			<linearGradient id="SVGID_1_" gradientUnits="userSpaceOnUse" x1="255.673" y1="186.3389" x2="520.9891" y2="186.3389">
				<stop  offset="0" style="stop-color:#911F8E"/>
				<stop  offset="8.189917e-03" style="stop-color:#93218C"/>
				<stop  offset="0.1442" style="stop-color:#B33967"/>
				<stop  offset="0.2872" style="stop-color:#CE4D49"/>
				<stop  offset="0.4371" style="stop-color:#E35C32"/>
				<stop  offset="0.597" style="stop-color:#F26721"/>
				<stop  offset="0.7736" style="stop-color:#FA6E17"/>
				<stop  offset="1" style="stop-color:#FD7014"/>
			</linearGradient>
			<path style="fill:url(#SVGID_1_);" d="M388.9,340.2c-2.6,0-5.1-0.7-7.5-2c-27.9-16-51.7-35.9-70.5-59.3
				c-15.9-19.7-28.7-42.2-37.8-66.7c-7.1-19-12.1-39.4-14.9-60.6c-2.6-19.8-3.1-39.7-1.5-59.1c0.1-1,0.2-2,0.3-3l0.1-1.2
				c0.7-6.5,6.2-11.5,12.7-11.6C315,76,351.1,62.7,380.1,36c5-4.6,12.6-4.6,17.6,0c29,26.7,65.1,40.1,110.5,40.8
				c7.2,0.1,12.9,6,12.8,13.2c-0.1,7.2-6.1,12.9-13.2,12.8c-47.6-0.8-86.6-13.9-118.8-40.1c-29.6,23.9-64.8,37-107,39.6
				c-0.7,15.1-0.1,30.5,1.9,45.9c2.5,19.2,7,37.6,13.5,54.8c8.2,21.9,19.6,42,33.7,59.5c15.8,19.6,34.8,36,57.8,49.9
				c8.2-5,15.9-10.2,22.9-15.7c24.9-19.4,44.7-43.3,58.8-71.2c12.2-24.1,20.1-51,23.6-79.8c0.9-7.1,7.3-12.2,14.5-11.3
				c7.1,0.9,12.2,7.3,11.3,14.5c-3.9,31.9-12.7,61.6-26.2,88.4c-15.9,31.4-38.1,58.3-66.1,80c-9.4,7.3-19.9,14.3-31.1,20.7
				C394.2,339.4,391.5,340.2,388.9,340.2z"/>
		</g>
	</g>
	<g>
		<g>
			<path class="st135" d="M365.6,165.3c0-2.9-0.1-5.7,0-8.4c0.1-3.4,0-6.9,0.7-10.2c2.4-11.3,12.9-18.7,24.7-17.8
				c10.9,0.8,20.2,9.9,21,21.2c0.3,4.5,0.2,9.1,0.2,13.6c0,1.3,0.3,1.8,1.7,1.9c6.2,0.6,11.5,6.1,11.5,12.4
				c0.1,10.4,0.1,20.8,0,31.3c-0.1,6.9-5.9,12.6-12.9,12.7c-15.7,0.1-31.5,0.1-47.2,0c-7,0-12.8-5.7-12.9-12.7
				c-0.1-10.4-0.1-20.7,0-31.1c0.1-6.6,5.3-12,11.9-12.6C364.7,165.5,365.1,165.4,365.6,165.3z M372.5,165.3c11.1,0,22.1,0,33.1,0
				c0-4.9,0.3-9.7-0.1-14.4c-0.5-8.5-7.4-15.1-15.8-15.4c-8.6-0.4-16.1,5.4-17.2,14C371.9,154.6,372.5,159.9,372.5,165.3z"/>
		</g>
	</g>
	<g>
		<circle class="st140" cx="507" cy="150.4" r="25.5"/>
	</g>
</g>
</svg>
