<svg width="18" height="18" viewBox="0 0 18 18" fill="none" xmlns="http://www.w3.org/2000/svg">
<path fill-rule="evenodd" clip-rule="evenodd" d="M1.5 2.25C1.5 1.83579 1.83579 1.5 2.25 1.5H15.75C16.1642 1.5 16.5 1.83579 16.5 2.25V5.25C16.5 5.66421 16.1642 6 15.75 6H9.75V6.75H15.75C16.1642 6.75 16.5 7.08579 16.5 7.5V10.5C16.5 10.9142 16.1642 11.25 15.75 11.25H9.75V13.9393L10.7197 12.9697C11.0126 12.6768 11.4874 12.6768 11.7803 12.9697C12.0732 13.2626 12.0732 13.7374 11.7803 14.0303L9.53033 16.2803C9.23744 16.5732 8.76256 16.5732 8.46967 16.2803L6.21967 14.0303C5.92678 13.7374 5.92678 13.2626 6.21967 12.9697C6.51256 12.6768 6.98744 12.6768 7.28033 12.9697L8.25 13.9393V11.25H2.25C1.83579 11.25 1.5 10.9142 1.5 10.5V7.5C1.5 7.08579 1.83579 6.75 2.25 6.75H8.25V6H2.25C1.83579 6 1.5 5.66421 1.5 5.25V2.25ZM15 4.5V3H3V4.5H15ZM3 8.25V9.75H15V8.25H3Z" fill="#F04200"/>
</svg>
