<svg width="20" height="21" viewBox="0 0 20 21" fill="none" xmlns="http://www.w3.org/2000/svg">
<path fill-rule="evenodd" clip-rule="evenodd" d="M17.3389 6.85305L16.8202 5.95298C16.3814 5.19138 15.409 4.92864 14.6463 5.36564V5.36564C14.2833 5.57949 13.8501 5.64017 13.4423 5.53428C13.0345 5.42839 12.6855 5.16464 12.4724 4.80118C12.3353 4.57016 12.2616 4.30704 12.2588 4.03841V4.03841C12.2712 3.60773 12.1087 3.19038 11.8084 2.88143C11.5081 2.57249 11.0955 2.39826 10.6646 2.39844H9.61962C9.19751 2.39843 8.7928 2.56664 8.49504 2.86583C8.19728 3.16502 8.03102 3.57053 8.03305 3.99264V3.99264C8.02054 4.86415 7.31044 5.56405 6.43885 5.56396C6.17022 5.56117 5.90709 5.48749 5.67607 5.35038V5.35038C4.91343 4.91339 3.94097 5.17612 3.50216 5.93772L2.94533 6.85305C2.50705 7.6137 2.76621 8.58555 3.52504 9.02697V9.02697C4.01829 9.31174 4.32215 9.83803 4.32215 10.4076C4.32215 10.9771 4.01829 11.5034 3.52504 11.7882V11.7882C2.76717 12.2267 2.50773 13.1961 2.94533 13.9545V13.9545L3.47165 14.8622C3.67725 15.2332 4.02221 15.507 4.4302 15.6229C4.83819 15.7389 5.27557 15.6875 5.64556 15.4801V15.4801C6.00927 15.2678 6.4427 15.2097 6.84949 15.3185C7.25628 15.4274 7.60274 15.6942 7.81184 16.0598C7.94896 16.2908 8.02263 16.5539 8.02542 16.8225V16.8225C8.02542 17.703 8.73917 18.4167 9.61962 18.4167H10.6646C11.5421 18.4168 12.2546 17.7076 12.2588 16.8302V16.8302C12.2568 16.4067 12.4241 16.0001 12.7235 15.7006C13.0229 15.4012 13.4296 15.2339 13.853 15.236C14.121 15.2431 14.3831 15.3165 14.6158 15.4495V15.4495C15.3765 15.8878 16.3483 15.6287 16.7897 14.8698V14.8698L17.3389 13.9545C17.5515 13.5896 17.6098 13.155 17.501 12.747C17.3922 12.339 17.1252 11.9912 16.7592 11.7806V11.7806C16.3932 11.57 16.1262 11.2222 16.0174 10.8142C15.9086 10.4061 15.9669 9.97156 16.1795 9.60668C16.3177 9.36532 16.5179 9.16521 16.7592 9.02697V9.02697C17.5135 8.58579 17.772 7.61962 17.3389 6.86068V6.86068V6.85305Z" stroke="#F04200" stroke-width="1.5" stroke-linecap="round" stroke-linejoin="round"/>
<ellipse cx="10.1459" cy="10.4077" rx="2.1968" ry="2.1968" stroke="#F04200" stroke-width="1.5" stroke-linecap="round" stroke-linejoin="round"/>
</svg>
