<svg width="18" height="19" viewBox="0 0 18 19" fill="none" xmlns="http://www.w3.org/2000/svg">
<path fill-rule="evenodd" clip-rule="evenodd" d="M9.42555 1.38246C9.1693 1.20585 8.8306 1.20585 8.57434 1.38246L1.07434 6.55142C0.851197 6.70521 0.737264 6.9583 0.750987 7.21044C0.750296 7.22357 0.749947 7.23676 0.749947 7.25V15.4318C0.749947 16.2351 1.36142 17 2.24995 17H15.7499C16.6385 17 17.2499 16.2351 17.2499 15.4318V7.25C17.2499 7.23676 17.2496 7.22357 17.2489 7.21044C17.2626 6.9583 17.1487 6.70521 16.9256 6.55142L9.42555 1.38246ZM15.2123 7.19243L8.99995 2.91087L2.78755 7.19243L8.99995 11.2305L15.2123 7.19243ZM2.24995 15.4318V8.63201L8.59121 12.7538C8.83975 12.9154 9.16014 12.9154 9.40869 12.7538L15.7499 8.63202V15.4318C15.7499 15.4668 15.7386 15.4892 15.7304 15.5H2.26952C2.26128 15.4892 2.24995 15.4668 2.24995 15.4318Z" fill="#F04200"/>
</svg>
