<svg width="18" height="19" viewBox="0 0 18 19" fill="none" xmlns="http://www.w3.org/2000/svg">
<mask id="path-1-outside-1_945_11161" maskUnits="userSpaceOnUse" x="1.69995" y="2.27734" width="15" height="15" fill="black">
<rect fill="white" x="1.69995" y="2.27734" width="15" height="15"/>
<path d="M5.74803 6.61051H12.2312V14.7222C12.2312 15.2744 11.7835 15.7222 11.2312 15.7222H6.74803C6.19574 15.7222 5.74803 15.2744 5.74803 14.7222V6.61051Z"/>
</mask>
<path d="M4.42691 5.91051C4.04031 5.91051 3.72691 6.22391 3.72691 6.61051C3.72691 6.99711 4.04031 7.31051 4.42691 7.31051V5.91051ZM13.573 7.31051C13.9596 7.31051 14.273 6.99711 14.273 6.61051C14.273 6.22391 13.9596 5.91051 13.573 5.91051V7.31051ZM3.69995 3.97734H14.3V2.57734H3.69995V3.97734ZM14.6 4.27734V8.04048H16V4.27734H14.6ZM3.39995 8.04048V4.27734H1.99995V8.04048H3.39995ZM5.28279 8.34048H3.69995V9.74048H5.28279V8.34048ZM14.3 8.34048H12.6721V9.74048H14.3V8.34048ZM5.74803 5.91051H4.42691V7.31051H5.74803V5.91051ZM12.2312 7.31051H13.573V5.91051H12.2312V7.31051ZM1.99995 8.04048C1.99995 8.97937 2.76107 9.74048 3.69995 9.74048V8.34048C3.53427 8.34048 3.39995 8.20617 3.39995 8.04048H1.99995ZM14.6 8.04048C14.6 8.20617 14.4656 8.34048 14.3 8.34048V9.74048C15.2388 9.74048 16 8.97937 16 8.04048H14.6ZM14.3 3.97734C14.4656 3.97734 14.6 4.11166 14.6 4.27734H16C16 3.33846 15.2388 2.57734 14.3 2.57734V3.97734ZM3.69995 2.57734C2.76107 2.57734 1.99995 3.33846 1.99995 4.27734H3.39995C3.39995 4.11166 3.53427 3.97734 3.69995 3.97734V2.57734ZM5.74803 6.61051V5.21051H4.34803V6.61051H5.74803ZM12.2312 6.61051H13.6312V5.21051H12.2312V6.61051ZM5.74803 8.01051H12.2312V5.21051H5.74803V8.01051ZM10.8312 6.61051V14.7222H13.6312V6.61051H10.8312ZM11.2312 14.3222H6.74803V17.1222H11.2312V14.3222ZM7.14803 14.7222V6.61051H4.34803V14.7222H7.14803ZM6.74803 14.3222C6.96894 14.3222 7.14803 14.5012 7.14803 14.7222H4.34803C4.34803 16.0476 5.42254 17.1222 6.74803 17.1222V14.3222ZM10.8312 14.7222C10.8312 14.5012 11.0103 14.3222 11.2312 14.3222V17.1222C12.5567 17.1222 13.6312 16.0476 13.6312 14.7222H10.8312Z" fill="#F04200" mask="url(#path-1-outside-1_945_11161)"/>
</svg>
