<svg width="18" height="19" viewBox="0 0 18 19" fill="none" xmlns="http://www.w3.org/2000/svg">
<path fill-rule="evenodd" clip-rule="evenodd" d="M1.5 2.75C1.5 2.33579 1.83579 2 2.25 2H15.75C16.1642 2 16.5 2.33579 16.5 2.75V5.75C16.5 6.16421 16.1642 6.5 15.75 6.5H9.75V7.25H15.75C16.1642 7.25 16.5 7.58579 16.5 8V11C16.5 11.4142 16.1642 11.75 15.75 11.75H9.75V14.4393L10.7197 13.4697C11.0126 13.1768 11.4874 13.1768 11.7803 13.4697C12.0732 13.7626 12.0732 14.2374 11.7803 14.5303L9.53033 16.7803C9.23744 17.0732 8.76256 17.0732 8.46967 16.7803L6.21967 14.5303C5.92678 14.2374 5.92678 13.7626 6.21967 13.4697C6.51256 13.1768 6.98744 13.1768 7.28033 13.4697L8.25 14.4393V11.75H2.25C1.83579 11.75 1.5 11.4142 1.5 11V8C1.5 7.58579 1.83579 7.25 2.25 7.25H8.25V6.5H2.25C1.83579 6.5 1.5 6.16421 1.5 5.75V2.75ZM15 5V3.5H3V5H15ZM3 8.75V10.25H15V8.75H3Z" fill="#9CA3AF"/>
</svg>
