<svg width="18" height="19" viewBox="0 0 18 19" fill="none" xmlns="http://www.w3.org/2000/svg">
<path fill-rule="evenodd" clip-rule="evenodd" d="M9.42568 1.38246C9.16942 1.20585 8.83072 1.20585 8.57446 1.38246L1.07446 6.55142C0.851319 6.70521 0.737386 6.9583 0.751109 7.21044C0.750418 7.22357 0.750069 7.23676 0.750069 7.25V15.4318C0.750069 16.2351 1.36155 17 2.25007 17H15.7501C16.6386 17 17.2501 16.2351 17.2501 15.4318V7.25C17.2501 7.23676 17.2497 7.22357 17.249 7.21044C17.2628 6.9583 17.1488 6.70521 16.9257 6.55142L9.42568 1.38246ZM15.2125 7.19243L9.00007 2.91087L2.78767 7.19243L9.00007 11.2305L15.2125 7.19243ZM2.25007 15.4318V8.63201L8.59133 12.7538C8.83988 12.9154 9.16026 12.9154 9.40881 12.7538L15.7501 8.63202V15.4318C15.7501 15.4668 15.7387 15.4892 15.7305 15.5H2.26964C2.2614 15.4892 2.25007 15.4668 2.25007 15.4318Z" fill="#9CA3AF"/>
</svg>
