<svg width="18" height="19" viewBox="0 0 18 19" fill="none" xmlns="http://www.w3.org/2000/svg">
<path d="M9.75 11.75C9.75 11.3358 9.41421 11 9 11C8.58579 11 8.25 11.3358 8.25 11.75V14C8.25 14.4142 8.58579 14.75 9 14.75C9.41421 14.75 9.75 14.4142 9.75 14V11.75Z" fill="#9CA3AF"/>
<path fill-rule="evenodd" clip-rule="evenodd" d="M4.5 5.75V8H3C2.17157 8 1.5 8.67157 1.5 9.5V16.25C1.5 17.0784 2.17157 17.75 3 17.75H15C15.8284 17.75 16.5 17.0784 16.5 16.25V9.5C16.5 8.67157 15.8284 8 15 8H13.5V5.75C13.5 3.26472 11.4853 1.25 9 1.25C6.51474 1.25 4.5 3.26472 4.5 5.75ZM9 2.75C7.34316 2.75 6 4.09315 6 5.75V8H12V5.75C12 4.09315 10.6568 2.75 9 2.75ZM3 9.5H15V16.25H3V9.5Z" fill="#9CA3AF"/>
</svg>
