<svg width="18" height="19" viewBox="0 0 18 19" fill="none" xmlns="http://www.w3.org/2000/svg">
<path d="M3 17.75C2.61537 17.75 2.29837 17.4605 2.25505 17.0875L2.25 17L2.25025 9.24592C2.09702 9.19175 1.94679 9.12617 1.80083 9.04917L1.63858 8.95779L1.11413 8.64312C0.888227 8.50758 0.75 8.26345 0.75 8V5C0.75 4.58579 1.08579 4.25 1.5 4.25L2.25 4.24925V2C2.25 1.61537 2.53953 1.29837 2.91253 1.25505L3 1.25H15C15.3846 1.25 15.7016 1.53953 15.745 1.91253L15.75 2V4.24925L16.5 4.25C16.8846 4.25 17.2016 4.53953 17.245 4.91253L17.25 5V8C17.25 8.26345 17.1118 8.50758 16.8859 8.64312L16.3614 8.95778C16.1656 9.07526 15.9609 9.17122 15.7505 9.24565L15.75 17C15.75 17.3846 15.4605 17.7016 15.0875 17.745L15 17.75H3ZM12.75 8.8745L12.6114 8.95778C11.5961 9.56701 10.3402 9.59747 9.30082 9.04917L9.13857 8.95778L9 8.8745L8.86144 8.95778C7.84607 9.56701 6.59023 9.59747 5.55082 9.04917L5.38857 8.95778L5.25 8.8745L5.11144 8.95778C4.6884 9.2116 4.22363 9.36497 3.75016 9.41786L3.75 16.25H6.375V12.5C6.375 12.1154 6.66453 11.7984 7.03753 11.755L7.125 11.75H10.875C11.2892 11.75 11.625 12.0858 11.625 12.5V16.25H14.25L14.2506 9.41795C13.7769 9.36513 13.3118 9.21174 12.8886 8.95778L12.75 8.8745ZM10.125 13.25H7.875V16.25H10.125V13.25ZM14.9872 5.74925L2.25 5.75V7.5755L2.41033 7.67155C2.96452 8.00407 3.64765 8.02624 4.21905 7.73805L4.33969 7.67154L4.86413 7.35688C5.10164 7.21437 5.39836 7.21437 5.63587 7.35688L6.16031 7.67155C6.7541 8.02782 7.4959 8.02782 8.08969 7.67154L8.61413 7.35688C8.85164 7.21437 9.14836 7.21437 9.38587 7.35688L9.91031 7.67155C10.5041 8.02782 11.2459 8.02782 11.8397 7.67154L12.3641 7.35688C12.6016 7.21437 12.8984 7.21437 13.1359 7.35688L13.6603 7.67155C14.2541 8.02782 14.9959 8.02782 15.5897 7.67154L15.75 7.57475V5.75L15.013 5.74989C15.0087 5.74996 15.0043 5.75 15 5.75L14.9872 5.74925ZM14.25 2.75H3.75V4.24925H14.25V2.75Z" fill="#9CA3AF"/>
</svg>
