<svg width="212" height="114" viewBox="0 0 212 114" fill="none" xmlns="http://www.w3.org/2000/svg">
<path d="M8.5996 113.57C8.5996 113.57 -10.1049 85.1251 10.3632 54.3315C28.5262 27.0065 57.1756 48.7333 73.4067 20.9327C95.5506 -16.9739 206.043 -2.16984 192.051 56.1609C185.282 84.386 222.786 85.4178 208.831 113.628L8.5996 113.57Z" fill="#EBF3FA" fill-opacity="0.1"/>
<path d="M148.188 56.7309C148.188 56.7309 144.807 52.2524 148.4 49.7643C148.4 49.7643 150.991 48.4105 153.018 48.6593C153.018 48.6593 149.827 53.3208 150.735 53.855C151.635 54.3965 153.91 48.4105 153.91 48.4105C153.91 48.4105 159.626 48.2129 161.404 49.2081C161.404 49.2081 156.296 52.8817 157.306 53.1817C158.316 53.4818 163.804 49.9107 163.804 49.9107C163.804 49.9107 169.037 51.1401 168.554 54.3526C168.071 57.5652 166.183 58.4433 165.392 58.3116C164.595 58.1725 160.021 56.0943 159.882 56.7455C159.736 57.3968 162.429 59.7166 164.397 59.9435C164.397 59.9435 160.409 63.8219 158.009 62.4828C155.601 61.1436 155.513 59.2483 154.013 58.4433C152.513 57.6383 151.196 57.5578 151.788 58.3189C152.381 59.0799 155.133 59.9508 155.923 61.568C156.706 63.1853 157.438 64.2903 154.898 63.7414C152.359 63.1926 148.305 61.0558 148.261 58.897C148.188 56.7309 148.188 56.7309 148.188 56.7309Z" fill="#82B378"/>
<path d="M165.949 54.2744C165.949 54.2744 151.621 52.8255 148.188 56.7332C148.188 56.7332 147.354 58.7896 145.078 60.5678L144.683 61.4606C144.683 61.4606 147.34 58.9945 148.24 58.8847C148.232 58.892 147.157 53.7183 165.949 54.2744Z" fill="#82B378"/>
<path d="M145.071 60.5734C145.071 60.5734 141.844 62.659 141.375 66.7204L141.932 66.8083C141.932 66.8083 143.183 62.659 145.064 61.1223C146.952 59.5782 145.071 60.5734 145.071 60.5734Z" fill="#82B378"/>
<path d="M131.613 46.0275C131.613 46.0275 124.119 41.8343 127.617 36.141C127.617 36.141 130.413 32.6431 133.413 31.7503C133.413 31.7503 131.818 40.239 133.413 40.4366C135.008 40.6342 134.511 30.8502 134.511 30.8502C134.511 30.8502 142.399 27.0522 145.495 27.3523C145.495 27.3523 140.599 35.6434 142.202 35.4385C143.797 35.2409 149.293 26.8473 149.293 26.8473C149.293 26.8473 157.379 25.3472 158.682 30.1404C159.977 34.9336 157.884 37.3338 156.684 37.6339C155.484 37.9339 147.793 37.8315 147.998 38.834C148.195 39.8292 153.391 41.4319 156.289 40.5318C156.289 40.5318 153.091 48.4204 148.898 48.0253C144.705 47.6228 143.402 45.0322 140.812 44.8273C138.214 44.6298 136.318 45.325 137.614 46.0275C138.909 46.73 143.307 46.2543 145.4 48.0399C147.5 49.8255 149.198 50.9231 145.297 51.7208C141.404 52.5184 134.408 52.0208 133.011 49.0278C131.613 46.0275 131.613 46.0275 131.613 46.0275Z" fill="#A8D29F"/>
<path d="M154.979 31.6484C154.979 31.6484 134.006 38.4394 131.613 46.0281C131.613 46.0281 131.715 49.4236 129.615 53.3167V54.8168C129.615 54.8168 131.81 49.7236 133.011 49.0211C133.011 49.0284 128.313 42.435 154.979 31.6484Z" fill="#82B378"/>
<path d="M129.615 53.3258C129.615 53.3258 126.38 58.2361 128.225 64.2148L129.059 63.9879C129.059 63.9879 128.254 57.4018 129.944 54.0942C131.635 50.7865 129.615 53.3258 129.615 53.3258Z" fill="#82B378"/>
<path d="M92.111 48.179C92.111 48.179 100.827 44.4907 97.6872 37.8315C97.6872 37.8315 95.0455 33.6603 91.8695 32.3138C91.8695 32.3138 92.594 41.8124 90.8157 41.8344C89.0375 41.8563 90.7718 31.1942 90.7718 31.1942C90.7718 31.1942 82.5831 26.079 79.1584 26.0351C79.1584 26.0351 83.5198 35.7093 81.7928 35.2995C80.0658 34.8897 75.0604 25.0252 75.0604 25.0252C75.0604 25.0252 66.374 22.4054 64.3763 27.4986C62.3712 32.5919 64.3836 35.4751 65.6569 35.9508C66.9302 36.4264 75.375 37.246 75.0311 38.3145C74.6945 39.3829 68.8036 40.5098 65.7447 39.1706C65.7447 39.1706 68.2913 48.2009 72.9382 48.2741C77.585 48.3473 79.3194 45.6543 82.188 45.7494C85.0566 45.8445 87.0544 46.8398 85.5469 47.4472C84.0394 48.0545 79.2828 47.0081 76.7654 48.7058C74.2481 50.4036 72.2576 51.4061 76.4288 52.7526C80.6 54.0991 88.3203 54.3991 90.2157 51.289C92.111 48.179 92.111 48.179 92.111 48.179Z" fill="#A8D29F"/>
<path d="M68.2471 29.5938C68.2471 29.5938 90.4056 39.5753 92.1107 48.1885C92.1107 48.1885 91.5911 51.8986 93.4132 56.4211L93.2303 58.0603C93.2303 58.0603 91.4374 52.2133 90.208 51.2986C90.2153 51.2986 96.1574 44.6393 68.2471 29.5938Z" fill="#82B378"/>
<path d="M93.4206 56.4136C93.4206 56.4136 96.3697 62.1874 93.6255 68.5174L92.74 68.1735C92.74 68.1735 94.4231 61.0532 92.9669 57.2186C91.5179 53.384 93.4206 56.4136 93.4206 56.4136Z" fill="#82B378"/>
<path d="M74.2337 69.5811C72.697 67.3565 72.5213 65.2928 72.5213 65.2928C72.5213 65.2928 76.7803 62.234 74.2703 59.0141C74.2703 59.0141 72.3311 57.0822 70.4504 56.7382C70.4504 56.7382 72.0018 61.7876 71.0431 62.0144C70.0845 62.2486 69.7186 56.2699 69.7186 56.2699C69.7186 56.2699 64.6693 54.5063 62.8105 54.9015C62.8105 54.9015 66.3524 59.5995 65.3645 59.5922C64.3839 59.5776 60.4688 54.8576 60.4688 54.8576C60.4688 54.8576 55.4561 54.499 54.995 57.4993C54.534 60.4996 55.9756 61.8095 56.7221 61.912C57.4685 62.0144 62.1373 61.4217 62.0787 62.0437C62.0275 62.6657 58.9833 63.9903 57.1611 63.639C57.1611 63.639 59.6419 68.2127 62.1592 67.6858C64.6766 67.1589 65.2913 65.4904 66.85 65.1904C68.416 64.8904 69.6161 65.1831 68.8697 65.7026C68.1306 66.2149 65.4303 66.2295 64.2741 67.4589C63.1252 68.6883 62.1666 69.4713 64.5888 69.6909C67.011 69.9104 71.2188 69.1274 71.8627 67.2101C71.892 67.1296 71.914 67.0491 71.9432 66.9686C71.9066 67.1223 71.8627 67.2101 71.8627 67.2101C72.3311 67.415 73.1214 68.5566 73.6776 69.4348C73.7581 69.5884 73.8898 69.7933 74.0727 70.0714C74.1459 70.1958 74.2118 70.3056 74.2557 70.3788C75.3241 72.3692 75.2875 76.0208 75.2875 76.0208L75.8071 76.1013C76.5389 72.3473 74.2337 69.5811 74.2337 69.5811Z" fill="#82B378"/>
<path d="M45.7524 18.438C45.7085 18.2112 45.167 15.7377 41.3544 16.1622C41.3544 16.1622 43.257 16.1109 43.6961 16.8866C43.6961 16.8866 42.2764 16.0597 41.2885 16.5354C40.3006 17.011 39.9567 18.9137 40.0371 19.5137C40.1176 20.1138 40.9738 21.9506 41.6544 22.0165C41.9105 22.0457 42.1959 21.9872 42.452 21.8994C42.3203 22.1994 42.1886 22.5214 42.0715 22.8873C41.0104 26.2169 43.0082 29.0343 44.2449 28.5074C45.0353 28.1708 45.4743 29.5465 45.4743 29.5465L52.5288 21.914C52.5214 21.9067 48.7088 16.2573 45.7524 18.438Z" fill="#2C3A64"/>
<path d="M54.9439 110.365L53.2315 111.002C53.2315 111.002 45.7819 100.661 44.8599 91.5726C44.6989 89.948 44.7501 88.3747 45.1087 86.9257C45.1087 86.9257 45.0355 86.5086 44.9111 85.7768C44.8525 85.4329 44.7794 85.0231 44.6989 84.5474C44.4574 83.157 44.1208 81.2617 43.7402 79.0956C42.8621 74.1195 41.7278 67.7529 40.8423 63.0768L41.3034 62.9304L46.3088 61.3132L47.3406 58.0275L51.0654 57.0469C51.0654 57.0469 51.8997 58.6714 52.6388 66.3625C52.7778 67.3724 52.9022 68.4847 52.9973 69.6922C53.29 73.373 53.312 77.9394 52.6461 83.1644C52.4778 84.5035 52.2582 85.8793 51.9948 87.299C51.7972 88.3381 51.7679 89.7578 51.8484 91.3823C52.2143 98.81 54.9439 110.365 54.9439 110.365Z" fill="#2B478B"/>
<path d="M52.9898 69.6844L44.9035 85.769C44.845 85.4251 44.7718 85.0153 44.6913 84.5396C44.4498 83.1492 44.1132 81.2539 43.7327 79.0878C42.8545 74.1117 41.7202 67.7451 40.8348 63.069L41.2958 62.9226L46.3012 61.3054L47.3331 58.0197L51.0578 57.0391C51.0578 57.0391 51.8921 58.6636 52.6312 66.3547C52.7702 67.3719 52.8946 68.4842 52.9898 69.6844Z" fill="#233862"/>
<path d="M49.4332 59.1016L49.243 57.499C46.1036 58.3332 37.7246 55.1719 37.7246 55.1719C37.7246 55.1719 34.6877 57.8429 35.0829 64.246C35.2805 67.3708 35.6317 80.6527 36.0049 84.5824C36.1367 86.0094 36.2537 87.0193 36.305 87.4291C36.305 87.4291 36.305 87.4291 36.305 87.4364C36.3196 87.5608 36.2757 87.6779 36.2171 87.7876C35.6683 88.717 35.2146 89.683 34.8487 90.6709C31.2044 100.389 35.4122 112.361 35.4122 112.361L36.5025 111.922C36.5025 111.922 38.8955 98.6034 40.842 92.7199C41.1714 91.7246 41.486 90.9343 41.7787 90.466C42.6276 89.0975 43.4106 86.8656 44.1205 84.2165C45.4669 79.1965 46.55 72.6689 47.2745 67.6342C47.3696 67.6269 49.4332 59.1016 49.4332 59.1016Z" fill="#2B478B"/>
<path d="M54.4901 46.2381C54.5486 46.304 54.6145 46.3625 54.6803 46.4211C57.3587 48.9164 60.9737 51.1264 62.9056 51.6167C64.1789 51.9387 66.9817 51.507 69.3088 51.0313C70.8601 50.724 72.2066 50.3873 72.7628 50.2556C72.9384 50.2117 73.0409 50.1824 73.0409 50.1824L72.7994 48.6164C72.7994 48.6164 71.4017 48.5066 69.6747 48.3091C67.2598 48.0237 64.2009 47.5919 63.4179 47.1236C61.603 46.0405 58.4125 41.5108 55.8512 38.6641C55.7195 38.5104 55.5878 38.3568 55.456 38.2104C55.3609 38.1006 55.2658 37.9982 55.1706 37.8957C55.1487 37.8738 55.1267 37.8445 55.0975 37.8226C54.9804 37.7128 54.8779 37.603 54.7828 37.5152C54.7755 37.5006 54.7608 37.4933 54.7462 37.4859C54.2925 37.0322 53.4948 36.4761 53.4948 36.4761C53.0484 36.2199 52.6826 36.1687 52.4191 36.3883C52.4191 36.3883 52.0825 36.7176 51.7532 37.3323C51.68 37.464 51.6141 37.603 51.5483 37.7567C51.4971 37.8445 51.4678 37.9323 51.4385 38.0201C51.219 38.5909 51.0653 39.3081 51.0946 40.1423C51.1165 40.7717 51.2336 41.4742 51.519 42.2426C51.9508 43.5012 53.085 44.9063 54.4901 46.2381Z" fill="#FFB27D"/>
<path d="M52.1558 39.6146C51.2484 40.2074 50.1141 40.683 48.7017 40.9684C43.4036 42.0368 41.5156 37.529 40.8423 34.4555C41.5741 34.0677 42.2474 33.9945 42.6425 33.9579C43.0231 33.9213 43.4256 33.9067 43.7549 33.8994C44.3549 33.4603 45.2916 31.6381 45.5697 28.7695L45.8185 28.8427L49.9311 30.0941C49.9311 30.0941 49.7043 31.404 49.5726 32.648C49.4701 33.6213 49.4335 34.5507 49.6165 34.7848C49.9385 34.8653 50.1287 34.9165 50.1287 34.9165C50.1287 34.9165 50.1287 34.9165 50.1287 34.9239C50.18 35.019 51.3289 37.0314 52.1558 39.6146Z" fill="#FFB27D"/>
<path d="M53.9998 42.9209C53.9779 43.0307 53.9486 43.1405 53.912 43.2576C52.9826 46.3676 52.2289 58.7861 52.2289 58.7861C52.7192 60.3375 43.6963 60.6595 38.7128 59.9423C36.9053 59.6789 35.6247 59.2837 35.5368 58.7568C34.6441 56.7517 36.8248 52.9976 38.0835 51.095C38.2444 50.8535 38.3762 50.6047 38.4859 50.3413C38.7713 49.6826 38.9104 48.9728 38.8811 48.2483C38.8445 47.2604 38.7567 46.3091 38.6542 45.409C38.464 43.7186 38.2005 42.2404 38.0688 41.2012C38.3323 40.9378 38.5884 40.6963 38.8226 40.4694C39.1811 40.1182 39.5031 39.7889 39.7227 39.4669C39.9642 39.123 40.1032 38.779 40.0739 38.4278C40.052 38.157 40.0007 37.8862 39.9349 37.6155C39.9056 37.4911 39.869 37.3593 39.8324 37.2349C39.4299 35.9104 38.6835 34.7615 38.6835 34.7615C40.03 33.9712 42.6279 33.9492 42.6279 33.9492C42.6279 33.9492 42.6425 34.0883 42.6791 34.3224C42.8035 35.2518 43.1621 37.6447 43.528 38.0472C43.9817 38.5595 51.1605 40.0304 51.4093 39.2181C51.6581 38.4131 50.1726 35.0396 50.114 34.9079V34.9005C52.4118 35.4494 53.4144 36.0641 53.4583 36.1007C52.2216 37.213 54.6511 39.9426 53.9998 42.9209Z" fill="#FF9843"/>
<path d="M49.9235 30.1029C49.9235 30.1029 49.6966 31.4128 49.5649 32.6569C47.2232 32.3568 46.1987 30.0883 45.8035 28.8516L49.9235 30.1029Z" fill="#ED985F"/>
<path d="M50.5895 31.3522C50.5895 31.3522 45.0206 30.8838 45.3645 27.4225C45.7085 23.9611 45.2182 21.5682 48.7893 21.7218C52.3604 21.8755 52.9166 23.2586 53.0849 24.4441C53.2532 25.6296 52.0458 31.3887 50.5895 31.3522Z" fill="#FFB27D"/>
<path d="M53.1142 22.5062C52.3605 21.3792 51.6873 21.5402 51.2921 21.8183C48.4235 19.8425 46.2135 22.1183 46.2135 22.1183C45.5915 24.5625 43.6595 25.8065 43.6595 25.8065C43.6595 25.8065 44.6109 26.531 47.0038 26.1651C47.7356 26.0554 48.4235 25.609 49.0235 25.0455C47.9185 26.5383 46.5208 27.5482 46.5208 27.5482C49.4407 26.5383 50.9481 22.7696 51.1018 22.3745C51.4092 22.7111 52.0166 23.4429 52.1556 24.1088C52.3459 25.0162 52.2873 26.8457 52.8215 26.8384C52.8215 26.8457 54.2485 24.1966 53.1142 22.5062Z" fill="#2C3A64"/>
<path d="M77.9513 48.3978C77.3951 48.9247 76.8316 50.2565 75.1192 50.2273C73.8971 50.22 72.6604 50.3517 72.0604 50.4249C71.8262 50.4688 71.6945 50.4834 71.6945 50.4834L71.6359 48.5442C71.6359 48.5442 71.6579 48.5442 71.7164 48.5368C72.1335 48.471 74.2338 48.149 75.068 47.6002C76.0047 46.9708 78.1854 47.5562 78.1854 47.5562C78.1854 47.5562 78.5147 47.8782 77.9513 48.3978Z" fill="#FFB27D"/>
<path d="M41.757 113.249H33.1146C33.1146 113.249 32.9097 111.931 33.3561 110.929C33.7878 109.97 34.4684 109.531 34.3074 108.375C34.8562 108.938 35.749 109.575 37.0004 109.407C37.154 109.656 37.9883 110.98 38.5005 111.353C39.064 111.756 41.5813 111.609 41.757 113.249Z" fill="#233862"/>
<path d="M60.3151 113.247H51.6654C51.6654 113.247 51.3434 111.871 51.9069 110.927C52.4118 110.1 52.2142 109.625 51.841 108.937C52.2362 109.098 52.7411 109.244 53.2973 109.208C53.729 109.186 54.1827 108.988 54.5852 108.754C54.9584 109.178 56.5464 110.986 57.044 111.337C57.6221 111.754 60.1395 111.608 60.3151 113.247Z" fill="#233862"/>
<path d="M49.265 29.3568C49.265 29.3568 49.3455 29.8178 50.4725 29.8178C50.4725 29.8178 51.4165 29.8178 51.4238 29.3202C51.4165 29.3202 50.5237 28.9104 49.265 29.3568Z" fill="white"/>
<path d="M39.891 51.3596C39.547 53.5257 37.981 57.8725 38.7128 59.9435C36.9053 59.68 35.6247 59.2848 35.5368 58.758C34.6441 56.7529 36.8248 52.9988 38.0835 51.0961C38.2444 50.8547 38.3762 50.6058 38.4859 50.3424C38.7713 49.6838 38.9104 48.974 38.8811 48.2495C38.8445 47.2616 38.7567 46.3103 38.6542 45.4102C38.6616 45.4175 40.2569 49.0618 39.891 51.3596Z" fill="#ED7D2B"/>
<path d="M52.1264 36.7547C52.1849 38.6793 53.5753 43.9628 53.912 43.2676C54.2925 42.4699 55.7487 39.4476 56.4366 39.3379C56.4 39.1988 53.59 36.0887 53.4656 36.1253C53.4656 36.1253 52.7045 36.3522 52.1264 36.7547Z" fill="#FF9843"/>
<path d="M38.8737 64.0516L37.4394 65.003C37.4394 65.003 37.0735 64.5493 36.5027 63.8248C36.3344 63.6053 36.2393 63.4735 36.2393 63.4735C35.7856 62.8881 35.2587 62.1709 34.6806 61.3879L34.6733 61.3806C33.7073 60.0195 32.6389 58.4754 31.8266 57.0777C31.2631 56.0898 30.8241 55.1677 30.6045 54.4506C30.5826 54.3774 30.5679 54.3116 30.5533 54.2311C30.1289 52.4016 30.9046 48.7646 32.134 45.2228C32.3023 44.7325 32.4779 44.2495 32.6535 43.7811C33.3048 42.0395 34.0439 40.4076 34.7757 39.0904C35.2075 38.3 35.6392 37.6048 36.0563 37.0853C36.2027 36.9023 36.3344 36.7267 36.4808 36.5803C36.5613 36.4925 36.6418 36.4047 36.715 36.3242C37.5785 36.3974 39.386 36.7413 40.7252 38.2854C40.7032 38.3659 40.6812 38.4464 40.652 38.5342C40.1105 40.2832 39.2689 42.4273 38.4054 44.5349C37.9297 45.6911 37.4467 46.84 37.0296 47.9157C36.7589 48.5597 36.5174 49.1744 36.2978 49.7452C35.888 50.8356 35.5807 51.7357 35.4563 52.3723C35.3758 52.7821 35.4929 53.5578 35.7124 54.5091C36.0929 56.1703 36.8174 58.4022 37.4907 60.2976C37.7687 61.0879 38.0395 61.827 38.2663 62.4344C38.6322 63.4077 38.8737 64.0516 38.8737 64.0516Z" fill="#FFB27D"/>
<path d="M39.5031 43.7591C38.0688 41.6003 33.9635 40.671 33.9635 40.671C36.2833 33.3165 42.3644 33.9971 42.3644 33.9971C42.3644 33.9971 40.1471 41.6442 39.5031 43.7591Z" fill="#FF9843"/>
<path d="M37.4393 65.0094C37.4393 65.0094 37.8125 65.5656 37.8564 65.9681C37.9003 66.3705 38.2589 67.6951 38.7199 68.1122C39.1809 68.5366 40.2347 69.3782 40.3811 69.2465C40.5274 69.1221 40.9518 68.1268 40.5567 67.4243C40.3811 67.1097 40.1396 66.2242 39.8176 66.012C39.4297 65.7558 38.8663 64.0508 38.8663 64.0508L37.4393 65.0094Z" fill="#FFB27D"/>
<path d="M38.8809 64.2695C38.8809 64.2695 40.0224 64.8476 40.1761 65.3087C40.3298 65.7697 40.9665 66.7064 40.9006 66.8161C40.8274 66.9332 39.8395 66.2966 39.5029 65.7258C39.1663 65.1477 38.8809 64.2695 38.8809 64.2695Z" fill="#FFB27D"/>
<path d="M66.0158 58.8812L107.772 33.8834C110.077 32.5076 112.945 32.5076 115.25 33.8834L157.006 58.8812V99.6272L66.0158 95.0681V58.8812Z" fill="#ED7D2B"/>
<path d="M149.169 40.8281H73.8459V105.928H149.169V40.8281Z" fill="#FCECDB"/>
<path d="M77.2179 44.3858C77.6134 44.2219 77.8013 43.7684 77.6374 43.3729C77.4736 42.9773 77.0201 42.7895 76.6245 42.9533C76.229 43.1172 76.0412 43.5707 76.205 43.9662C76.3688 44.3618 76.8223 44.5496 77.2179 44.3858Z" fill="#EFCBAB"/>
<path d="M145.276 43.6658C145.276 43.2417 145.619 42.8906 146.051 42.8906C146.475 42.8906 146.826 43.2344 146.826 43.6658C146.826 44.09 146.482 44.441 146.051 44.441C145.627 44.441 145.276 44.0973 145.276 43.6658Z" fill="#EFCBAB"/>
<path d="M146.051 43.5859H76.9193V43.7542H146.051V43.5859Z" fill="#EFCBAB"/>
<path d="M77.0074 43.3594H76.8391V112.491H77.0074V43.3594Z" fill="#EFCBAB"/>
<path d="M146.169 43.3594H146V112.491H146.169V43.3594Z" fill="#EFCBAB"/>
<path d="M157.006 58.7695V113.236H66.0157V58.7695L111.511 86.0067L157.006 58.7695Z" fill="#FF9843"/>
<path d="M66.0157 113.245L107.691 83.3661C109.974 81.7269 113.048 81.7269 115.331 83.3661L157.006 113.245H66.0157Z" fill="#ED7D2B"/>
<path d="M125.4 49.8435H97.9364C97.5412 49.8435 97.2119 49.5142 97.2119 49.119C97.2119 48.7238 97.5412 48.3945 97.9364 48.3945H125.4C125.796 48.3945 126.125 48.7238 126.125 49.119C126.125 49.5215 125.796 49.8435 125.4 49.8435Z" fill="#EFCBAB"/>
<path d="M132.477 52.7575H90.8673C90.4721 52.7575 90.1428 52.4282 90.1428 52.0331C90.1428 51.6379 90.4721 51.3086 90.8673 51.3086H132.477C132.879 51.3086 133.201 51.6379 133.201 52.0331C133.201 52.4282 132.872 52.7575 132.477 52.7575Z" fill="#EFCBAB"/>
<path d="M127.076 61.7803H96.9702C96.6848 61.7803 96.4434 61.5462 96.4434 61.2534C96.4434 60.968 96.6775 60.7266 96.9702 60.7266H127.076C127.361 60.7266 127.603 60.9607 127.603 61.2534C127.603 61.5462 127.369 61.7803 127.076 61.7803Z" fill="#EFCBAB"/>
<path d="M99.9925 64.5186H91.5038C91.2184 64.5186 90.9769 64.2844 90.9769 63.9917C90.9769 63.7063 91.211 63.4648 91.5038 63.4648H99.9925C100.278 63.4648 100.519 63.699 100.519 63.9917C100.519 64.2844 100.278 64.5186 99.9925 64.5186Z" fill="#EFCBAB"/>
<path d="M112.799 64.5186H102.539C102.254 64.5186 102.012 64.2844 102.012 63.9917C102.012 63.7063 102.246 63.4648 102.539 63.4648H112.799C113.084 63.4648 113.326 63.699 113.326 63.9917C113.318 64.2844 113.084 64.5186 112.799 64.5186Z" fill="#EFCBAB"/>
<path d="M132.543 64.5186H114.811C114.526 64.5186 114.284 64.2844 114.284 63.9917C114.284 63.7063 114.519 63.4648 114.811 63.4648H132.543C132.828 63.4648 133.069 63.699 133.069 63.9917C133.069 64.2844 132.835 64.5186 132.543 64.5186Z" fill="#EFCBAB"/>
<path d="M112.865 67.7061H96.3703C96.0849 67.7061 95.8434 67.4719 95.8434 67.1792C95.8434 66.8938 96.0776 66.6523 96.3703 66.6523H112.865C113.15 66.6523 113.392 66.8865 113.392 67.1792C113.384 67.4719 113.15 67.7061 112.865 67.7061Z" fill="#EFCBAB"/>
<path d="M127.676 67.7061H114.687C114.402 67.7061 114.16 67.4719 114.16 67.1792C114.16 66.8938 114.394 66.6523 114.687 66.6523H127.676C127.962 66.6523 128.203 66.8865 128.203 67.1792C128.196 67.4719 127.962 67.7061 127.676 67.7061Z" fill="#EFCBAB"/>
<path d="M117.497 74.1821C116.502 75.009 115.441 75.6896 114.328 76.3189C114.424 76.0262 114.504 75.7116 114.489 75.4408C114.467 75.0603 114.167 74.8993 113.867 74.7383C113.794 74.7017 113.721 74.6578 113.655 74.6139C113.772 74.4968 113.831 74.3431 113.758 74.1675C113.633 73.8821 113.275 73.926 113.15 74.1894C113.128 74.2407 113.114 74.2846 113.106 74.3358C113.055 74.3065 113.019 74.2846 112.989 74.2407C113.172 73.8967 113.348 73.5455 113.509 73.1942C113.545 73.1137 113.501 73.0186 113.436 72.9674C113.172 72.7698 112.806 72.8356 112.594 73.0844C112.338 73.3845 112.404 73.8382 112.528 74.1748C112.536 74.1968 112.543 74.2187 112.557 74.248C112.323 74.6724 112.067 75.0822 111.796 75.4774C111.774 75.4481 111.745 75.4262 111.716 75.4042C111.643 75.3383 111.57 75.2432 111.504 75.1481C111.628 74.8261 111.709 74.4822 111.738 74.1236C111.753 73.9626 111.592 73.8894 111.46 73.9333C111.094 74.0724 110.896 74.4456 110.94 74.8261C110.955 74.9578 110.999 75.0822 111.057 75.1993C110.977 75.3749 110.882 75.5506 110.765 75.7189C110.691 75.8286 110.743 75.9384 110.83 75.9896C110.713 76.3921 110.545 76.8019 110.274 77.0873C110.047 77.3215 109.623 77.5044 109.352 77.219C109.177 77.0434 109.155 76.7434 109.133 76.5092C109.074 75.9311 109.03 75.331 109.052 74.7529C109.06 74.4748 109.089 74.1968 109.184 73.9406C109.242 73.7796 109.323 73.5308 109.403 73.8162C109.44 73.9553 109.389 74.1675 109.374 74.3065C109.352 74.5553 109.733 74.5846 109.762 74.3358C109.791 74.0431 109.923 73.4357 109.594 73.2528C109.323 73.0991 109.067 73.3186 108.942 73.5455C108.489 74.3651 108.672 75.4847 108.738 76.3702C108.789 77.08 109.06 77.9435 109.96 77.724C110.809 77.5118 111.123 76.4433 111.321 75.7042C111.335 75.6603 111.328 75.6164 111.313 75.5798C111.313 75.5725 111.321 75.5652 111.321 75.5652C111.357 75.6018 111.394 75.6384 111.431 75.675C111.482 75.7189 111.526 75.7701 111.577 75.814C111.489 75.9384 111.394 76.0628 111.306 76.1799C111.255 76.2458 111.27 76.3555 111.321 76.4141C111.606 76.758 112.118 76.5019 112.111 76.0775C112.111 75.9823 112.082 75.8945 112.045 75.814C112.316 75.4262 112.565 75.031 112.799 74.6212C112.923 74.7383 113.077 74.8188 113.26 74.8041C113.275 74.8041 113.289 74.8041 113.297 74.7968C113.399 74.8993 113.516 74.9871 113.633 75.053C113.743 75.1115 113.867 75.1554 113.97 75.2359C114.153 75.3896 114.102 75.5579 114.058 75.7701C114.006 76.0482 113.919 76.3336 113.831 76.6043C113.443 76.8239 113.062 77.1093 112.931 77.5557C112.814 77.9655 112.916 78.3972 113.267 78.646C113.37 78.7192 113.509 78.6607 113.56 78.5509C113.78 78.0094 113.977 77.4605 114.145 76.9044C114.153 76.8897 114.16 76.8678 114.16 76.8532C114.504 76.6556 114.863 76.4873 115.199 76.2824C116.099 75.7481 116.956 75.1408 117.76 74.4748C117.943 74.3138 117.687 74.0211 117.497 74.1821ZM112.806 73.6699C112.806 73.5162 112.887 73.2308 113.062 73.2381C112.982 73.4137 112.901 73.5821 112.814 73.7577C112.806 73.7211 112.806 73.6918 112.806 73.6699ZM113.297 78.1265C113.136 77.8191 113.37 77.4459 113.633 77.1971C113.523 77.5118 113.414 77.8264 113.297 78.1265Z" fill="#F99746"/>
<g opacity="0.5">
<path d="M109.886 14.0977L113.809 22.7547L99.3485 29.3042L95.4261 20.6472L104.617 21.7009L109.886 14.0977Z" fill="#CDE0FB"/>
<path d="M95.4261 20.6472L109.879 14.0977L105.554 21.3789C105.21 21.9497 104.551 22.2571 103.893 22.14L95.4261 20.6472Z" fill="#B1CFF2"/>
</g>
<g opacity="0.5">
<path d="M24.8966 70.6055L26.9602 76.1378L17.7178 79.5845L15.6541 74.0522L21.3108 75.0986L24.8966 70.6055Z" fill="#CDE0FB"/>
<path d="M15.6541 74.0522L24.8966 70.6055L21.9036 74.9376C21.6694 75.2816 21.245 75.4426 20.8425 75.3401L15.6541 74.0522Z" fill="#B1CFF2"/>
</g>
<g opacity="0.5">
<path d="M183.182 37.6691L180.284 48.5362L162.136 43.6918L165.034 32.832L172.659 40.6841L183.182 37.6691Z" fill="#CDE0FB"/>
<path d="M165.034 32.832L183.182 37.6765L173.764 41.1012C173.018 41.372 172.191 41.1525 171.671 40.5524L165.034 32.832Z" fill="#B1CFF2"/>
</g>
<path d="M20.9152 95.069C20.4762 95.069 20.0517 95.0617 19.6493 95.047C19.6053 95.047 19.5688 95.0105 19.5688 94.9592C19.5688 94.9153 19.6053 94.8787 19.6566 94.8787C20.0591 94.8934 20.4835 94.8934 20.9152 94.9007C20.9591 94.9007 20.9957 94.9373 20.9957 94.9885C21.0031 95.0324 20.9591 95.069 20.9152 95.069ZM22.1812 95.0617C22.1373 95.0617 22.1007 95.0251 22.1007 94.9812C22.1007 94.9373 22.1373 94.8934 22.1812 94.8934C22.5837 94.8861 23.0082 94.8787 23.4472 94.8641C23.4985 94.8568 23.535 94.9007 23.535 94.9446C23.535 94.9885 23.4985 95.0324 23.4545 95.0324C23.0155 95.047 22.591 95.0544 22.1812 95.0617ZM18.3906 94.9958C17.9369 94.9665 17.5124 94.9373 17.1246 94.8934C17.0807 94.8861 17.0441 94.8495 17.0514 94.7982C17.0587 94.7543 17.0953 94.7177 17.1465 94.7251C17.5344 94.769 17.9588 94.7982 18.3979 94.8275C18.4418 94.8275 18.4784 94.8714 18.4784 94.9153C18.4711 94.9665 18.4345 94.9958 18.3906 94.9958ZM24.7059 94.9812C24.662 94.9812 24.6254 94.9446 24.6254 94.9007C24.6254 94.8568 24.662 94.8129 24.7059 94.8129C25.1084 94.7909 25.5328 94.769 25.9646 94.747C26.0085 94.747 26.0524 94.7763 26.0524 94.8275C26.0524 94.8714 26.0231 94.9153 25.9719 94.9153C25.5475 94.9373 25.1157 94.9592 24.7059 94.9812C24.7132 94.9812 24.7132 94.9812 24.7059 94.9812ZM27.2379 94.8348C27.194 94.8348 27.1574 94.7982 27.1574 94.7543C27.1574 94.7104 27.1867 94.6665 27.2379 94.6665C27.655 94.6372 28.0721 94.608 28.4966 94.5787C28.5405 94.5787 28.5844 94.608 28.5844 94.6592C28.5844 94.7031 28.5551 94.747 28.5039 94.747C28.0794 94.7763 27.655 94.8056 27.2379 94.8348ZM15.8805 94.7177C15.8732 94.7177 15.8732 94.7177 15.8659 94.7177C15.3976 94.6372 14.9878 94.5348 14.6292 94.4177C14.5853 94.4031 14.5633 94.3592 14.578 94.3153C14.5926 94.2713 14.6365 94.2494 14.6804 94.264C15.0317 94.3738 15.4415 94.4763 15.8952 94.5567C15.9391 94.5641 15.9684 94.608 15.961 94.6519C15.9537 94.6958 15.9245 94.7177 15.8805 94.7177ZM29.7552 94.6446C29.7113 94.6446 29.6747 94.608 29.6747 94.5641C29.6674 94.5202 29.704 94.4762 29.7479 94.4762C30.165 94.4397 30.5822 94.4031 31.0066 94.3665C31.0505 94.3592 31.0944 94.3957 31.1017 94.4397C31.109 94.4836 31.0724 94.5275 31.0285 94.5348C30.5968 94.5714 30.1797 94.608 29.7552 94.6446C29.7626 94.6446 29.7626 94.6446 29.7552 94.6446ZM32.2726 94.4177C32.2287 94.4177 32.1921 94.3884 32.1921 94.3445C32.1848 94.3006 32.2214 94.2567 32.2653 94.2494C32.6824 94.2055 33.0995 94.1689 33.5239 94.125C33.5678 94.1177 33.6118 94.1543 33.6191 94.1982C33.6264 94.2421 33.5898 94.286 33.5459 94.2933C33.1215 94.3372 32.7043 94.3811 32.2872 94.4177C32.2799 94.4177 32.2799 94.4177 32.2726 94.4177ZM34.7899 94.1543C34.746 94.1543 34.7094 94.125 34.7094 94.0811C34.7021 94.0372 34.7387 93.9933 34.7826 93.986C35.1997 93.942 35.6168 93.8981 36.0413 93.8469C36.0852 93.8396 36.1291 93.8762 36.1364 93.9201C36.1437 93.964 36.1072 94.0079 36.0632 94.0152C35.6388 94.0591 35.2217 94.1104 34.8046 94.1543C34.7973 94.1543 34.7972 94.1543 34.7899 94.1543ZM13.5169 93.8908C13.5022 93.8908 13.4803 93.8835 13.4656 93.8762C13.2242 93.7006 13.0485 93.4957 12.9388 93.2761C12.8656 93.1151 12.7997 92.9541 12.7485 92.8005C12.7339 92.7566 12.7558 92.7053 12.807 92.698C12.8509 92.6834 12.9022 92.7053 12.9095 92.7565C12.9534 92.9029 13.0193 93.0566 13.0851 93.2103C13.1729 93.4005 13.3339 93.5835 13.5535 93.7445C13.59 93.7737 13.5974 93.825 13.5754 93.8616C13.5681 93.8835 13.5388 93.8908 13.5169 93.8908ZM37.3073 93.8762C37.2634 93.8762 37.2268 93.8469 37.2268 93.803C37.2195 93.7591 37.2561 93.7152 37.3 93.7079C37.7171 93.6566 38.1342 93.6127 38.5586 93.5615C38.6025 93.5542 38.6465 93.5908 38.6538 93.6347C38.6611 93.6786 38.6245 93.7225 38.5806 93.7298C38.1635 93.7811 37.739 93.8323 37.3219 93.8762C37.3073 93.8762 37.3073 93.8762 37.3073 93.8762ZM39.8173 93.5688C39.7734 93.5688 39.7368 93.5396 39.7368 93.4957C39.7295 93.4518 39.7661 93.4078 39.81 93.4005C40.2271 93.3493 40.6442 93.2981 41.0613 93.2395C41.1053 93.2322 41.1492 93.2688 41.1565 93.3127C41.1638 93.3566 41.1272 93.4005 41.0833 93.4078C40.6662 93.4591 40.2491 93.5176 39.8319 93.5688C39.8246 93.5688 39.8173 93.5688 39.8173 93.5688ZM42.32 93.2468C42.2761 93.2468 42.2395 93.2176 42.2395 93.1737C42.2322 93.1298 42.2688 93.0859 42.3127 93.0785C42.7298 93.02 43.1469 92.9688 43.5641 92.9102C43.608 92.9029 43.6519 92.9395 43.6592 92.9834C43.6665 93.0273 43.6299 93.0712 43.586 93.0785C43.1689 93.1371 42.7518 93.1883 42.3347 93.2468C42.3273 93.2468 42.32 93.2468 42.32 93.2468ZM44.8227 92.9102C44.7788 92.9102 44.7422 92.881 44.7422 92.837C44.7349 92.7931 44.7715 92.7492 44.8154 92.7419C45.2325 92.6834 45.6497 92.6248 46.0668 92.5663C46.1107 92.559 46.1546 92.5882 46.1619 92.6395C46.1692 92.6834 46.14 92.7273 46.0887 92.7346C45.6716 92.7931 45.2545 92.8517 44.8374 92.9102C44.8301 92.9102 44.8301 92.9102 44.8227 92.9102ZM47.3328 92.5517C47.2889 92.5517 47.2523 92.5224 47.2523 92.4785C47.245 92.4346 47.2742 92.3907 47.3254 92.3833C47.7426 92.3248 48.1597 92.2662 48.5768 92.2004C48.6207 92.1931 48.6646 92.2223 48.6719 92.2736C48.6793 92.3175 48.65 92.3614 48.5988 92.3687C48.1816 92.4272 47.7645 92.4931 47.3474 92.5517C47.3401 92.5517 47.3328 92.5517 47.3328 92.5517ZM49.8355 92.1858C49.7916 92.1858 49.755 92.1565 49.755 92.1126C49.7477 92.0687 49.7769 92.0248 49.8282 92.0174C50.2453 91.9516 50.6624 91.893 51.0795 91.8272C51.1234 91.8199 51.1673 91.8491 51.1747 91.9004C51.182 91.9443 51.1527 91.9882 51.1015 91.9955C50.6844 92.0614 50.2672 92.1199 49.8501 92.1858C49.8428 92.1858 49.8355 92.1858 49.8355 92.1858ZM52.3309 91.8052C52.287 91.8052 52.2577 91.776 52.2504 91.732C52.2431 91.6881 52.2723 91.6442 52.3236 91.6369C52.7407 91.5711 53.1578 91.5052 53.5749 91.4467C53.6188 91.4393 53.6627 91.4686 53.67 91.5198C53.6774 91.5637 53.6481 91.6076 53.5969 91.615C53.1797 91.6808 52.7626 91.7467 52.3455 91.8052C52.3382 91.8052 52.3382 91.8052 52.3309 91.8052ZM12.7558 91.615C12.7485 91.615 12.7412 91.615 12.7412 91.615C12.6973 91.6076 12.668 91.5637 12.6753 91.5125C12.7558 91.11 12.9461 90.7222 13.2388 90.3636C13.2681 90.327 13.3193 90.3197 13.3559 90.349C13.3925 90.3782 13.3998 90.4295 13.3705 90.4661C13.0924 90.8027 12.9168 91.1686 12.8436 91.5418C12.829 91.5857 12.7924 91.615 12.7558 91.615ZM54.8336 91.4174C54.7897 91.4174 54.7604 91.3881 54.7531 91.3442C54.7458 91.3003 54.775 91.2564 54.8263 91.2491C55.2434 91.1832 55.6605 91.1173 56.0776 91.0515C56.1215 91.0442 56.1654 91.0734 56.1728 91.1247C56.1801 91.1686 56.1508 91.2125 56.0996 91.2198C55.6898 91.2857 55.2727 91.3515 54.8482 91.4174C54.8409 91.4174 54.8336 91.4174 54.8336 91.4174ZM57.329 91.0222C57.2851 91.0222 57.2558 90.9929 57.2485 90.949C57.2412 90.9051 57.2704 90.8612 57.3217 90.8539C57.7388 90.788 58.1559 90.7149 58.573 90.649C58.6169 90.6417 58.6608 90.671 58.6682 90.7149C58.6755 90.7588 58.6462 90.8027 58.6023 90.81C58.1925 90.8759 57.7754 90.949 57.3509 91.0149C57.3363 91.0222 57.3363 91.0222 57.329 91.0222ZM59.8244 90.6124C59.7805 90.6124 59.7512 90.5831 59.7439 90.5392C59.7366 90.4953 59.7658 90.4514 59.8097 90.4441C60.2342 90.3709 60.644 90.3051 61.0538 90.2392C61.0977 90.2319 61.1416 90.2612 61.1489 90.3051C61.1562 90.349 61.127 90.3929 61.083 90.4002C60.6732 90.4661 60.2561 90.5392 59.839 90.6051C59.8317 90.6124 59.8317 90.6124 59.8244 90.6124ZM62.3198 90.188C62.2759 90.188 62.2466 90.1587 62.2393 90.1148C62.232 90.0709 62.2612 90.027 62.3051 90.0197C62.7296 89.9465 63.1467 89.8806 63.5492 89.8074C63.5931 89.8001 63.637 89.8294 63.6443 89.8733C63.6516 89.9172 63.6224 89.9611 63.5784 89.9684C63.1686 90.0416 62.7515 90.1075 62.3344 90.1807C62.3271 90.188 62.3271 90.188 62.3198 90.188ZM64.8152 89.7635C64.7786 89.7635 64.742 89.7343 64.7347 89.6904C64.7273 89.6465 64.7566 89.6025 64.8005 89.5952C65.225 89.522 65.6421 89.4489 66.0446 89.3757C66.0885 89.3684 66.1324 89.3976 66.1397 89.4416C66.147 89.4855 66.1177 89.5294 66.0738 89.5367C65.6714 89.6099 65.2542 89.683 64.8298 89.7562C64.8225 89.7635 64.8152 89.7635 64.8152 89.7635ZM14.234 89.6611C14.2048 89.6611 14.1828 89.6465 14.1682 89.6245C14.1389 89.5879 14.1535 89.5367 14.1901 89.5074C14.5048 89.2879 14.878 89.0683 15.2951 88.8708C15.339 88.8488 15.3902 88.8708 15.4049 88.9073C15.4268 88.9513 15.4049 89.0025 15.3683 89.0171C14.9585 89.2147 14.5999 89.4269 14.2852 89.6464C14.2633 89.6538 14.2487 89.6611 14.234 89.6611ZM67.3032 89.3245C67.2667 89.3245 67.2301 89.2952 67.2227 89.2586C67.2154 89.2147 67.2447 89.1708 67.2886 89.1635C67.7204 89.0903 68.1375 89.0098 68.5326 88.9439C68.5766 88.9366 68.6205 88.9659 68.6278 89.0098C68.6351 89.0537 68.6058 89.0976 68.5619 89.1049C68.1594 89.1781 67.7423 89.2513 67.3179 89.3245C67.3179 89.3245 67.3106 89.3245 67.3032 89.3245ZM69.7986 88.8781C69.7621 88.8781 69.7255 88.8488 69.7181 88.8122C69.7108 88.7683 69.7401 88.7244 69.784 88.7171C70.2231 88.6366 70.6402 88.5634 71.028 88.4902C71.0719 88.4829 71.1159 88.5122 71.1232 88.5561C71.1305 88.6 71.1012 88.6439 71.0573 88.6512C70.6695 88.7244 70.2523 88.7976 69.8133 88.8781C69.806 88.8781 69.806 88.8781 69.7986 88.8781ZM16.4879 88.5341C16.4513 88.5341 16.4221 88.5122 16.4074 88.4829C16.3928 88.439 16.4147 88.3878 16.4587 88.3731C16.8319 88.2341 17.2344 88.1024 17.6661 87.9707C17.71 87.956 17.7612 87.9853 17.7686 88.0292C17.7832 88.0731 17.7539 88.117 17.71 88.1317C17.2856 88.2561 16.8831 88.3951 16.5172 88.5268C16.5099 88.5341 16.5026 88.5341 16.4879 88.5341ZM72.294 88.4244C72.2574 88.4244 72.2209 88.3951 72.2135 88.3585C72.2062 88.3146 72.2355 88.2707 72.2794 88.2634C72.7551 88.1756 73.1722 88.0951 73.5234 88.0292C73.5673 88.0219 73.6113 88.0512 73.6186 88.0951C73.6259 88.139 73.5966 88.1829 73.5527 88.1902C73.2014 88.2561 72.777 88.3366 72.3087 88.4244C72.3013 88.4244 72.294 88.4244 72.294 88.4244ZM74.7894 87.956C74.7528 87.956 74.7163 87.9267 74.7089 87.8902C74.7016 87.8463 74.7309 87.8024 74.7748 87.795C74.8626 87.7804 74.9065 87.7658 74.9212 87.7658C74.9724 87.7511 75.0236 87.795 75.0236 87.8463C75.0236 87.9194 75.0163 87.9194 74.8114 87.956C74.7967 87.956 74.7894 87.956 74.7894 87.956ZM18.9101 87.8023C18.8736 87.8023 18.837 87.7731 18.8296 87.7365C18.815 87.6926 18.8443 87.6487 18.8882 87.634C19.2834 87.5389 19.7005 87.4438 20.1249 87.356C20.1688 87.3486 20.2127 87.3779 20.2274 87.4218C20.2347 87.4657 20.2054 87.5096 20.1615 87.5243C19.7371 87.6121 19.3199 87.7072 18.9321 87.8023C18.9248 87.8023 18.9175 87.8023 18.9101 87.8023ZM21.3909 87.2901C21.347 87.2901 21.3177 87.2608 21.3104 87.2169C21.3031 87.173 21.3324 87.1291 21.3763 87.1218C21.7788 87.0486 22.2032 86.9827 22.6276 86.9242C22.6715 86.9169 22.7154 86.9462 22.7228 86.9974C22.7301 87.0413 22.7008 87.0852 22.6496 87.0925C22.2251 87.1511 21.8007 87.2242 21.3982 87.2901C21.4055 87.2901 21.3982 87.2901 21.3909 87.2901ZM23.9009 86.9242C23.857 86.9242 23.8204 86.8949 23.8204 86.851C23.8131 86.8071 23.8497 86.7632 23.8936 86.7559C24.3107 86.7047 24.7352 86.6608 25.1523 86.6169C25.1962 86.6095 25.2401 86.6461 25.2474 86.69C25.2547 86.7339 25.2182 86.7778 25.1742 86.7852C24.7571 86.8291 24.3327 86.873 23.9156 86.9242C23.9083 86.9242 23.9009 86.9242 23.9009 86.9242ZM26.4183 86.6754C26.3744 86.6754 26.3378 86.6388 26.3378 86.5949C26.3378 86.551 26.3671 86.5071 26.4183 86.5071C27.2013 86.4485 27.6843 86.4266 27.6916 86.4266C27.7355 86.4193 27.7794 86.4632 27.7794 86.5071C27.7794 86.551 27.7428 86.5949 27.6989 86.5949C27.6916 86.5949 27.2086 86.6169 26.4183 86.6754C26.4256 86.6754 26.4256 86.6754 26.4183 86.6754Z" fill="#AFCDFB"/>
<path d="M77.5998 92.3958L87.9765 86.5195L78.5145 87.0757L79.239 88.6783L77.2851 90.8444L77.5998 92.3958Z" fill="#AFCDFB"/>
<path d="M87.9764 86.5195L77.102 88.51L69.1914 94.0057L87.9764 86.5195Z" fill="white"/>
<path d="M78.5143 87.0746L87.9763 86.5185L78.0753 83.6133L78.5143 87.0746Z" fill="white"/>
<path d="M133.713 15.1551L145.487 17.0138L137.738 11.5547L137.313 13.2598L134.43 13.7427L133.713 15.1551Z" fill="#AFCDFB"/>
<path d="M145.487 17.0154L135.74 11.8051L126.124 11.1758L145.487 17.0154Z" fill="white"/>
<path d="M137.738 11.557L145.487 17.0161L139.553 8.58594L137.738 11.557Z" fill="white"/>
<path d="M169.366 62.8725C169.366 62.8725 166.965 63.0408 165.194 67.3656C163.409 71.7271 167.404 71.6832 166.058 74.464C164.712 77.2448 167.997 78.8986 168.992 81.1745C169.988 83.4503 175.015 88.9387 175.418 91.4414C175.813 93.9442 180.284 88.8363 180.284 88.8363C180.284 88.8363 184.828 83.9919 183.196 81.1745C180.511 76.5349 182.838 75.5251 182.75 72.9346C182.677 70.3367 177.752 60.121 169.366 62.8725Z" fill="#233862"/>
<path d="M168.063 78.3789C168.063 78.3789 158.769 82.433 156.998 82.3525C155.235 82.272 144.353 79.0375 144.353 79.0375L144.631 80.9109C144.631 80.9109 153.025 85.7407 155.967 86.0115C158.857 86.2822 168.736 83.4209 169.695 82.8135C170.646 82.2135 170.836 78.9936 168.063 78.3789Z" fill="#FFAD76"/>
<path d="M167.317 82.8256C168.173 83.4184 169.241 83.9087 170.588 84.216C175.63 85.3796 177.562 81.1206 178.286 78.1934C177.598 77.7982 176.954 77.7104 176.581 77.6665C176.215 77.6226 175.835 77.5933 175.513 77.5787C174.949 77.147 174.1 75.3687 173.917 72.6172L173.683 72.6831L169.71 73.7734C169.71 73.7734 169.893 75.0394 169.98 76.2322C170.046 77.1689 170.171 77.7104 169.995 77.93C169.688 77.9958 169.388 78.391 169.388 78.391C169.388 78.391 169.388 78.391 169.388 78.3983C169.329 78.4715 168.173 80.3668 167.317 82.8256Z" fill="#FFB27D"/>
<path d="M169.703 73.7745C169.703 73.7745 169.885 75.0331 169.973 76.2333C172.227 76.0064 173.266 73.8623 173.676 72.6914L169.703 73.7745Z" fill="#ED985F"/>
<path d="M169.036 74.9585C169.036 74.9585 174.378 74.6658 174.144 71.3361C173.91 68.0138 174.444 65.738 171.02 65.7819C167.602 65.8331 167.024 67.143 166.834 68.27C166.643 69.4042 167.639 74.9439 169.036 74.9585Z" fill="#FFB27D"/>
<path d="M179.808 93.6875C180.291 91.2214 181.864 81.3642 180.291 78.1956C179.728 77.054 177.51 76.9515 175.073 77.054C174.32 77.5443 171.429 79.3884 170.251 79.1615C170.236 79.1615 170.214 79.1542 170.185 79.1469C169.629 79.0079 169.526 78.2614 169.995 77.9248C169.995 77.9248 168.678 78.159 167.185 78.4444C166.343 78.6054 164.06 79.7836 164.06 79.7836C164.06 79.7836 165.209 81.8545 166.899 82.5717C166.614 85.1476 167.038 86.2818 169.709 92.2313C171.963 97.2586 169.402 101.781 169.402 101.781C169.402 101.781 182.684 112.465 182.757 107.021C182.816 102.923 179.186 96.8415 179.808 93.6875Z" fill="#739AF0"/>
<path d="M168.744 113.386C168.019 113.306 167.368 112.911 166.965 112.303C166.9 112.208 166.834 112.106 166.761 111.996C165.246 109.705 164.66 102.695 161.257 95.2307C160.431 93.4159 157.452 93.0866 156.647 91.0303C156.647 91.0303 154.649 84.371 160.467 84.1734C166.285 83.9758 176.047 102.71 176.201 104.678C176.347 106.573 180.042 114.66 168.744 113.386Z" fill="#233862"/>
<path d="M145.627 113.234H153.903C153.903 113.234 154.21 111.916 153.669 111.016C153.186 110.219 153.369 109.765 153.727 109.114C153.354 109.267 152.864 109.406 152.33 109.377C151.92 109.355 151.481 109.165 151.1 108.945C150.742 109.355 149.22 111.082 148.744 111.426C148.202 111.807 145.795 111.668 145.627 113.234Z" fill="#172B4C"/>
<path d="M178.93 80.7773C178.93 80.7773 180.006 90.5833 173.017 92.6323C166.029 94.6886 164.046 83.6167 169.688 82.819C175.337 82.0214 178.93 80.7773 178.93 80.7773Z" fill="#5486D6"/>
<path d="M156.457 86.0909C155.959 89.8303 154.013 101.619 150.581 107.379C149.476 109.237 153.369 110.276 153.391 110.269C153.91 110.13 154.781 109.296 155.184 108.937C157.972 106.427 163.629 99.3143 163.629 93.6063C163.629 90.8255 163.68 85.5128 161.653 84.1663C160.409 83.332 156.655 84.6127 156.457 86.0909Z" fill="#233862"/>
<path d="M173.676 113.235C173.676 113.235 173.368 112.81 172.834 111.998C172.198 111.032 171.495 109.137 170.639 106.707C169.739 104.153 168.678 101.014 167.346 97.7428C166.936 96.7329 166.497 95.7157 166.036 94.6912C165.209 92.8764 162.926 93.1252 162.121 91.0689C162.121 91.0689 158.959 83.9413 164.77 83.7437C170.588 83.5461 181.638 102.807 182.274 104.673C182.969 106.715 186.358 115.189 173.676 113.235Z" fill="#2B478B"/>
<path d="M151.7 113.234H159.977C159.977 113.234 160.284 111.916 159.743 111.016C159.26 110.219 159.443 109.765 159.801 109.114C159.428 109.267 158.938 109.406 158.403 109.377C157.994 109.355 157.554 109.165 157.174 108.945C156.815 109.355 155.293 111.082 154.818 111.426C154.283 111.807 151.869 111.668 151.7 113.234Z" fill="#233862"/>
<path d="M170.639 106.709C169.739 104.155 168.678 101.015 167.346 97.7442C167.697 95.2708 168.444 93.1047 169.702 92.2266C169.702 92.2266 172.761 101.703 170.639 106.709Z" fill="#23407A"/>
<path d="M161.287 85.8283C160.789 89.5677 160.087 101.628 156.654 107.379C155.549 109.238 159.443 110.277 159.465 110.27C159.984 110.131 160.855 109.297 161.257 108.938C164.045 106.428 169.702 99.3151 169.702 93.6072C169.702 90.8264 166.438 85.7405 164.419 84.3867C163.175 83.5597 161.484 84.3428 161.287 85.8283Z" fill="#2B478B"/>
<path d="M151.042 76.0323C151.042 76.0323 150.617 74.9566 149.849 75.0224C149.081 75.0956 142.07 76.0323 142.07 76.0323C142.07 76.0323 142.89 76.2299 143.197 76.7641L146.432 86.292H154.723L151.042 76.0323Z" fill="#EBF3FA"/>
<path d="M178.286 78.1953C178.286 78.1953 166.534 82.5202 164.77 82.4324C163.628 82.3738 154.144 79.0442 154.144 79.0442L153.296 80.6541C153.296 80.6541 162.531 86.5889 165.063 86.5596C170.075 86.5011 178.528 83.4276 179.479 82.8202C180.43 82.2128 181.06 78.81 178.286 78.1953Z" fill="#FFBF94"/>
<path d="M154.145 79.0473C154.145 79.0473 153.296 77.7374 152.447 77.7008C151.598 77.6642 150.134 78.2789 149.637 78.374C149.139 78.4692 147.712 78.9302 148.137 79.6254C148.561 80.3206 150.53 80.4743 151.371 80.3206C152.213 80.1669 153.296 80.6572 153.296 80.6572L154.145 79.0473Z" fill="#FFBF94"/>
<path d="M152.674 77.7325C152.674 77.7325 151.327 77.1105 150.94 77.0007C150.552 76.8836 150.632 77.0007 150.749 77.3666C150.866 77.7325 151.562 78.0838 151.562 78.1935C151.562 78.3106 152.674 77.7325 152.674 77.7325Z" fill="#FFBF94"/>
<path d="M168.034 73.0429C168.034 73.0429 168.539 72.8453 169.958 72.9551C169.958 72.9551 169.885 73.5112 168.831 73.5625C168.239 73.5991 168.034 73.0429 168.034 73.0429Z" fill="white"/>
<path d="M172.234 80.3307C172.234 80.3307 173.288 83.6603 176.896 84.414C176.896 84.414 182.852 82.5773 179.889 78.5158C179.881 78.5158 176.947 76.3351 172.234 80.3307Z" fill="#739AF0"/>
<path d="M142.063 76.0299C142.063 76.0299 141.287 76.3299 141.872 77.3398L149.454 76.3299C149.454 76.3299 149.19 75.1591 149.783 75.0273L142.063 76.0299Z" fill="white"/>
<path d="M144.777 78.5168C144.96 77.7996 144.946 77.624 144.536 77.1849C144.265 76.8922 143.855 77.6167 143.643 78.0484C143.563 77.8582 143.431 77.5435 143.387 77.5289C143.321 77.5069 143.475 78.4948 143.475 78.4948C143.468 78.5387 143.468 78.5753 143.468 78.6192C143.468 78.6192 143.138 80.0755 144.573 80.8658L144.302 80.0609C144.47 80.0316 144.594 79.2486 144.777 78.5168Z" fill="#FFAD76"/>
<path d="M168.832 66.5174C168.832 66.5174 169.959 66.1222 170.5 67.2711C171.049 68.42 171.217 71.1715 173.405 71.3984C175.593 71.6252 175.674 66.7369 175.674 66.7369L170.2 64.5781L167.309 66.4003L168.832 66.5174Z" fill="#233862"/>
<path d="M168.832 66.5152C168.832 66.5152 167.595 66.5444 167.317 67.5836C167.039 68.6227 167.478 70.562 166.79 70.701C166.109 70.84 165.487 67.4738 166.804 66.3761C168.122 65.2784 168.832 66.5152 168.832 66.5152Z" fill="#233862"/>
<path d="M72.0308 48.4944C72.0308 48.4944 73.2675 48.026 73.4065 47.704C73.5456 47.3821 73.9554 47.243 74.4457 47.0162C74.936 46.7893 75.2287 46.3868 75.3018 46.4381C75.375 46.4966 75.3897 46.7747 75.1921 46.9869C74.9945 47.1991 74.1603 48.67 73.8529 48.8383C73.5309 49.0066 72.0308 48.4944 72.0308 48.4944Z" fill="#FFB27D"/>
<path d="M200.116 113.175H192.183C191.759 112.816 192.476 111.997 193.229 111.938C193.559 111.916 193.969 111.982 194.437 112.085C194.547 110.636 195.169 104.115 197.518 104.379C200.159 104.672 197.518 107.247 196.771 108.777C196.215 109.904 195.637 111.528 195.366 112.297C195.578 112.341 195.805 112.392 196.032 112.429C196.383 111.353 197.686 107.738 199.34 107.95C201.286 108.199 200.503 109.648 199.128 110.511C198.118 111.148 196.874 112.041 196.281 112.48C196.779 112.56 197.305 112.619 197.832 112.604C199.201 112.56 199.859 112.963 200.116 113.175Z" fill="#82B378"/>
<path d="M22.2987 113.336C22.2987 113.336 19.2838 105.052 17.1616 105.762C15.0467 106.464 22.2987 113.336 22.2987 113.336Z" fill="#82B378"/>
<path d="M21.1423 113.337C20.8862 113.337 16.071 108.339 15.749 109.649C15.427 110.958 21.1423 113.337 21.1423 113.337Z" fill="#82B378"/>
<path d="M26.2722 113.336C26.2722 113.336 24.2818 111.514 21.7644 111.989C19.2471 112.465 18.1714 112.985 16.5834 112.626C15.0027 112.267 14.1904 113.343 14.1904 113.343H26.2722V113.336Z" fill="#82B378"/>
<path d="M211.758 113.806H0.550023C0.418301 113.806 0.308533 113.696 0.308533 113.564V113.484C0.308533 113.352 0.418301 113.242 0.550023 113.242H211.758C211.89 113.242 212 113.352 212 113.484V113.564C212 113.696 211.89 113.806 211.758 113.806Z" fill="#2E3552"/>
<path d="M87.6838 110.028H72.0089C71.1307 110.028 70.4209 109.318 70.4209 108.44V104.166C70.4209 103.288 71.1307 102.578 72.0089 102.578H87.6838C88.5619 102.578 89.2717 103.288 89.2717 104.166V108.44C89.2717 109.318 88.5619 110.028 87.6838 110.028Z" fill="#FCECDB"/>
<path d="M84.4932 104.436H72.6822C72.5504 104.436 72.4407 104.326 72.4407 104.195C72.4407 104.063 72.5504 103.953 72.6822 103.953H84.4932C84.6249 103.953 84.7347 104.063 84.7347 104.195C84.7347 104.326 84.6249 104.436 84.4932 104.436Z" fill="#EFCBAB"/>
<path d="M74.7824 105.467H72.6895C72.5578 105.467 72.448 105.358 72.448 105.226C72.448 105.094 72.5578 104.984 72.6895 104.984H74.7824C74.9141 104.984 75.0239 105.094 75.0239 105.226C75.0166 105.358 74.9141 105.467 74.7824 105.467Z" fill="#EFCBAB"/>
<path d="M81.3761 105.467H75.6096C75.4779 105.467 75.3681 105.358 75.3681 105.226C75.3681 105.094 75.4779 104.984 75.6096 104.984H81.3761C81.5078 104.984 81.6176 105.094 81.6176 105.226C81.6176 105.358 81.5078 105.467 81.3761 105.467Z" fill="#EFCBAB"/>
<path d="M84.4931 107.385H72.682C72.5503 107.385 72.4406 107.276 72.4406 107.144C72.4406 107.012 72.5503 106.902 72.682 106.902H84.4931C84.6248 106.902 84.7346 107.012 84.7346 107.144C84.7346 107.276 84.6248 107.385 84.4931 107.385Z" fill="#EFCBAB"/>
<path d="M76.9703 108.417H72.682C72.5503 108.417 72.4406 108.307 72.4406 108.175C72.4406 108.043 72.5503 107.934 72.682 107.934H76.9703C77.102 107.934 77.2118 108.043 77.2118 108.175C77.2118 108.307 77.102 108.417 76.9703 108.417Z" fill="#EFCBAB"/>
<path d="M82.1881 108.417H77.8999C77.7681 108.417 77.6584 108.307 77.6584 108.175C77.6584 108.043 77.7681 107.934 77.8999 107.934H82.1881C82.3199 107.934 82.4296 108.043 82.4296 108.175C82.4296 108.307 82.3199 108.417 82.1881 108.417Z" fill="#EFCBAB"/>
</svg>
