<svg width="20" height="20" viewBox="0 0 20 20" fill="none" xmlns="http://www.w3.org/2000/svg">
<path d="M17.5842 7.98989H16.5817V7.00968C16.5817 6.59121 16.246 6.25 15.8325 6.25C15.4198 6.25 15.0834 6.59121 15.0834 7.00968V7.98989H14.0825C13.669 7.98989 13.3334 8.33109 13.3334 8.74957C13.3334 9.16804 13.669 9.50925 14.0825 9.50925H15.0834V10.4903C15.0834 10.9088 15.4198 11.25 15.8325 11.25C16.246 11.25 16.5817 10.9088 16.5817 10.4903V9.50925H17.5842C17.9969 9.50925 18.3334 9.16804 18.3334 8.74957C18.3334 8.33109 17.9969 7.98989 17.5842 7.98989Z" fill="url(#paint0_linear_1819_18329)"/>
<path d="M7.91669 12.5117C4.54521 12.5117 1.66669 13.0507 1.66669 15.2043C1.66669 17.357 4.52769 17.9155 7.91669 17.9155C11.2873 17.9155 14.1667 17.3764 14.1667 15.2229C14.1667 13.0693 11.3057 12.5117 7.91669 12.5117Z" fill="url(#paint1_linear_1819_18329)"/>
<path d="M7.91672 10.4605C10.2122 10.4605 12.0522 8.59677 12.0522 6.27171C12.0522 3.94665 10.2122 2.08203 7.91672 2.08203C5.62124 2.08203 3.78119 3.94665 3.78119 6.27171C3.78119 8.59677 5.62124 10.4605 7.91672 10.4605Z" fill="url(#paint2_linear_1819_18329)"/>
<defs>
<linearGradient id="paint0_linear_1819_18329" x1="13.6059" y1="10.7225" x2="17.7215" y2="6.51837" gradientUnits="userSpaceOnUse">
<stop stop-color="#911F8E"/>
<stop offset="1" stop-color="#FD7014"/>
</linearGradient>
<linearGradient id="paint1_linear_1819_18329" x1="2.348" y1="17.3454" x2="5.54163" y2="9.79897" gradientUnits="userSpaceOnUse">
<stop stop-color="#911F8E"/>
<stop offset="1" stop-color="#FD7014"/>
</linearGradient>
<linearGradient id="paint2_linear_1819_18329" x1="4.23201" y1="9.57663" x2="11.1299" y2="2.62076" gradientUnits="userSpaceOnUse">
<stop stop-color="#911F8E"/>
<stop offset="1" stop-color="#FD7014"/>
</linearGradient>
</defs>
</svg>
